<svg width="600" height="600" viewBox="0 0 600 600" fill="none" xmlns="http://www.w3.org/2000/svg">
<path d="M522.593 183.325L535.804 190.981L538.304 187.153C538.667 186.612 539.183 186.177 539.796 185.895C540.409 185.613 541.094 185.497 541.774 185.558C542.548 185.596 543.323 185.596 544.097 185.558C544.78 185.54 545.455 185.699 546.048 186.016C546.641 186.334 547.129 186.798 547.457 187.357L549.698 191.274L563.36 184.41L561.106 180.506C560.787 179.941 560.642 179.305 560.685 178.668C560.728 178.031 560.959 177.417 561.352 176.895C561.8 176.301 562.21 175.683 562.581 175.045C562.907 174.485 563.392 174.019 563.982 173.7C564.573 173.38 565.246 173.219 565.928 173.233L570.683 173.373L571.174 158.866L566.393 158.738C565.709 158.71 565.047 158.506 564.481 158.148C563.914 157.79 563.464 157.292 563.182 156.71C563.018 156.391 562.854 156.072 562.663 155.766C562.472 155.459 562.294 155.14 562.103 154.834C561.745 154.291 561.556 153.666 561.556 153.029C561.556 152.391 561.745 151.766 562.103 151.223L564.63 147.396L551.419 139.74L548.906 143.568C548.541 144.108 548.025 144.544 547.413 144.827C546.8 145.111 546.116 145.231 545.436 145.175C544.663 145.112 543.888 145.086 543.113 145.099C542.432 145.117 541.758 144.959 541.167 144.641C540.576 144.324 540.091 143.859 539.766 143.3L537.525 139.383L523.863 146.247L526.118 150.164C526.436 150.727 526.58 151.362 526.535 151.998C526.489 152.633 526.254 153.244 525.858 153.762C525.416 154.353 525.01 154.966 524.642 155.6C524.32 156.164 523.837 156.633 523.246 156.956C522.655 157.278 521.979 157.44 521.295 157.424L516.527 157.284L516.049 171.791L520.817 171.919C521.517 171.951 522.194 172.166 522.769 172.541C523.344 172.915 523.794 173.434 524.068 174.037C524.232 174.356 524.396 174.675 524.587 174.994C524.779 175.313 524.956 175.619 525.148 175.925C525.505 176.468 525.695 177.093 525.695 177.73C525.695 178.368 525.505 178.993 525.148 179.536L522.593 183.325ZM532.402 171.038C531.217 168.967 530.717 166.613 530.964 164.276C531.211 161.939 532.194 159.722 533.789 157.907C535.385 156.091 537.521 154.758 539.927 154.076C542.333 153.394 544.902 153.393 547.309 154.074C549.716 154.755 551.853 156.087 553.449 157.901C555.046 159.716 556.03 161.932 556.279 164.269C556.527 166.606 556.028 168.96 554.844 171.032C553.661 173.105 551.846 174.803 549.63 175.912C548.157 176.652 546.542 177.112 544.877 177.267C543.213 177.422 541.533 177.269 539.932 176.816C538.332 176.363 536.843 175.62 535.55 174.628C534.258 173.637 533.188 172.417 532.402 171.038Z" fill="#EBEBEB"/>
<path d="M561.365 261.001L566.83 269.817L569.726 268.248C570.146 268.025 570.624 267.916 571.106 267.932C571.588 267.947 572.057 268.088 572.459 268.337C572.899 268.616 573.355 268.871 573.825 269.103C574.24 269.31 574.587 269.619 574.828 269.997C575.069 270.375 575.194 270.807 575.191 271.246V274.321H586.121V271.208C586.124 270.762 586.26 270.325 586.513 269.947C586.766 269.568 587.127 269.263 587.555 269.065C588.025 268.833 588.481 268.577 588.921 268.299C589.324 268.051 589.792 267.911 590.274 267.896C590.756 267.88 591.233 267.989 591.654 268.21L594.536 269.779L600.001 260.963L597.105 259.406C596.692 259.18 596.355 258.852 596.131 258.457C595.907 258.063 595.804 257.619 595.834 257.173C595.834 256.918 595.834 256.675 595.834 256.42C595.834 256.165 595.834 255.923 595.834 255.667C595.801 255.223 595.901 254.779 596.123 254.384C596.345 253.99 596.68 253.661 597.091 253.435L600.001 251.865L594.536 243.061L591.64 244.618C591.222 244.845 590.743 244.957 590.26 244.941C589.777 244.925 589.308 244.782 588.908 244.529C588.457 244.261 587.992 244.006 587.541 243.776C587.114 243.576 586.754 243.271 586.501 242.893C586.248 242.514 586.112 242.078 586.107 241.632V238.596H575.177V241.709C575.179 242.148 575.053 242.58 574.812 242.957C574.572 243.335 574.226 243.644 573.811 243.852C573.333 244.082 572.869 244.337 572.445 244.605C572.045 244.859 571.576 245.002 571.093 245.018C570.609 245.033 570.131 244.921 569.713 244.695L566.816 243.138L561.352 251.942L564.248 253.511C564.661 253.735 564.998 254.064 565.22 254.459C565.443 254.854 565.541 255.299 565.505 255.744C565.505 255.986 565.505 256.242 565.505 256.497C565.505 256.752 565.505 256.994 565.505 257.25C565.54 257.694 565.44 258.139 565.218 258.534C564.996 258.929 564.66 259.257 564.248 259.482L561.365 261.001ZM571.776 256.459C571.776 254.81 572.299 253.199 573.28 251.828C574.261 250.458 575.655 249.39 577.286 248.76C578.917 248.13 580.711 247.965 582.442 248.288C584.173 248.61 585.763 249.405 587.01 250.572C588.257 251.738 589.106 253.224 589.448 254.841C589.791 256.458 589.612 258.134 588.935 259.656C588.258 261.178 587.112 262.478 585.643 263.392C584.174 264.306 582.448 264.793 580.683 264.79C579.512 264.79 578.353 264.575 577.271 264.156C576.19 263.737 575.207 263.123 574.38 262.349C573.552 261.575 572.897 260.657 572.45 259.646C572.003 258.635 571.774 257.552 571.776 256.459Z" fill="#EBEBEB"/>
<path d="M0.0136622 420.529L5.47841 429.333L8.36107 427.776C8.77906 427.551 9.25622 427.438 9.73892 427.452C10.2216 427.465 10.6907 427.604 11.0934 427.853C11.5335 428.131 11.9896 428.387 12.4596 428.619C12.875 428.826 13.2218 429.135 13.4626 429.513C13.7034 429.89 13.829 430.322 13.8258 430.762V433.875H24.7553V430.762C24.7586 430.316 24.8945 429.879 25.1477 429.501C25.401 429.122 25.7617 428.817 26.1898 428.619C26.6599 428.387 27.116 428.131 27.556 427.853C27.9575 427.601 28.427 427.461 28.9104 427.447C29.3938 427.434 29.8714 427.548 30.2884 427.776L33.1847 429.333L38.6494 420.529L35.7531 418.96C35.3375 418.737 34.9977 418.41 34.7729 418.015C34.5481 417.62 34.4475 417.173 34.4826 416.727C34.4826 416.472 34.4826 416.229 34.4826 415.974C34.4826 415.719 34.4826 415.477 34.4826 415.221C34.4494 414.777 34.5494 414.333 34.7714 413.938C34.9934 413.544 35.3286 413.215 35.7395 412.989L38.6494 411.432L33.1847 402.615L30.2884 404.185C29.8682 404.406 29.3908 404.515 28.9087 404.499C28.4267 404.483 27.9586 404.344 27.556 404.095C27.1162 403.817 26.6601 403.561 26.1898 403.33C25.7617 403.132 25.401 402.826 25.1477 402.448C24.8945 402.069 24.7586 401.633 24.7553 401.186V398.086H13.8258V401.199C13.829 401.639 13.7034 402.071 13.4626 402.449C13.2218 402.827 12.875 403.136 12.4596 403.343C11.9894 403.574 11.5333 403.83 11.0934 404.108C10.6908 404.356 10.2228 404.496 9.7407 404.512C9.25865 404.527 8.78128 404.419 8.36107 404.198L5.46475 402.628L0 411.445L2.89632 413.001C3.3072 413.228 3.64242 413.557 3.86442 413.951C4.08642 414.345 4.18642 414.79 4.15321 415.234C4.15321 415.489 4.15321 415.732 4.15321 415.987C4.15321 416.242 4.15321 416.485 4.15321 416.74C4.18587 417.186 4.08575 417.632 3.86392 418.028C3.6421 418.425 3.30722 418.756 2.89632 418.985L0.0136622 420.529ZM10.383 415.949C10.383 414.3 10.9066 412.689 11.8875 411.319C12.8684 409.948 14.2625 408.88 15.8934 408.25C17.5243 407.62 19.3188 407.456 21.0497 407.778C22.7806 408.101 24.3702 408.895 25.6173 410.062C26.8644 411.228 27.713 412.714 28.0557 414.331C28.3984 415.948 28.2197 417.624 27.5424 419.146C26.8651 420.668 25.7195 421.969 24.2506 422.883C22.7818 423.797 21.0556 424.283 19.2906 424.28C18.1197 424.281 16.9602 424.065 15.8786 423.646C14.797 423.227 13.8145 422.613 12.9871 421.839C12.1598 421.066 11.504 420.147 11.0571 419.136C10.6103 418.125 10.3812 417.042 10.383 415.949Z" fill="#EBEBEB"/>
<path d="M63.9658 0H62.5996V106.884H63.9658V0Z" fill="#C7C7C7"/>
<path d="M103.022 142.66L99.825 149.218H26.734L23.5371 142.66L54.6589 122.539H71.9001L103.022 142.66Z" fill="#EBEBEB"/>
<path d="M74.0604 103.158L71.9018 122.539H54.6605L52.502 103.158H74.0604Z" fill="#DBDBDB"/>
<path d="M103.022 142.66L99.825 149.218H26.7203L23.5371 142.66H103.022Z" fill="#DBDBDB"/>
<path d="M160.075 0H158.709V85.7161H160.075V0Z" fill="#C7C7C7"/>
<path d="M199.135 121.48L195.938 128.051H122.834L119.65 121.48L150.772 101.371H168.013L199.135 121.48Z" fill="#EBEBEB"/>
<path d="M170.174 81.9922L168.015 101.373H150.774L148.615 81.9922H170.174Z" fill="#DBDBDB"/>
<path d="M199.121 121.492L195.925 128.05H122.834L119.65 121.492H199.121Z" fill="#DBDBDB"/>
<path d="M454.489 349.18H399.855V398.213H454.489V349.18Z" fill="#EBEBEB"/>
<path d="M475.254 349.18H454.488V398.213H475.254V349.18Z" fill="#C7C7C7"/>
<path d="M399.855 373.703H454.489L411.823 374.966L399.855 373.703Z" fill="#C7C7C7"/>
<path d="M454.489 392.293H399.855L442.522 393.556L454.489 392.293Z" fill="#C7C7C7"/>
<path d="M399.855 360H434.461L403.694 361.033L399.855 360Z" fill="#C7C7C7"/>
<path d="M454.49 385.084H419.885L450.651 386.105L454.49 385.084Z" fill="#C7C7C7"/>
<path d="M412.957 354.539H452.003L445.486 355.164L412.957 354.539Z" fill="#C7C7C7"/>
<path d="M405.168 378.959H444.2L437.697 379.571L405.168 378.959Z" fill="#C7C7C7"/>
<path d="M429.174 364.67H454.489L459.011 366.316L429.174 364.67Z" fill="#EBEBEB"/>
<path d="M392.873 364.67H418.202L422.724 366.316L392.873 364.67Z" fill="#EBEBEB"/>
<path d="M425.375 386.705H400.046L395.523 388.351L425.375 386.705Z" fill="#EBEBEB"/>
<path d="M454.488 381.104H474.817L479.353 382.762L454.488 381.104Z" fill="#C7C7C7"/>
<path d="M461.592 373.704H477.358L475.254 372.352L461.592 373.704Z" fill="#C7C7C7"/>
<path d="M373.158 493.92H534.628L539.82 398.227H367.967L373.158 493.92Z" fill="#EBEBEB"/>
<path d="M522.84 442.08H380.538L378.57 408.766H525.135L522.84 442.08ZM381.836 440.804H521.556L523.673 410.042H380.018L381.836 440.804Z" fill="#DBDBDB"/>
<path d="M520.913 480.307H384.622L383.023 450.221H522.921L520.913 480.307ZM385.92 479.031H519.628L521.473 451.497H384.458L385.92 479.031Z" fill="#DBDBDB"/>
<path d="M468.057 429.078H437.851L436.73 420.963H469.205L468.057 429.078ZM439.026 427.802H466.869L467.634 422.239H438.261L439.026 427.802Z" fill="#DBDBDB"/>
<path d="M468.057 469.309H437.851L436.73 461.207H469.205L468.057 469.309ZM439.026 468.033H466.869L467.634 462.483H438.261L439.026 468.033Z" fill="#DBDBDB"/>
<path d="M395.553 493.92L393.981 504.344L390.826 525.282H384.664V493.92H395.553Z" fill="#EBEBEB"/>
<path d="M395.553 493.92L393.981 504.344H384.664V493.92H395.553Z" fill="#DBDBDB"/>
<path d="M512.236 493.92L513.794 504.344L516.95 525.282H523.125V493.92H512.236Z" fill="#EBEBEB"/>
<path d="M512.236 493.92L513.794 504.344H523.125V493.92H512.236Z" fill="#DBDBDB"/>
<path d="M300.018 600C453.186 600 577.354 586.821 577.354 570.564C577.354 554.308 453.186 541.129 300.018 541.129C146.849 541.129 22.6816 554.308 22.6816 570.564C22.6816 586.821 146.849 600 300.018 600Z" fill="#EBEBEB"/>
<path d="M8.29297 526.29L81.22 525.984L154.147 525.869L300.015 525.652L445.883 525.869L518.81 525.971L591.737 526.29L518.81 526.597L445.883 526.711L300.015 526.928L154.147 526.711L81.22 526.597L8.29297 526.29Z" fill="#263238"/>
<path d="M169.722 393.417C168.682 400.148 169.054 407.004 170.815 413.602C171.648 416.661 172.754 419.648 174.121 422.534C175.843 426.221 177.646 429.832 177.209 433.864C176.799 434.132 178.22 434.094 178.275 433.698C189.833 427.548 204.669 426.425 213.563 416.371C217.771 411.612 219.902 405.577 220.913 399.542C222.006 392.971 222.279 385.698 220.49 379.216C218.96 373.743 215.531 368.46 210.025 365.781C204.519 363.102 196.882 363.229 190.898 364.977C177.974 368.741 171.594 381.743 169.722 393.417Z" fill="#FFC727"/>
<path d="M163.794 473.366C165.36 468.449 166.95 463.541 168.562 458.642C171.731 449.047 175.037 439.503 178.685 430.036C180.871 424.388 183.18 418.782 185.612 413.219C185.345 409.721 184.889 406.238 184.246 402.782C183.289 398.597 181.882 394.553 180.571 390.457C180.489 390.202 180.926 390.074 181.035 390.317C183.631 395.956 187.019 403.178 187.115 409.864C189.929 403.586 192.957 397.394 196.2 391.286C196.566 386.124 196.392 380.94 195.681 375.809C195.681 375.58 196.036 375.503 196.077 375.809C197.064 380.298 197.445 384.885 197.211 389.462C199.697 384.881 202.307 380.352 205.094 375.899C205.353 375.49 205.941 375.899 205.722 376.307C201.378 384.116 197.347 392.09 193.563 400.179C198.888 395.868 205.04 392.539 211.692 390.368C211.979 390.278 212.198 390.661 211.911 390.776C204.649 393.69 198.005 397.796 192.292 402.897C189.56 408.851 186.973 414.806 184.532 420.76C191.76 414.138 201.664 409.787 211.241 407.452C211.569 407.363 211.651 407.835 211.337 407.924C200.257 411.037 191.65 416.856 183.221 423.95C182.237 426.382 181.276 428.819 180.338 431.261C176.759 440.511 173.384 449.838 170.133 459.191C168.575 463.682 167.045 468.173 165.542 472.664C163.93 477.513 162.66 482.629 160.556 487.299C160.351 487.746 159.504 487.643 159.613 487.108C160.751 482.462 162.146 477.876 163.794 473.366Z" fill="#263238"/>
<path d="M182.961 383.974C185.02 386.915 186.436 390.206 187.128 393.658C187.128 393.679 187.12 393.698 187.104 393.712C187.089 393.727 187.068 393.735 187.046 393.735C187.025 393.735 187.004 393.727 186.988 393.712C186.973 393.698 186.964 393.679 186.964 393.658C185.676 390.405 184.17 387.23 182.456 384.153C182.278 383.885 182.77 383.693 182.961 383.974Z" fill="#263238"/>
<path d="M203.59 406.471C206.801 404.802 210.31 403.691 213.945 403.191C214.041 403.191 214.096 403.306 213.945 403.345C212.279 403.995 210.516 404.442 208.836 405.054C207.155 405.667 205.489 406.33 203.767 406.955C203.71 406.95 203.655 406.93 203.609 406.897C203.563 406.863 203.529 406.818 203.51 406.767C203.492 406.715 203.489 406.66 203.503 406.608C203.517 406.555 203.547 406.507 203.59 406.471Z" fill="#263238"/>
<path d="M209.41 379.407C210.449 378.662 211.566 378.017 212.743 377.48C212.781 377.468 212.821 377.467 212.859 377.479C212.897 377.491 212.929 377.514 212.951 377.545C212.973 377.575 212.983 377.612 212.98 377.649C212.977 377.686 212.961 377.721 212.934 377.748C211.912 378.514 210.809 379.181 209.642 379.739C209.437 379.866 209.191 379.535 209.41 379.407Z" fill="#263238"/>
<path d="M130.744 430.1C139.064 432.409 147.439 434.54 155.773 436.824C156.483 437.028 170.569 411.829 165.487 398.852C163.059 392.97 159.259 387.667 154.363 383.328C149.466 378.989 143.596 375.723 137.179 373.768C131.236 371.88 123.913 370.297 117.643 371.599C112.055 372.747 108.079 377.022 106.29 381.921C103.817 388.594 104.65 396.543 105.989 403.344C107.062 409.737 109.886 415.762 114.186 420.836C118.613 425.749 124.255 428.301 130.744 430.1Z" fill="#FFC727"/>
<path d="M118.667 406.15C123.952 408.556 129.434 410.565 135.061 412.16C138.811 413.092 142.468 414.326 145.99 415.847C142.479 408.523 138.613 401.353 134.514 394.246C129.145 392.791 123.489 390.52 119.486 386.973C119.452 386.941 119.429 386.9 119.42 386.856C119.412 386.811 119.419 386.765 119.44 386.724C119.461 386.683 119.495 386.65 119.538 386.628C119.581 386.606 119.629 386.598 119.678 386.603C124.118 389.538 129.009 391.286 133.913 393.276C132.811 391.362 131.691 389.453 130.553 387.547C130.238 387.011 131.017 386.488 131.4 386.999C135.774 392.939 139.726 399.14 143.231 405.563C144.121 399.935 144.405 394.237 144.078 388.555C144.078 388.525 144.091 388.496 144.114 388.474C144.137 388.453 144.168 388.441 144.201 388.441C144.233 388.441 144.265 388.453 144.288 388.474C144.311 388.496 144.324 388.525 144.324 388.555C145.369 394.749 145.3 401.062 144.119 407.235C147.042 412.683 149.706 418.259 152.097 423.911C153.04 420.517 154.283 417.174 155.103 413.704C156.363 408.808 156.765 403.753 156.292 398.737C156.292 398.707 156.304 398.677 156.327 398.656C156.351 398.634 156.382 398.622 156.414 398.622C156.447 398.622 156.478 398.634 156.501 398.656C156.524 398.677 156.537 398.707 156.537 398.737C158.008 408.026 156.801 417.512 153.04 426.22C154.406 429.627 155.772 433.034 156.975 436.428C163.251 453.865 166.969 472.016 168.027 490.386C168.011 490.462 167.968 490.529 167.904 490.578C167.84 490.627 167.761 490.653 167.679 490.653C167.596 490.653 167.517 490.627 167.453 490.578C167.39 490.529 167.346 490.462 167.33 490.386C165.146 472.261 160.99 454.391 154.925 437.053C152.507 430.278 149.72 423.694 146.728 417.238C141.81 415.873 136.905 414.035 132.083 412.466C127.249 411.119 122.688 409.032 118.585 406.291C118.311 406.303 118.503 406.074 118.667 406.15Z" fill="#263238"/>
<path d="M110.908 398.84C116.004 400.524 120.826 402.898 125.936 404.607C126.182 404.697 126.045 405.041 125.799 405.003C120.416 403.957 115.075 402.451 110.771 399.108C110.553 398.981 110.73 398.776 110.908 398.84Z" fill="#263238"/>
<path d="M152.467 388.57C152.399 388.327 152.795 388.174 152.877 388.442C154.243 392.818 155.24 397.476 153.888 401.954C153.877 401.992 153.853 402.025 153.819 402.049C153.786 402.072 153.745 402.085 153.703 402.085C153.661 402.085 153.621 402.072 153.587 402.049C153.554 402.025 153.53 401.992 153.519 401.954C153.3 397.425 153.573 392.984 152.467 388.57Z" fill="#263238"/>
<path d="M131.442 378.451C133.07 380.625 133.852 383.256 133.655 385.903C133.655 386.069 133.368 386.171 133.313 385.966C132.699 383.415 131.66 381.169 130.841 378.745C130.811 378.672 130.811 378.591 130.841 378.518C130.87 378.445 130.928 378.385 131.002 378.349C131.076 378.313 131.161 378.303 131.243 378.322C131.324 378.341 131.395 378.387 131.442 378.451Z" fill="#263238"/>
<path d="M229.794 441.213C227.362 448.447 221.597 458.45 212.361 458.527C206.418 458.527 200.421 457.927 194.451 457.838C188.057 457.748 181.65 457.761 175.324 458.118C174.805 458.118 176.089 440.256 191.445 431.516C195.762 429.079 201.008 428.3 205.899 427.318C211.491 426.079 217.231 425.522 222.977 425.659C226.501 425.787 229.439 426.488 230.696 429.857C231.953 433.225 230.969 437.768 229.794 441.213Z" fill="#FFC727"/>
<path d="M223.18 432.155C219.451 433.048 215.68 434.082 211.937 435.192C212.912 434.198 213.948 433.256 215.038 432.372C216.636 431.096 218.412 430.126 220.134 429.029C220.284 428.94 220.202 428.685 220.011 428.748C216.38 430.158 213.243 432.487 210.953 435.472C206.281 436.889 201.663 438.445 197.209 440.142C194.13 441.321 191.179 442.774 188.397 444.48C189.294 442.67 190.359 440.937 191.58 439.3C193.63 436.838 196.389 435.472 199.053 433.712C199.108 433.683 199.148 433.635 199.164 433.579C199.181 433.523 199.173 433.463 199.142 433.412C199.111 433.361 199.06 433.324 199 433.308C198.94 433.293 198.875 433.3 198.821 433.329C196.027 434.46 193.517 436.123 191.451 438.213C189.386 440.302 187.81 442.772 186.826 445.463C183.629 447.603 180.709 450.082 178.123 452.85C167.945 463.632 159.939 477.986 159.912 492.621C159.912 492.965 160.513 493.067 160.582 492.71C163.198 478.359 169.894 464.928 179.968 453.82C180.705 453.029 181.443 452.264 182.208 451.536C184.994 451.185 187.8 450.993 190.61 450.962C193.876 450.962 197.127 451.409 200.379 451.651C205.748 452.059 211.677 452.123 216.513 449.597C216.732 449.482 216.582 449.138 216.349 449.227C205.556 452.889 194.244 448.244 183.438 450.426C188.053 446.31 193.463 443.049 199.381 440.819L200.365 440.449C207.291 441.227 214.601 442.911 221.336 440.806C221.372 440.792 221.402 440.766 221.42 440.733C221.437 440.699 221.442 440.662 221.432 440.626C221.422 440.59 221.398 440.559 221.366 440.538C221.333 440.517 221.293 440.508 221.254 440.512C214.737 442.031 208.494 440.117 202.127 439.811C209.136 437.259 216.267 435.243 223.29 432.717C223.809 432.538 223.822 432.002 223.18 432.155Z" fill="#263238"/>
<path d="M226.24 438.522C222.895 438.925 219.53 439.164 216.158 439.236C216.089 439.236 216.062 439.351 216.158 439.364C219.548 439.947 223.04 439.737 226.322 438.751C226.472 438.713 226.404 438.496 226.24 438.522Z" fill="#263238"/>
<path d="M203.478 432.306C201.619 433.096 199.93 434.194 198.491 435.547C198.313 435.7 198.559 435.994 198.751 435.853C199.598 435.279 200.458 434.743 201.346 434.207C202.18 433.773 202.987 433.296 203.764 432.778C203.812 432.735 203.843 432.678 203.852 432.617C203.861 432.555 203.848 432.493 203.816 432.439C203.783 432.385 203.732 432.343 203.671 432.319C203.61 432.295 203.542 432.29 203.478 432.306Z" fill="#263238"/>
<path d="M149.23 455.605C149.353 455.848 148.984 456.077 148.834 455.822C148.807 455.859 148.773 455.89 148.733 455.914C148.693 455.938 148.648 455.955 148.602 455.962C142.418 457.344 136.149 458.366 129.83 459.025C124.748 459.446 118.901 459.714 114.447 456.958C108.422 453.219 104.46 443.241 107.712 436.913C111.564 429.385 123.177 433.468 129.011 436.147C137.977 440.228 145.131 447.112 149.23 455.605Z" fill="#FFC727"/>
<path d="M153.739 459.09C150.356 456.031 146.595 453.358 142.536 451.129C139.619 446.804 135.743 443.115 131.169 440.309C130.951 440.168 130.759 440.487 130.964 440.641C134.593 443.357 137.81 446.52 140.528 450.044C136.018 447.721 131.333 445.709 126.51 444.022C124.781 441.03 122.155 438.574 118.955 436.953C118.955 436.953 118.805 436.953 118.873 437.042C121.515 438.919 123.821 441.176 125.704 443.728C122.849 442.733 119.966 441.814 117.084 440.921C116.824 440.832 116.729 441.202 116.974 441.291C122.098 443.167 127.357 445.119 132.44 447.428C126.235 448.347 119.914 448.347 113.709 447.428C113.676 447.421 113.641 447.426 113.611 447.442C113.582 447.458 113.56 447.484 113.549 447.515C113.539 447.545 113.541 447.578 113.556 447.607C113.57 447.636 113.596 447.659 113.627 447.671C120.101 449.462 126.977 449.559 133.505 447.952C136.747 449.421 139.895 451.066 142.932 452.877C140.378 452.686 137.808 452.884 135.322 453.463C130.929 454.418 126.431 454.894 121.92 454.88C121.756 454.88 121.715 455.135 121.92 455.16C129.694 456.436 137.044 453.106 144.735 453.974C147.594 455.789 150.277 457.834 152.755 460.085C157.556 464.57 161.51 469.781 164.449 475.499C167.687 481.661 169.45 488.181 172.073 494.548C172.081 494.577 172.095 494.605 172.115 494.629C172.134 494.653 172.158 494.674 172.186 494.689C172.214 494.704 172.245 494.715 172.277 494.719C172.309 494.723 172.342 494.721 172.373 494.714C172.405 494.706 172.434 494.693 172.46 494.675C172.486 494.657 172.508 494.634 172.524 494.608C172.541 494.582 172.552 494.553 172.556 494.523C172.561 494.493 172.559 494.463 172.551 494.433C170.228 481.878 163.534 468.034 153.739 459.09Z" fill="#263238"/>
<path d="M130.309 441.876C129.796 441.023 129.126 440.263 128.328 439.63C127.676 438.966 126.898 438.421 126.033 438.022C126.018 438.02 126.002 438.022 125.988 438.028C125.974 438.034 125.962 438.044 125.953 438.056C125.945 438.068 125.94 438.082 125.939 438.096C125.939 438.11 125.943 438.125 125.951 438.137C126.593 438.813 127.481 439.311 128.164 439.962C128.847 440.612 129.435 441.365 130.131 442.003C130.14 442.014 130.152 442.023 130.164 442.03C130.177 442.037 130.191 442.041 130.206 442.043C130.22 442.045 130.235 442.044 130.249 442.04C130.264 442.037 130.277 442.031 130.289 442.022C130.3 442.014 130.31 442.003 130.317 441.992C130.325 441.98 130.329 441.966 130.331 441.953C130.333 441.939 130.332 441.925 130.328 441.912C130.325 441.899 130.318 441.886 130.309 441.876Z" fill="#263238"/>
<path d="M117.493 445.767C116.346 445.5 115.13 445.525 113.955 445.295C112.792 445.04 111.647 444.721 110.526 444.338C110.491 444.325 110.452 444.325 110.418 444.338C110.383 444.351 110.356 444.376 110.341 444.409C110.327 444.441 110.326 444.477 110.34 444.509C110.355 444.542 110.382 444.567 110.416 444.581C112.532 445.8 115.018 446.338 117.493 446.112C117.534 446.102 117.569 446.079 117.595 446.048C117.62 446.017 117.634 445.979 117.634 445.94C117.634 445.901 117.62 445.863 117.595 445.831C117.569 445.8 117.534 445.778 117.493 445.767Z" fill="#263238"/>
<path d="M185.748 478.967L184.723 489.774L181.266 526.291H150.65L146.319 489.774L145.049 478.967H185.748Z" fill="#455A64"/>
<path d="M185.748 478.967L184.723 489.774H146.319L145.049 478.967H185.748Z" fill="#263238"/>
<path d="M188.78 476.008H142.016V484.786H188.78V476.008Z" fill="#455A64"/>
<path d="M202.062 555.94H192.895L257.105 315.672H279.934L202.062 555.94Z" fill="#455A64"/>
<path d="M257.104 315.686H279.933L262.146 370.563H242.445L257.104 315.686Z" fill="#263238"/>
<path d="M290.929 543.181H281.775L288.606 315.672H311.422L290.929 543.181Z" fill="#455A64"/>
<path d="M288.608 315.686H311.423L306.478 370.563H286.955L288.608 315.686Z" fill="#263238"/>
<path d="M380.211 555.94H389.378L338.829 315.672H316L380.211 555.94Z" fill="#455A64"/>
<path d="M350.373 370.563H330.659L316 315.686H338.829L350.373 370.563Z" fill="#263238"/>
<path d="M361.426 453.012H228.195V457.707H361.426V453.012Z" fill="#455A64"/>
<path d="M481.473 80.4453H118.545V330.55H481.473V80.4453Z" fill="#EBEBEB"/>
<path d="M494.779 70.4805H105.266V89.0195H494.779V70.4805Z" fill="#37474F"/>
<path d="M369.2 120.434H230.832V123.292H369.2V120.434Z" fill="#C7C7C7"/>
<path d="M345.537 126.404H254.494V129.262H345.537V126.404Z" fill="#C7C7C7"/>
<path d="M186.498 151.081L305.834 150.787C345.604 150.889 373.761 150.787 413.531 151.081C373.761 151.336 345.604 151.272 305.834 151.387L186.498 151.081Z" fill="#C7C7C7"/>
<path d="M186.498 160.178L305.834 159.885C345.604 159.987 373.761 159.885 413.531 160.178C373.761 160.433 345.604 160.37 305.834 160.472L186.498 160.178Z" fill="#C7C7C7"/>
<path d="M186.498 169.262L305.834 168.969C345.604 169.071 373.761 168.969 413.531 169.262C373.761 169.517 345.604 169.454 305.834 169.556L186.498 169.262Z" fill="#C7C7C7"/>
<path d="M186.498 178.359L305.834 178.053C345.604 178.168 373.761 178.053 413.531 178.359C373.761 178.614 345.604 178.55 305.834 178.652L186.498 178.359Z" fill="#C7C7C7"/>
<path d="M186.498 187.444L305.834 187.15C345.604 187.252 373.761 187.15 413.531 187.444C373.761 187.699 345.604 187.635 305.834 187.737L186.498 187.444Z" fill="#C7C7C7"/>
<path d="M186.498 196.489L305.834 196.195C345.604 196.297 373.761 196.195 413.531 196.489C373.761 196.744 345.604 196.68 305.834 196.795L186.498 196.489Z" fill="#C7C7C7"/>
<path d="M186.498 205.626L305.834 205.332C345.604 205.434 373.761 205.332 413.531 205.626C373.761 205.881 345.604 205.817 305.834 205.919L186.498 205.626Z" fill="#C7C7C7"/>
<path d="M186.498 214.709L305.834 214.416C345.604 214.518 373.761 214.416 413.531 214.709C373.761 214.965 345.604 214.901 305.834 215.003L186.498 214.709Z" fill="#C7C7C7"/>
<path d="M186.498 223.808L305.834 223.502C345.604 223.617 373.761 223.502 413.531 223.808C373.761 224.063 345.604 223.987 305.834 224.102L186.498 223.808Z" fill="#C7C7C7"/>
<path d="M186.498 232.891L305.834 232.598C345.604 232.7 373.761 232.598 413.531 232.891C373.761 233.146 345.604 233.082 305.834 233.185L186.498 232.891Z" fill="#C7C7C7"/>
<path d="M186.498 241.977L305.834 241.684C345.604 241.786 373.761 241.684 413.531 241.977C373.761 242.232 345.604 242.168 305.834 242.271L186.498 241.977Z" fill="#C7C7C7"/>
<path d="M186.498 251.075L305.834 250.781C345.604 250.883 373.761 250.781 413.531 251.075C373.761 251.33 345.604 251.266 305.834 251.368L186.498 251.075Z" fill="#C7C7C7"/>
<path d="M186.498 260.159L305.834 259.865C345.604 259.967 373.761 259.865 413.531 260.159C373.761 260.414 345.604 260.35 305.834 260.452L186.498 260.159Z" fill="#C7C7C7"/>
<path d="M186.498 269.217L305.834 268.924C345.604 269.026 373.761 268.924 413.531 269.217C373.761 269.485 345.604 269.409 305.834 269.524L186.498 269.217Z" fill="#C7C7C7"/>
<path d="M186.498 278.34L305.834 278.047C345.604 278.149 373.761 278.047 413.531 278.34C373.761 278.596 345.604 278.532 305.834 278.634L186.498 278.34Z" fill="#C7C7C7"/>
<path d="M229.834 255.207H211.732V288.929H229.834V255.207Z" fill="#FFC727"/>
<path d="M263.416 229.701H245.314V288.942H263.416V229.701Z" fill="#FFC727"/>
<path d="M296.983 224.051H278.881V288.931H296.983V224.051Z" fill="#FFC727"/>
<path d="M330.563 207.309H312.461V288.929H330.563V207.309Z" fill="#FFC727"/>
<path d="M364.131 171.648H346.029V288.931H364.131V171.648Z" fill="#FFC727"/>
<path d="M397.711 157.178H379.609V288.929H397.711V157.178Z" fill="#FFC727"/>
<path d="M192.972 144.699L193.464 180.757L193.805 216.814C194.037 240.852 194.106 264.891 194.147 288.929L192.972 287.831H251.021L309.07 287.959L367.12 288.316L413.57 288.967L367.12 289.618L309.07 289.988L251.021 290.115H192.972H191.783V289.018C191.783 264.98 191.892 240.942 192.125 216.903L192.466 180.846L192.972 144.699Z" fill="#C7C7C7"/>
<path d="M229.834 296.561H211.732V298.092H229.834V296.561Z" fill="#C7C7C7"/>
<path d="M263.416 296.561H245.314V298.092H263.416V296.561Z" fill="#C7C7C7"/>
<path d="M296.983 296.561H278.881V298.092H296.983V296.561Z" fill="#C7C7C7"/>
<path d="M330.563 296.561H312.461V298.092H330.563V296.561Z" fill="#C7C7C7"/>
<path d="M364.131 296.561H346.029V298.092H364.131V296.561Z" fill="#C7C7C7"/>
<path d="M397.711 296.561H379.609V298.092H397.711V296.561Z" fill="#C7C7C7"/>
<path d="M211.842 254.454L211.623 253.178C212.607 253.025 311.355 236.833 389.487 153.656L390.512 154.498C312.024 238.045 212.839 254.301 211.842 254.454Z" fill="#263238"/>
<path d="M391.863 156.797L393.202 150.57L386.754 152.599L391.863 156.797Z" fill="#263238"/>
<path d="M473.112 130.857H428.191V180.567H473.112V130.857Z" fill="white"/>
<path d="M452.263 134.238C452.266 134.539 452.172 134.835 451.995 135.086C451.817 135.338 451.564 135.535 451.266 135.651C450.968 135.768 450.64 135.799 450.324 135.741C450.007 135.682 449.716 135.538 449.488 135.324C449.26 135.111 449.105 134.84 449.042 134.544C448.98 134.248 449.013 133.942 449.138 133.664C449.263 133.386 449.473 133.149 449.743 132.983C450.012 132.817 450.328 132.73 450.651 132.732C451.079 132.732 451.489 132.891 451.791 133.173C452.093 133.456 452.263 133.839 452.263 134.238Z" fill="#455A64"/>
<path d="M436.73 140.81C441.28 140.491 445.816 140.466 450.392 140.415C454.969 140.364 459.477 140.415 464.054 140.81C459.518 141.142 454.969 141.168 450.392 141.206C445.816 141.244 441.28 141.142 436.73 140.81Z" fill="#EBEBEB"/>
<path d="M436.73 144.737C441.655 144.21 446.629 144.21 451.554 144.737C446.629 145.265 441.655 145.265 436.73 144.737Z" fill="#EBEBEB"/>
<path d="M436.73 148.668C439.886 148.362 443.042 148.285 446.198 148.273C449.354 148.26 452.51 148.362 455.666 148.668C452.51 148.974 449.354 149.051 446.198 149.064C443.042 149.076 439.886 148.974 436.73 148.668Z" fill="#EBEBEB"/>
<path d="M436.73 152.598C440.679 152.292 444.627 152.215 448.575 152.202C452.524 152.189 456.472 152.292 460.42 152.598C456.472 152.904 452.524 152.981 448.575 152.993C444.627 153.006 440.733 152.904 436.73 152.598Z" fill="#EBEBEB"/>
<path d="M436.73 156.528C440.16 156.221 443.561 156.145 447.018 156.132C450.474 156.119 453.849 156.209 457.305 156.528C453.876 156.834 450.474 156.91 447.018 156.923C443.561 156.936 440.16 156.834 436.73 156.528Z" fill="#EBEBEB"/>
<path d="M436.73 160.458C441.13 160.126 445.515 160.101 449.9 160.062C454.286 160.024 458.685 160.062 463.071 160.458C458.685 160.777 454.286 160.802 449.9 160.841C445.515 160.879 441.13 160.764 436.73 160.458Z" fill="#EBEBEB"/>
<path d="M436.73 164.375C442.387 163.865 448.083 163.865 453.739 164.375C448.084 164.902 442.386 164.902 436.73 164.375Z" fill="#EBEBEB"/>
<path d="M436.73 168.305C441.28 167.986 445.816 167.96 450.392 167.909C454.969 167.858 459.477 167.986 464.054 168.305C459.518 168.637 454.969 168.662 450.392 168.7C445.816 168.739 441.28 168.637 436.73 168.305Z" fill="#EBEBEB"/>
<path d="M436.73 172.248C441.28 171.929 445.816 171.903 450.392 171.852C454.969 171.801 459.477 171.852 464.054 172.248C459.518 172.58 454.969 172.605 450.392 172.643C445.816 172.682 441.28 172.567 436.73 172.248Z" fill="#EBEBEB"/>
<path d="M182.988 186.984H129.844V245.804H182.988V186.984Z" fill="white"/>
<path d="M158.029 194.922C158.029 195.219 157.934 195.51 157.757 195.758C157.58 196.006 157.328 196.199 157.034 196.313C156.739 196.427 156.415 196.456 156.102 196.398C155.79 196.34 155.502 196.197 155.277 195.986C155.051 195.776 154.898 195.507 154.836 195.215C154.773 194.923 154.805 194.621 154.927 194.345C155.049 194.07 155.256 193.835 155.521 193.67C155.786 193.504 156.098 193.416 156.417 193.416C156.629 193.416 156.838 193.455 157.034 193.531C157.229 193.606 157.407 193.717 157.557 193.857C157.706 193.997 157.825 194.163 157.906 194.345C157.987 194.528 158.029 194.724 158.029 194.922Z" fill="#455A64"/>
<path d="M137.277 201.657C141.187 201.13 145.158 201.13 149.068 201.657C145.158 202.185 141.187 202.185 137.277 201.657Z" fill="#EBEBEB"/>
<path d="M137.277 206.084C142.354 205.574 147.475 205.574 152.551 206.084C147.476 206.611 142.353 206.611 137.277 206.084Z" fill="#EBEBEB"/>
<path d="M137.277 210.526C141.974 209.999 146.721 209.999 151.417 210.526C146.721 211.054 141.974 211.054 137.277 210.526Z" fill="#EBEBEB"/>
<path d="M137.277 214.964C139.624 214.686 141.988 214.554 144.354 214.569C146.716 214.548 149.076 214.68 151.417 214.964C146.721 215.491 141.974 215.491 137.277 214.964Z" fill="#EBEBEB"/>
<path d="M137.277 219.456C141.356 218.929 145.494 218.929 149.573 219.456C145.494 219.983 141.356 219.983 137.277 219.456Z" fill="#EBEBEB"/>
<path d="M137.277 223.833C142.504 223.306 147.776 223.306 153.002 223.833C150.394 224.111 147.771 224.243 145.147 224.229C142.518 224.237 139.89 224.105 137.277 223.833Z" fill="#EBEBEB"/>
<path d="M137.277 228.26C139.428 227.989 141.596 227.857 143.767 227.864C145.937 227.85 148.106 227.982 150.256 228.26C148.107 228.544 145.937 228.677 143.767 228.655C141.596 228.67 139.427 228.538 137.277 228.26Z" fill="#EBEBEB"/>
<path d="M137.277 232.7C142.686 232.173 148.14 232.173 153.549 232.7C148.14 233.228 142.686 233.228 137.277 232.7Z" fill="#EBEBEB"/>
<path d="M137.277 237.127C142.687 236.617 148.139 236.617 153.549 237.127C148.14 237.654 142.686 237.654 137.277 237.127Z" fill="#EBEBEB"/>
<path d="M160.498 201.657C165.633 201.13 170.815 201.13 175.95 201.657C170.815 202.185 165.633 202.185 160.498 201.657Z" fill="#EBEBEB"/>
<path d="M160.498 206.084C163.864 205.574 167.296 205.574 170.662 206.084C167.298 206.612 163.863 206.612 160.498 206.084Z" fill="#EBEBEB"/>
<path d="M160.498 210.526C165.327 209.999 170.205 209.999 175.034 210.526C170.205 211.054 165.327 211.054 160.498 210.526Z" fill="#EBEBEB"/>
<path d="M160.498 214.964C162.845 214.686 165.209 214.554 167.575 214.569C169.936 214.548 172.296 214.68 174.638 214.964C169.942 215.491 165.194 215.491 160.498 214.964Z" fill="#EBEBEB"/>
<path d="M160.498 219.456C165.633 218.929 170.815 218.929 175.95 219.456C170.815 219.984 165.633 219.984 160.498 219.456Z" fill="#EBEBEB"/>
<path d="M160.498 223.833C164.577 223.306 168.715 223.306 172.794 223.833C170.758 224.111 168.703 224.243 166.646 224.229C164.589 224.237 162.534 224.104 160.498 223.833Z" fill="#EBEBEB"/>
<path d="M160.498 228.26C162.91 227.989 165.337 227.857 167.766 227.864C170.195 227.85 172.623 227.982 175.034 228.26C172.624 228.545 170.196 228.677 167.766 228.655C165.337 228.67 162.909 228.538 160.498 228.26Z" fill="#EBEBEB"/>
<path d="M160.498 232.7C164.225 232.173 168.015 232.173 171.742 232.7C168.015 233.227 164.225 233.227 160.498 232.7Z" fill="#EBEBEB"/>
<path d="M160.498 237.127C164.075 236.617 167.714 236.617 171.291 237.127C167.715 237.654 164.074 237.654 160.498 237.127Z" fill="#EBEBEB"/>
<path d="M436.73 108.848H409.707V134.085H436.73V108.848Z" fill="#FFC727"/>
<path d="M424.83 111.412C424.83 111.71 424.735 112.001 424.558 112.248C424.381 112.496 424.129 112.689 423.834 112.803C423.54 112.917 423.216 112.947 422.903 112.888C422.59 112.83 422.303 112.687 422.078 112.476C421.852 112.266 421.699 111.998 421.636 111.706C421.574 111.414 421.606 111.111 421.728 110.836C421.85 110.561 422.057 110.325 422.322 110.16C422.587 109.995 422.899 109.906 423.218 109.906C423.645 109.906 424.055 110.065 424.357 110.347C424.66 110.63 424.83 111.013 424.83 111.412Z" fill="#455A64"/>
<path d="M436.224 568.027C438.956 568.844 515.9 567.912 518.81 566.139C519.93 565.475 520.435 555 520.654 542.318V541.909C520.654 539.357 520.75 536.614 520.75 533.884C520.75 533.501 520.75 533.131 520.75 532.761C520.859 514.452 520.558 495.453 520.558 495.453L469.053 495.938L470.61 532.94V534.407L470.925 542.062V542.853C470.925 542.853 441.634 555.511 438.655 557.782C435.677 560.053 433.518 567.223 436.224 568.027Z" fill="#EB9481"/>
<path d="M459.354 547.701C459.558 547.701 459.654 547.586 459.668 547.535L459.354 547.701Z" fill="#FFC727"/>
<path d="M436.224 568.027C438.957 568.844 515.9 567.912 518.81 566.139C519.808 565.552 520.313 557.207 520.573 546.451C506.474 549.194 451.799 559.529 450.31 555.153C449.722 553.443 454.408 550.47 457.346 548.773C449.272 552.371 440.323 556.493 438.752 557.705C435.801 559.976 433.519 567.223 436.224 568.027Z" fill="#455A64"/>
<path d="M484.572 567.912C501.896 567.529 517.525 566.917 518.809 566.139C519.806 565.552 520.312 557.207 520.571 546.451C518.577 546.834 515.749 547.383 512.374 548.008L484.572 567.912Z" fill="#263238"/>
<path d="M536.364 288.357C536.364 288.357 524.806 409.837 522.92 419.113C522.483 421.231 522.21 432.715 522.032 447.464C521.636 479.668 521.882 537.748 521.882 537.748H467.617C467.617 537.748 469.216 437.116 471.62 418.603C474.025 400.089 489.381 288.357 489.381 288.357H536.364Z" fill="#37474F"/>
<path d="M470.064 528.921C478.535 528.755 476.103 528.691 484.573 528.614C488.672 528.614 515.996 528.359 519.821 528.959C519.903 528.959 519.903 529.112 519.821 529.125C515.941 529.725 488.713 529.495 484.573 529.457C476.103 529.38 478.535 529.316 470.064 529.15C470.048 529.15 470.032 529.147 470.017 529.142C470.002 529.136 469.989 529.127 469.977 529.117C469.966 529.106 469.957 529.093 469.951 529.079C469.945 529.066 469.941 529.051 469.941 529.036C469.941 529.02 469.945 529.006 469.951 528.992C469.957 528.978 469.966 528.965 469.977 528.954C469.989 528.944 470.002 528.935 470.017 528.929C470.032 528.924 470.048 528.921 470.064 528.921Z" fill="#263238"/>
<path d="M511.57 471.401C511.625 464.043 511.684 456.69 511.748 449.341C511.748 442.221 511.748 435.101 512.158 427.982C512.882 413.589 516.01 399.427 518.237 385.188C520.464 370.948 522.336 356.645 524.002 342.329C525.888 326.278 527.554 310.189 529.317 294.125C529.317 294.023 529.522 294.023 529.508 294.125C526.953 322.821 524.043 351.542 519.849 380.02C518.784 387.114 517.627 394.195 516.379 401.264C515.108 408.409 513.852 415.567 513.25 422.802C512.649 430.036 512.554 436.977 512.485 444.084L512.239 466.119C512.076 482.438 511.912 507.548 511.734 523.867C511.734 523.931 511.707 523.993 511.658 524.038C511.609 524.084 511.543 524.109 511.474 524.109C511.406 524.109 511.34 524.084 511.291 524.038C511.242 523.993 511.215 523.931 511.215 523.867C511.338 509.296 511.447 485.947 511.57 471.401Z" fill="#263238"/>
<path d="M547.798 288.357C547.798 288.357 524.805 409.837 522.92 419.113C522.483 421.231 522.209 432.715 522.032 447.464L496.17 288.357H547.798Z" fill="#263238"/>
<path d="M499.233 572.313C501.965 572.951 578.704 566.929 581.477 564.964C582.529 564.237 582.243 553.748 581.477 541.079V540.683C581.341 538.067 581.163 535.375 580.972 532.658L580.89 531.535C579.619 513.264 577.871 494.342 577.871 494.342L526.529 498.233L530.888 534.98L531.051 536.434L531.94 544.09L532.035 544.868C532.035 544.868 503.769 559.439 500.968 561.902C498.167 564.364 496.487 571.688 499.233 572.313Z" fill="#EB9481"/>
<path d="M499.247 572.313C501.979 572.951 578.704 566.929 581.477 564.964C582.379 564.338 582.311 556.594 581.805 546.463C569.92 549.295 512.649 562.744 510.9 558.329C510.531 557.385 511.747 556.007 513.4 554.654C509.116 556.834 504.965 559.237 500.968 561.85C498.208 564.313 496.487 571.688 499.247 572.313Z" fill="#455A64"/>
<path d="M529.726 540.492L583.95 538.349C583.95 538.349 569.141 427.242 568.922 420.416C568.526 410.209 563.307 368.359 558.935 334.432C558.935 334.432 567.228 316.059 551.695 288.32H489.396C489.396 288.32 493.563 314.719 500.722 331.459C505.499 333.034 510.113 335.011 514.507 337.367C514.507 337.367 520.709 413.003 520.942 422.445C521.406 441.099 529.726 540.492 529.726 540.492Z" fill="#37474F"/>
<path d="M531.175 531.216C539.631 530.718 537.186 530.744 545.642 530.335C549.741 530.131 576.983 528.83 580.876 529.276C580.894 529.283 580.909 529.294 580.92 529.309C580.931 529.324 580.937 529.341 580.937 529.359C580.937 529.377 580.931 529.395 580.92 529.409C580.909 529.424 580.894 529.436 580.876 529.442C577.037 530.195 549.809 531.05 545.67 531.177C537.213 531.433 539.631 531.267 531.175 531.445C531.024 531.445 531.011 531.216 531.175 531.216Z" fill="#263238"/>
<path d="M498.302 330.311C503.909 332.226 509.33 334.587 514.505 337.366C514.54 337.39 514.565 337.425 514.576 337.464C514.588 337.503 514.584 337.545 514.567 337.582C514.549 337.619 514.519 337.649 514.48 337.668C514.442 337.687 514.398 337.693 514.355 337.685C508.89 335.491 503.33 333.385 497.961 330.923C497.918 330.902 497.879 330.873 497.848 330.839C497.817 330.804 497.793 330.764 497.779 330.721C497.764 330.677 497.759 330.632 497.763 330.587C497.767 330.541 497.781 330.497 497.804 330.457C497.826 330.417 497.857 330.381 497.894 330.352C497.931 330.323 497.974 330.301 498.02 330.287C498.067 330.274 498.115 330.269 498.164 330.273C498.212 330.277 498.259 330.29 498.302 330.311Z" fill="#263238"/>
<path d="M496.555 295.313C496.555 295.134 496.91 295.096 496.91 295.313C496.905 301.006 497.21 306.695 497.825 312.359C498.071 314.987 500.339 329.507 505.216 328.448C506.036 328.27 506.446 327.517 506.582 326.369C506.559 324.865 506.339 323.369 505.927 321.916C505.394 318.879 504.957 315.829 504.67 312.755C504.103 307.034 504.171 301.275 504.875 295.568C504.885 295.536 504.906 295.509 504.934 295.489C504.962 295.469 504.996 295.459 505.032 295.459C505.067 295.459 505.101 295.469 505.13 295.489C505.158 295.509 505.179 295.536 505.189 295.568C505.049 303.494 505.547 311.418 506.678 319.274C507.279 323.102 509.328 328.742 505.093 329.329C500.858 329.916 498.003 320.397 497.47 317.782C496.128 310.36 495.82 302.808 496.555 295.313Z" fill="#263238"/>
<path d="M505.092 328.805C505.524 329.786 505.889 330.792 506.185 331.816C506.496 332.608 506.649 333.447 506.636 334.291C506.636 334.457 506.39 334.47 506.308 334.368C505.801 333.623 505.419 332.809 505.174 331.956C504.792 331.025 504.409 330.093 504.068 329.162C504.017 329.035 504.022 328.895 504.083 328.771C504.143 328.648 504.253 328.552 504.389 328.505C504.525 328.458 504.675 328.463 504.807 328.519C504.939 328.575 505.042 328.678 505.092 328.805Z" fill="#263238"/>
<path d="M473.109 234.17C473.09 234.302 473.122 234.437 473.2 234.549C473.277 234.661 473.395 234.744 473.532 234.782L475.855 234.974C478.177 229.602 480.623 225.341 479.953 227.012C478.949 229.639 478.338 232.382 478.136 235.165L482.727 235.497C484.954 225.979 487.59 218.91 487.344 221.13C486.375 229.934 486.771 232.779 487.249 235.816C498.315 236.569 512.838 237.398 523.357 237.781C524.805 232.524 526.09 226.833 526.295 227.242C527.466 230.689 527.93 234.313 527.661 237.921C531.008 238.01 533.699 238.023 535.325 237.921C535.325 237.921 536.309 233.494 536.486 232.039C536.944 228.313 536.713 224.541 535.803 220.888C534.71 217.288 533.231 213.8 531.39 210.476C531.396 210.451 531.396 210.425 531.39 210.4C530.275 208.179 529.436 205.845 528.89 203.446C528.522 201.696 528.307 199.921 528.248 198.138C528.057 191.605 524.628 185.889 518.562 184.026C507.468 172.888 495.651 177.213 491.785 185.494C491.416 186.298 491.047 187.229 490.678 188.237C489.312 191.975 488.055 196.837 486.907 200.601C486.479 202.071 485.955 203.516 485.336 204.926C482.016 211.803 475.158 215.465 473.109 234.17Z" fill="#263238"/>
<path d="M521.105 185.851C523.055 186.847 524.696 188.298 525.867 190.062C527.037 191.826 527.699 193.844 527.785 195.918C527.851 198.669 528.273 201.403 529.042 204.059C530.103 206.651 531.557 209.087 533.359 211.293C536.179 214.692 537.841 218.804 538.127 223.095C538.474 228.084 537.782 233.089 536.092 237.832C537.542 232.822 537.955 227.599 537.308 222.445C536.652 217.264 533.865 213.947 531.05 209.953C528.772 206.79 527.415 203.127 527.116 199.325C527.141 196.951 526.838 194.584 526.214 192.282C525.096 189.847 523.227 187.777 520.845 186.336C520.504 186.119 520.804 185.686 521.105 185.851Z" fill="#263238"/>
<path d="M478.179 212.147C481.185 208.511 484.272 205.436 486.144 200.881C487.838 196.734 488.876 192.345 490.625 188.198C490.625 188.134 490.762 188.198 490.734 188.198C488.002 195.56 487.237 203.024 482.168 209.149C479.436 212.479 476.704 215.528 474.791 219.586C472.855 223.817 471.74 228.336 471.498 232.932C471.498 233.085 471.28 233.072 471.266 232.932C470.89 225.461 473.337 218.104 478.179 212.147Z" fill="#263238"/>
<path d="M509.273 239.108C497.605 264.371 480.31 290.144 471.197 294.419C464.803 297.443 452.152 297.251 447.972 290.349C438.941 275.293 435.772 251.165 437.985 238.687C438.777 234.247 463.943 232.409 465.883 236.875C470.377 247.325 471.826 258.157 473.246 258.157C474.462 258.157 481.061 249.723 495.911 234.974C511.431 219.586 513.358 230.266 509.273 239.108Z" fill="#EB9481"/>
<path d="M437.697 242.68C437.697 242.68 438.134 229.525 443.162 220.759C446.632 214.699 455.745 202.31 477.672 201.429C482.877 201.225 490.446 204.377 482.085 207.592C476.142 209.889 471.633 209.659 468.423 211.573C468.423 211.573 477.549 216.677 477.563 221.525C477.573 225.793 477.263 230.057 476.634 234.284C475.778 234.333 474.921 234.333 474.065 234.284C474.065 234.284 473.929 238.852 468.477 243.586L437.697 242.68Z" fill="#EB9481"/>
<path d="M447.439 215.479C451.046 214.203 458.724 211.651 465.801 211.536C473.67 211.447 488.835 213.272 488.835 218.694C488.835 222.662 482.988 222.445 482.988 222.445C482.988 222.445 489.081 224.436 488.247 228.021C487.482 231.3 482.96 230.879 482.96 230.879C482.96 230.879 486.444 232.678 485.051 235.689C483.398 239.326 476.375 234.962 471.279 237.272C470.145 237.795 447.439 215.479 447.439 215.479Z" fill="#EB9481"/>
<path d="M464.517 219.305C470.832 218.537 477.247 219.588 482.906 222.316C483.042 222.393 483.056 222.521 482.906 222.482C476.929 220.753 470.749 219.708 464.503 219.369C464.503 219.369 464.476 219.318 464.517 219.305Z" fill="#263238"/>
<path d="M464.832 226.719C471.166 226.504 477.444 227.893 483.002 230.738C483.139 230.815 483.139 230.955 483.002 230.917C477.134 228.896 471.038 227.509 464.832 226.783V226.719Z" fill="#263238"/>
<path d="M480.719 288.741L472.836 255.465C480.791 247.246 489.229 239.447 498.11 232.103C510.925 221.755 517.032 222.865 509.354 241.289C501.676 259.713 490.364 281.047 480.719 288.741Z" fill="#FFC727"/>
<path d="M480.719 288.741L472.836 255.465C480.791 247.246 489.229 239.447 498.11 232.103C510.925 221.755 517.032 222.865 509.354 241.289C501.676 259.713 490.364 281.047 480.719 288.741Z" fill="#FFC727"/>
<path d="M477.292 254.75C478.658 259.292 479.842 263.868 480.844 268.479C481.354 270.801 481.832 273.132 482.279 275.471C482.729 277.844 483.003 280.243 483.385 282.629C483.385 282.756 483.221 282.769 483.194 282.629C482.279 277.959 481.172 273.314 480.161 268.67C479.15 264.026 478.125 259.394 477.128 254.763C477.101 254.699 477.265 254.661 477.292 254.75Z" fill="#263238"/>
<path d="M506.692 247.428C506.419 248.028 506.146 248.614 505.9 249.214C505.893 249.082 505.893 248.95 505.9 248.819C506.022 248.029 506.251 247.257 506.583 246.522C506.653 246.82 506.69 247.123 506.692 247.428ZM484.738 246.764C484.615 247.547 484.615 248.342 484.738 249.125C485.393 247.658 485.633 246.059 485.435 244.48C485.084 245.206 484.849 245.975 484.738 246.764ZM491.91 270.586C491.787 271.373 491.787 272.172 491.91 272.959C492.262 272.235 492.493 271.465 492.593 270.675C492.717 269.888 492.717 269.089 492.593 268.302C492.249 269.028 492.019 269.798 491.91 270.586ZM483.44 260.276C482.597 260.161 481.741 260.161 480.899 260.276C481.674 260.605 482.499 260.82 483.344 260.914C484.187 261.029 485.043 261.029 485.885 260.914C485.107 260.597 484.283 260.386 483.44 260.289V260.276ZM509.493 229.131C508.651 229.016 507.795 229.016 506.952 229.131C507.727 229.46 508.552 229.675 509.397 229.769C510.24 229.884 511.096 229.884 511.939 229.769C511.161 229.447 510.337 229.232 509.493 229.131ZM500.23 260.57C500.23 260.57 500.23 260.672 500.23 260.71C500.242 260.664 500.242 260.616 500.23 260.57ZM479.997 274.528C480.496 275.169 481.095 275.737 481.773 276.212C481.461 275.475 481.038 274.784 480.516 274.158C480.018 273.514 479.419 272.942 478.74 272.461C479.056 273.201 479.478 273.897 479.997 274.528ZM494.123 253.807C494.811 253.338 495.422 252.78 495.941 252.149C494.362 252.746 492.977 253.718 491.924 254.968C492.713 254.681 493.453 254.29 494.123 253.807ZM497.99 239.453C498.492 240.095 499.09 240.666 499.766 241.15C499.458 240.414 499.04 239.722 498.523 239.096C498.015 238.454 497.413 237.883 496.733 237.399C497.045 238.136 497.469 238.828 497.99 239.453Z" fill="white"/>
<path d="M509.328 241.29C501.65 259.701 490.366 281.047 480.72 288.741L477.469 275.038L512.088 226.553C513.399 228.53 512.675 233.264 509.328 241.29Z" fill="#263238"/>
<path d="M487.18 296.843C487.18 296.843 511.771 302.291 558.468 298.527C558.468 298.527 540.215 244.147 525.529 229.487C518.835 222.814 512.304 223.835 506.771 228.122C505.405 229.194 488.246 249.506 486.797 256.575C485.513 262.827 490.964 269.78 490.964 269.78L487.18 296.843Z" fill="#FFC727"/>
<path d="M506.609 246.522C506.733 247.309 506.733 248.108 506.609 248.895C506.509 249.685 506.278 250.455 505.926 251.179C505.803 250.392 505.803 249.593 505.926 248.806C506.037 248.018 506.267 247.249 506.609 246.522ZM504.82 287.823C504.697 288.61 504.697 289.41 504.82 290.197C505.172 289.473 505.402 288.702 505.503 287.913C505.626 287.13 505.626 286.335 505.503 285.552C505.158 286.274 504.928 287.039 504.82 287.823ZM492.729 294.866C492.606 295.653 492.606 296.453 492.729 297.24C493.398 295.776 493.643 294.175 493.439 292.595C493.092 293.318 492.853 294.083 492.729 294.866ZM531.898 262.65C531.774 263.436 531.774 264.236 531.898 265.023C532.237 264.295 532.467 263.526 532.581 262.739C532.697 261.951 532.697 261.153 532.581 260.366C532.245 261.095 532.016 261.863 531.898 262.65ZM491.909 270.586C491.786 271.373 491.786 272.172 491.909 272.959C492.261 272.235 492.492 271.465 492.592 270.675C492.716 269.888 492.716 269.089 492.592 268.302C492.248 269.028 492.018 269.798 491.909 270.586ZM518.987 253.31C518.149 253.195 517.298 253.195 516.46 253.31C518.026 253.937 519.741 254.166 521.433 253.973C520.654 253.647 519.831 253.424 518.987 253.31ZM533.51 276.34C532.667 276.225 531.811 276.225 530.969 276.34C531.744 276.669 532.569 276.884 533.414 276.978C534.257 277.093 535.113 277.093 535.955 276.978C535.177 276.656 534.354 276.441 533.51 276.34ZM509.328 274.439C508.486 274.324 507.63 274.324 506.787 274.439C507.567 274.756 508.39 274.971 509.233 275.077C510.076 275.186 510.931 275.186 511.774 275.077C510.994 274.76 510.171 274.545 509.328 274.439ZM553.196 295.594C552.354 295.479 551.498 295.479 550.655 295.594C551.435 295.911 552.258 296.126 553.101 296.232C553.944 296.34 554.799 296.34 555.642 296.232C554.862 295.916 554.039 295.701 553.196 295.594ZM509.478 229.131C508.636 229.016 507.78 229.016 506.937 229.131C507.713 229.46 508.537 229.675 509.383 229.769C510.225 229.884 511.081 229.884 511.924 229.769C511.15 229.449 510.331 229.234 509.492 229.131H509.478ZM521.337 236.047C521.843 236.685 522.441 237.256 523.113 237.744C522.808 237.002 522.39 236.305 521.87 235.677C521.367 235.035 520.769 234.464 520.094 233.98C520.404 234.719 520.823 235.414 521.337 236.047ZM543.333 265.393C543.832 266.033 544.43 266.601 545.109 267.077C544.796 266.34 544.373 265.648 543.852 265.023C543.353 264.378 542.754 263.806 542.076 263.326C542.408 264.068 542.849 264.764 543.387 265.393H543.333ZM501.418 262.65C501.924 263.288 502.522 263.859 503.194 264.346C502.887 263.603 502.463 262.906 501.937 262.279C501.44 261.638 500.846 261.067 500.175 260.583C500.5 261.322 500.937 262.013 501.473 262.637L501.418 262.65ZM522.43 284.531C522.924 285.172 523.518 285.74 524.192 286.216C523.89 285.477 523.471 284.784 522.949 284.161C522.446 283.52 521.848 282.948 521.173 282.464C521.488 283.204 521.911 283.9 522.43 284.531ZM497.647 238.981C497.77 239.134 497.88 239.287 498.003 239.428C498.496 240.076 499.09 240.652 499.765 241.138C499.458 240.394 499.034 239.698 498.508 239.071L498.016 238.496L497.647 238.981ZM494.122 253.795C494.81 253.325 495.421 252.767 495.94 252.136C494.361 252.734 492.977 253.706 491.923 254.956C492.711 254.672 493.451 254.286 494.122 253.807V253.795ZM547.404 281.086C548.091 280.617 548.703 280.059 549.221 279.428C547.638 280.031 546.25 281.007 545.191 282.26C545.998 281.976 546.757 281.585 547.445 281.099L547.404 281.086ZM492.92 281.941C493.614 281.484 494.227 280.929 494.737 280.295C493.159 280.893 491.774 281.865 490.721 283.115C491.524 282.844 492.28 282.461 492.961 281.98L492.92 281.941ZM530.545 247.951C531.235 247.485 531.848 246.926 532.362 246.292C531.57 246.579 530.829 246.975 530.163 247.466C529.476 247.931 528.864 248.485 528.346 249.112C529.148 248.832 529.902 248.445 530.586 247.964L530.545 247.951ZM515.08 296.691C515.77 296.225 516.383 295.666 516.897 295.032C515.314 295.636 513.926 296.612 512.867 297.865C513.674 297.58 514.433 297.189 515.121 296.704L515.08 296.691ZM519.684 266.72C520.37 266.258 520.977 265.703 521.487 265.074C519.917 265.692 518.547 266.681 517.512 267.945C518.309 267.643 519.054 267.235 519.725 266.732L519.684 266.72ZM537.171 290.796C537.861 290.33 538.474 289.771 538.988 289.138C537.41 289.735 536.025 290.707 534.972 291.957C535.774 291.677 536.528 291.29 537.212 290.809L537.171 290.796Z" fill="white"/>
<path d="M495.719 241.61C494.222 243.515 492.831 245.491 491.553 247.53C492.085 246.394 492.577 245.246 493.014 244.059C493.014 244.059 493.014 243.983 492.919 244.059C492.468 244.889 492.017 245.718 491.635 246.611C491.252 247.504 490.979 248.168 490.664 248.959C489.024 251.274 487.723 253.785 486.798 256.423C486.183 258.837 486.239 261.359 486.962 263.747C487.337 264.976 487.85 266.165 488.492 267.294C488.999 268.316 489.672 269.258 490.487 270.088C490.022 272.64 489.708 275.192 489.353 277.667C488.923 280.125 488.649 282.605 488.533 285.093C488.543 285.121 488.562 285.146 488.588 285.164C488.613 285.182 488.645 285.191 488.677 285.191C488.709 285.191 488.74 285.182 488.766 285.164C488.792 285.146 488.811 285.121 488.82 285.093C488.82 284.927 488.929 284.748 488.998 284.57C489.066 284.391 488.998 284.506 488.998 284.48C489.572 282.209 489.817 279.823 490.159 277.527C490.501 275.23 491.156 270.114 491.156 270.088C491.156 270.063 489.94 267.996 489.449 267.039C488.879 265.876 488.422 264.667 488.082 263.428C487.339 261.086 487.282 258.601 487.918 256.232C488.822 253.702 490.037 251.278 491.539 249.01C492.987 246.586 494.49 244.174 495.979 241.776C495.952 241.635 495.788 241.52 495.719 241.61Z" fill="#263238"/>
<path d="M519.464 227.74C519.191 228.914 513.289 236.595 507.538 236.404C505.666 236.34 505.598 226.783 505.598 226.783L505.42 226.082L502.934 216.219L515.229 208.652L517.019 207.645C517.019 207.645 517.497 210.375 518.071 213.794L518.153 214.279C518.153 214.471 518.235 214.649 518.262 214.841C518.358 215.351 518.44 215.861 518.522 216.385C518.604 216.908 518.645 217.163 518.699 217.584C518.754 218.005 518.809 218.413 518.877 218.86C519.287 221.804 519.483 224.771 519.464 227.74Z" fill="#EB9481"/>
<path d="M518.112 213.794C517.079 216.58 515.408 219.123 513.216 221.245C511.024 223.367 508.364 225.017 505.42 226.082L502.934 216.219L515.229 208.652L517.019 207.645C517.019 207.645 517.538 210.375 518.112 213.794Z" fill="#263238"/>
<path d="M487.265 197.972C481.801 215.006 492.156 219.969 496.091 221.053C499.657 222.036 511.952 224.983 519.234 208.562C526.516 192.141 519.753 184.409 511.707 181.768C503.66 179.127 492.648 180.939 487.265 197.972Z" fill="#EB9481"/>
<path d="M490.776 195.753C491.213 195.817 491.637 195.753 492.142 195.83C492.605 195.913 493.084 195.855 493.509 195.664C493.629 195.578 493.716 195.458 493.755 195.322C493.795 195.186 493.785 195.041 493.727 194.911C493.572 194.674 493.353 194.479 493.091 194.347C492.83 194.214 492.535 194.149 492.238 194.158C491.631 194.079 491.015 194.221 490.517 194.554C490.406 194.63 490.322 194.734 490.273 194.854C490.223 194.974 490.212 195.104 490.239 195.23C490.266 195.356 490.331 195.472 490.426 195.565C490.521 195.657 490.643 195.722 490.776 195.753Z" fill="#263238"/>
<path d="M503.371 198.928C502.968 198.761 502.576 198.573 502.196 198.366C501.756 198.22 501.382 197.942 501.13 197.575C501.071 197.447 501.06 197.304 501.1 197.169C501.14 197.035 501.227 196.917 501.349 196.835C501.606 196.695 501.898 196.621 502.196 196.621C502.493 196.621 502.786 196.695 503.043 196.835C503.608 197.065 504.061 197.483 504.313 198.009C504.38 198.134 504.403 198.274 504.381 198.412C504.358 198.549 504.291 198.677 504.188 198.778C504.084 198.878 503.951 198.946 503.804 198.973C503.658 199 503.507 198.984 503.371 198.928Z" fill="#263238"/>
<path d="M499.233 202.387C499.233 202.387 499.315 202.476 499.233 202.527C498.823 203.663 498.564 205.079 499.561 205.742C499.561 205.742 499.561 205.832 499.561 205.806C498.277 205.245 498.646 203.42 499.233 202.387Z" fill="#263238"/>
<path d="M500.72 201.494C502.769 201.903 501.731 205.692 499.832 205.322C497.933 204.952 499.012 201.137 500.72 201.494Z" fill="#263238"/>
<path d="M501.459 201.878C501.76 202.184 502.006 202.643 502.415 202.783C502.825 202.924 503.385 202.643 503.782 202.337C503.59 203.064 503.099 203.74 502.238 203.613C501.377 203.485 501.077 202.758 501.09 201.98C501.172 201.929 501.35 201.763 501.459 201.878Z" fill="#263238"/>
<path d="M492.321 200.473C492.321 200.473 492.211 200.473 492.198 200.549C491.925 201.736 491.405 203.101 490.162 203.178C491.597 203.382 492.266 201.595 492.321 200.473Z" fill="#263238"/>
<path d="M491.528 199.044C489.547 198.431 488.372 202.183 490.162 202.757C491.951 203.331 493.195 199.503 491.528 199.044Z" fill="#263238"/>
<path d="M490.611 199.043C490.228 199.158 489.805 199.426 489.422 199.349C489.04 199.272 488.78 198.762 488.616 198.303C488.616 198.303 488.616 198.303 488.534 198.303C488.364 198.616 488.319 198.975 488.407 199.316C488.495 199.657 488.709 199.958 489.012 200.166C489.641 200.472 490.378 199.987 490.734 199.323C490.816 199.183 490.761 198.953 490.611 199.043Z" fill="#263238"/>
<path d="M496.746 212.045C496.408 212.334 495.973 212.505 495.516 212.53C495.046 212.431 494.604 212.239 494.218 211.969C494.218 211.969 494.136 211.969 494.15 211.969C494.281 212.237 494.488 212.468 494.747 212.636C495.007 212.804 495.31 212.904 495.625 212.926C495.898 212.914 496.162 212.827 496.381 212.674C496.6 212.522 496.765 212.312 496.855 212.071C496.869 212.058 496.746 212.02 496.746 212.045Z" fill="#263238"/>
<path d="M492.441 208.919C492.728 209.722 493.237 210.439 493.917 210.999C494.3 211.304 494.78 211.483 495.283 211.509C496.362 211.586 496.649 210.744 496.772 209.965C496.827 209.542 496.827 209.113 496.772 208.689C495.394 209.203 493.873 209.284 492.441 208.919Z" fill="#263238"/>
<path d="M493.918 211C494.302 211.304 494.781 211.483 495.284 211.51C496.363 211.586 496.65 210.744 496.773 209.966C496.242 209.809 495.67 209.826 495.151 210.014C494.632 210.202 494.197 210.549 493.918 211Z" fill="#FF98B9"/>
<path d="M492.714 206.508C492.714 206.508 491.949 208.192 491.717 209.059C491.717 209.136 491.895 209.225 492.195 209.315C492.915 209.634 493.715 209.763 494.508 209.686C495.3 209.61 496.055 209.331 496.69 208.881C496.708 208.868 496.721 208.849 496.726 208.827C496.73 208.806 496.726 208.784 496.715 208.765C496.703 208.746 496.684 208.732 496.662 208.725C496.64 208.718 496.616 208.719 496.594 208.728C495.272 209.164 493.833 209.186 492.496 208.792C492.496 208.549 493.862 205.959 493.766 205.908C493.067 205.797 492.355 205.771 491.649 205.831C493.124 202.284 495.201 198.993 496.608 195.445C496.618 195.419 496.618 195.39 496.607 195.364C496.596 195.337 496.575 195.316 496.548 195.303C496.52 195.291 496.489 195.288 496.46 195.295C496.431 195.302 496.406 195.32 496.389 195.343C494.057 198.807 492.098 202.478 490.542 206.304C490.323 206.699 492.318 206.559 492.714 206.508Z" fill="#263238"/>
<path d="M517.374 208.741C514.369 208.192 515.421 202.246 515.421 202.246C515.421 202.246 509.437 200.702 509.86 192.167C509.314 194.617 509.547 197.162 510.53 199.49C510.53 199.49 500.297 195.663 498.316 186.297C498.316 186.297 498.835 190.954 500.051 192.881C497.6 191.427 495.754 189.235 494.819 186.667C494.819 186.667 491.553 190.942 489.736 191.873C489.736 191.873 495.324 174.763 511.869 181.053C511.869 181.053 522.375 184.511 523.85 193.43C525.326 202.348 517.374 208.741 517.374 208.741Z" fill="#263238"/>
<path d="M517.237 214.852C516.934 214.889 516.626 214.889 516.322 214.852C516.025 214.848 515.73 214.8 515.448 214.711C515.069 214.611 514.722 214.428 514.437 214.175C514.208 213.991 514.01 213.776 513.849 213.537C513.613 213.199 513.446 212.823 513.357 212.427L515.407 207.974C515.407 207.974 520.68 203.317 523.016 205.18C525.353 207.043 520.598 214.354 517.237 214.852Z" fill="#EB9481"/>
<path d="M517.239 214.074C517.171 214.226 517.057 214.355 516.911 214.446C516.765 214.537 516.593 214.585 516.417 214.584C516.242 214.584 516.07 214.535 515.924 214.444C515.779 214.352 515.665 214.223 515.598 214.071C515.531 213.919 515.514 213.752 515.549 213.592C515.583 213.431 515.668 213.283 515.793 213.167C515.917 213.052 516.076 212.973 516.248 212.941C516.42 212.91 516.599 212.926 516.761 212.99C516.978 213.074 517.151 213.236 517.24 213.439C517.33 213.643 517.33 213.871 517.239 214.074Z" fill="white"/>
<path d="M519.206 213.193C519.157 213.301 519.076 213.392 518.972 213.456C518.868 213.52 518.746 213.554 518.621 213.553C518.496 213.552 518.375 213.516 518.272 213.45C518.169 213.385 518.089 213.292 518.043 213.184C517.997 213.076 517.986 212.957 518.012 212.843C518.038 212.73 518.1 212.625 518.189 212.544C518.279 212.463 518.392 212.409 518.514 212.388C518.637 212.368 518.764 212.381 518.878 212.428C519.029 212.49 519.149 212.605 519.21 212.748C519.271 212.891 519.27 213.051 519.206 213.193Z" fill="white"/>
<path d="M529.398 233.201C541.584 248.588 564.837 285.028 557.036 293.054C544.207 306.247 513.318 317.411 503.754 319.848C499.656 320.894 485.707 292.556 489.655 290.349C494.382 287.695 527.444 278.253 527.362 275.625C527.362 274.132 523.865 261.59 521.023 245.603C517.717 227.012 523.591 225.839 529.398 233.201Z" fill="#EB9481"/>
<path d="M504.683 288.754C504.683 288.754 492.223 285.028 483.957 282.948C479.34 281.787 471.238 280.396 467.44 281.047C461.743 281.94 438.545 289.06 440.267 294.342C441.838 299.14 460.937 290.655 460.937 290.655C460.937 290.655 440.854 297.621 443.874 303.069C446.893 308.518 467.099 296.243 467.099 296.243C467.099 296.243 446.606 303.835 450.704 309.002C453.765 312.894 472.755 302.75 472.755 302.75C472.755 302.75 455.213 309.385 458.177 313.519C461.47 318.087 479.613 309.691 479.613 309.691C489.067 319.006 497.647 319.899 503.822 319.746C505.325 319.771 504.683 288.754 504.683 288.754Z" fill="#EB9481"/>
<path d="M467.712 287.834C465.321 288.574 462.903 289.301 460.581 290.233C458.258 291.164 455.99 292.185 453.75 293.308C450.818 294.737 448.069 296.47 445.553 298.475C450.37 295.487 455.474 292.925 460.799 290.82C463.108 289.888 465.362 288.842 467.63 287.911L467.712 287.834Z" fill="#263238"/>
<path d="M471.486 295.566C468.467 296.638 465.447 297.595 462.483 298.781C459.518 299.968 456.854 301.333 453.999 302.699C453.78 302.801 453.917 302.877 454.149 302.788C457.045 301.512 459.846 300.555 462.756 299.33C465.666 298.105 468.562 296.778 471.513 295.63C471.554 295.617 471.527 295.553 471.486 295.566Z" fill="#263238"/>
<path d="M475.993 301.665C471.334 303.194 466.856 305.169 462.632 307.56C462.427 307.675 462.632 307.751 462.823 307.649C467.223 305.608 470.665 303.987 476.048 301.818C476.13 301.78 476.089 301.64 475.993 301.665Z" fill="#263238"/>
<path d="M479.081 281.85C477.755 281.351 476.383 280.966 474.982 280.702C473.666 280.408 472.328 280.208 470.979 280.102C468.064 279.879 465.131 280.213 462.359 281.085C456.788 282.766 451.443 285.039 446.429 287.86C446.32 287.86 446.429 288.09 446.511 288.051C451.616 285.825 456.858 283.882 462.208 282.233C464.928 281.339 467.796 280.907 470.679 280.957C472.168 281.034 473.643 281.238 475.119 281.442C476.423 281.702 477.741 281.898 479.067 282.029C479.149 282.093 479.19 281.889 479.081 281.85Z" fill="#263238"/>
<path d="M560.055 287.823L526.242 274.987C523.51 264.217 521.426 253.312 519.998 242.324C518.154 226.592 522.594 222.534 534.466 238.892C546.338 255.249 558.743 276.046 560.055 287.823Z" fill="#FFC727"/>
<path d="M532.729 236.569L533.18 237.156C533.085 237.52 532.952 237.874 532.784 238.215C532.697 237.67 532.679 237.117 532.729 236.569ZM531.896 262.648C531.773 263.435 531.773 264.235 531.896 265.022C532.235 264.293 532.465 263.525 532.579 262.738C532.695 261.95 532.695 261.152 532.579 260.364C532.243 261.094 532.014 261.862 531.896 262.648ZM533.508 276.339C532.665 276.224 531.809 276.224 530.967 276.339C531.742 276.668 532.567 276.883 533.412 276.977C534.255 277.092 535.111 277.092 535.953 276.977C535.175 276.655 534.352 276.44 533.508 276.339ZM540.831 251.65C541.602 251.977 542.422 252.192 543.262 252.288H543.645L543.235 251.637C542.437 251.533 541.627 251.537 540.831 251.65ZM521.335 236.045C521.841 236.684 522.439 237.255 523.111 237.742C522.807 237.001 522.388 236.304 521.868 235.675C521.365 235.034 520.767 234.462 520.092 233.979C520.402 234.718 520.821 235.413 521.335 236.045ZM543.331 265.392C543.83 266.032 544.428 266.6 545.107 267.076C544.794 266.339 544.371 265.647 543.85 265.022C543.351 264.377 542.753 263.805 542.074 263.325C542.406 264.067 542.847 264.763 543.385 265.392H543.331ZM547.429 281.111C548.116 280.642 548.728 280.083 549.246 279.452C547.664 280.056 546.275 281.032 545.216 282.285C546.015 281.99 546.765 281.591 547.443 281.098L547.429 281.111ZM530.57 247.937C531.261 247.471 531.873 246.912 532.387 246.278C531.596 246.565 530.854 246.961 530.188 247.452C529.501 247.917 528.889 248.471 528.371 249.098C529.163 248.82 529.908 248.437 530.584 247.963L530.57 247.937Z" fill="white"/>
<path d="M520.312 252.071C520.82 252.976 521.232 253.924 521.542 254.904L521.897 255.886C521.597 254.062 521.323 252.237 521.05 250.412C521.05 250.285 521.228 250.234 521.255 250.412C522.102 254.546 526.037 273.902 526.214 274.91C526.31 274.91 527.362 275.471 527.43 275.471C527.499 275.471 527.43 275.676 527.348 275.625C527.266 275.574 525.982 275.063 525.982 275.05C525.545 274.17 522.444 259.395 522.157 257.596C522.105 257.52 522.063 257.439 522.034 257.353L521.72 256.588C521.528 256.116 521.364 255.631 521.187 255.159C520.773 254.186 520.444 253.183 520.203 252.161C520.203 252.046 520.285 252.007 520.312 252.071Z" fill="#263238"/>
<path d="M526.868 271.441C528.213 271.725 529.537 272.091 530.83 272.538C532.197 272.921 533.467 273.278 534.765 273.686C537.292 274.452 539.779 275.294 542.265 276.149C547.279 277.832 552.198 279.748 557.006 281.89C557.03 281.901 557.048 281.919 557.057 281.942C557.066 281.964 557.065 281.99 557.054 282.012C557.043 282.034 557.024 282.051 556.999 282.059C556.975 282.067 556.948 282.066 556.925 282.056C551.829 280.398 546.815 278.509 541.76 276.748L534.3 274.197C533.057 273.763 531.814 273.303 530.571 272.921C529.296 272.554 528.042 272.128 526.814 271.645C526.8 271.517 526.8 271.428 526.868 271.441Z" fill="#263238"/>
<path d="M516.95 183.619C517.086 185.583 527.142 190.266 534.3 185.188C541.459 180.11 538.399 170.132 528.576 171.153C522.36 171.829 516.663 179.434 516.95 183.619Z" fill="#263238"/>
<path d="M537.882 176.256C536.795 173.851 534.869 171.859 532.418 170.604C531.281 169.993 529.993 169.671 528.681 169.671C527.37 169.671 526.081 169.993 524.945 170.604C522.631 171.955 520.745 173.858 519.48 176.116C518.801 177.259 518.238 178.46 517.799 179.701C517.287 180.921 517.023 182.219 517.021 183.529C516.707 182.192 516.707 180.808 517.021 179.471C517.312 178.121 517.77 176.806 518.387 175.554C519.572 172.946 521.603 170.751 524.193 169.277C525.558 168.543 527.113 168.172 528.688 168.205C530.24 168.263 531.748 168.703 533.06 169.481C534.318 170.241 535.395 171.235 536.225 172.401C537.055 173.566 537.619 174.878 537.882 176.256Z" fill="#263238"/>
<path d="M177.4 572.618C174.586 573.46 94.4729 572.491 91.4536 570.653C90.2923 569.964 89.7595 559.055 89.5273 545.85V545.441C89.5273 542.724 89.4316 539.917 89.4316 537.084C89.4316 536.688 89.4316 536.293 89.4316 535.91L93.3253 497.084L146.921 497.594L141.634 536.038L141.565 537.569L141.251 545.531V546.347C141.251 546.347 171.744 559.527 174.846 561.888C177.947 564.248 180.215 571.789 177.4 572.618Z" fill="#D3766A"/>
<path d="M177.4 572.618C174.586 573.46 94.4729 572.491 91.4536 570.653C90.2923 569.964 89.7595 559.055 89.5273 545.85V545.441C89.5273 542.724 89.4316 539.917 89.4316 537.084C89.4316 536.688 89.4316 536.293 89.4316 535.91L141.634 536.038L141.565 537.569L141.251 545.531V546.347C141.251 546.347 171.744 559.527 174.846 561.888C177.947 564.248 180.215 571.789 177.4 572.618Z" fill="#EBEBEB"/>
<path d="M177.416 572.618C175.968 573.052 154.191 573.001 132.919 572.618L120.337 572.338C105.158 571.955 92.6305 571.368 91.4556 570.654C90.2807 569.939 89.7752 559.374 89.543 546.411C89.543 546.232 89.543 546.054 89.543 545.862V545.441L141.185 545.531V546.36C141.185 546.36 171.678 559.528 174.766 561.888C177.853 564.248 180.217 571.776 177.416 572.618Z" fill="#FFC727"/>
<path d="M176.542 569.709C163.03 569.237 108.533 568.509 95.1445 569.007C95.0352 569.007 95.0352 569.083 95.1445 569.083C108.519 569.824 163.03 570.13 176.528 569.913C176.815 569.913 176.815 569.721 176.542 569.709Z" fill="#263238"/>
<path d="M147.004 545.734C141.703 544.739 135.187 545.428 131.074 548.911C130.91 549.052 131.074 549.256 131.293 549.205C136.406 547.733 141.673 546.779 147.004 546.359C147.081 546.345 147.151 546.306 147.201 546.249C147.25 546.192 147.278 546.12 147.278 546.047C147.278 545.973 147.25 545.902 147.201 545.845C147.151 545.788 147.081 545.749 147.004 545.734Z" fill="#263238"/>
<path d="M150.776 547.943C145.475 546.948 138.972 547.637 134.86 551.12C134.696 551.261 134.86 551.465 135.078 551.414C140.177 549.944 145.431 548.99 150.748 548.568C150.826 548.557 150.898 548.521 150.95 548.466C151.003 548.411 151.033 548.34 151.037 548.266C151.04 548.193 151.016 548.12 150.968 548.061C150.92 548.002 150.852 547.961 150.776 547.943Z" fill="#263238"/>
<path d="M154.588 550.15C149.287 549.155 142.77 549.831 138.658 553.327C138.508 553.455 138.658 553.672 138.89 553.621C143.989 552.15 149.243 551.196 154.56 550.776C154.638 550.764 154.71 550.728 154.763 550.673C154.815 550.618 154.846 550.547 154.849 550.473C154.852 550.4 154.828 550.327 154.78 550.268C154.733 550.209 154.665 550.168 154.588 550.15Z" fill="#263238"/>
<path d="M132.919 572.605L120.337 572.324C105.158 571.941 92.6305 571.354 91.4556 570.64C90.2807 569.925 89.7752 559.361 89.543 546.397C89.543 546.219 89.543 546.04 89.543 545.849V545.428C96.6608 550.059 121.58 565.562 132.919 572.605Z" fill="#263238"/>
<path d="M144.736 545.697H87.0278C87.0278 545.697 98.654 419.828 98.2032 417.633C97.6294 414.813 94.2139 402.08 89.6782 385.442C88.312 380.223 86.7272 374.647 85.1288 368.855C80.8389 353.199 76.0846 336.077 71.9587 321.187C65.7562 298.884 60.9336 281.557 60.9336 281.557H109.829C109.829 281.557 115.526 298.424 122.713 320.383C134.421 356.108 150.036 405.155 151.594 417.097C154.08 436.364 144.736 545.697 144.736 545.697Z" fill="#37474F"/>
<path d="M142.18 536.497C133.369 536.331 135.896 536.255 127.152 536.178C122.835 536.178 94.5006 535.91 90.4703 536.535C90.4525 536.542 90.4373 536.553 90.4266 536.568C90.4159 536.583 90.4102 536.601 90.4102 536.618C90.4102 536.636 90.4159 536.654 90.4266 536.668C90.4373 536.683 90.4525 536.695 90.4703 536.701C94.5689 537.327 122.835 537.097 127.152 537.059C135.964 536.982 133.437 536.905 142.18 536.74C142.208 536.731 142.232 536.715 142.248 536.693C142.265 536.671 142.274 536.645 142.274 536.618C142.274 536.591 142.265 536.565 142.248 536.544C142.232 536.522 142.208 536.506 142.18 536.497Z" fill="#263238"/>
<path d="M109.05 409.94C107.164 402.157 104.336 394.514 101.877 386.871C96.8768 371.33 91.8674 355.803 86.849 340.287C84.317 332.53 81.7804 324.772 79.2393 317.015C77.9414 313.098 76.6572 309.181 75.3457 305.276C74.0341 301.372 72.6133 297.621 71.4384 293.793C70.9739 292.224 70.7143 293.078 71.3154 295.069C72.5313 299.088 73.7336 303.12 74.9905 307.126C77.4769 315.063 79.977 322.999 82.4908 330.935C87.4911 346.722 92.5369 362.497 97.6282 378.259C100.169 386.169 102.715 394.076 105.265 401.978C106.553 405.744 107.598 409.578 108.394 413.461C109.067 417.521 109.237 421.64 108.899 425.736C108.339 433.978 107.328 442.208 106.508 450.437L104.049 475.165C102.383 491.556 100.761 507.968 99.1856 524.402C98.9762 526.478 98.7849 528.557 98.6118 530.641C98.6118 531.343 99.6911 531.292 99.7594 530.641C101.658 514.424 103.12 498.144 104.746 481.901C106.372 465.659 107.998 449.57 109.61 433.417C110.019 429.359 110.484 425.289 110.484 421.219C110.464 417.421 109.982 413.637 109.05 409.94Z" fill="#263238"/>
<path d="M104.269 281.557C100.867 306.08 94.4052 352.077 89.6782 385.442C78.694 345.008 60.9336 281.557 60.9336 281.557H104.269Z" fill="#263238"/>
<path d="M116.281 573.346C113.466 574.201 33.3532 573.499 30.3202 571.662C29.159 570.986 28.5852 560.077 28.2983 546.871V546.463C28.2983 543.745 28.1753 540.938 28.1616 538.105C28.1616 537.71 28.1616 537.314 28.1616 536.932C27.9704 517.882 29.4459 498.105 29.4459 498.105L81.8118 498.424L80.3363 536.893V538.412L80.0631 546.373V547.19C80.0631 547.19 110.597 560.268 113.699 562.616C116.8 564.963 119.081 572.491 116.281 573.346Z" fill="#D3766A"/>
<path d="M116.277 573.346C113.463 574.201 33.3497 573.499 30.3168 571.662C29.1555 570.986 28.5817 560.077 28.2948 546.871V546.463C28.2948 543.745 28.1719 540.938 28.1582 538.105C28.1582 537.71 28.1582 537.314 28.1582 536.932H80.3466V538.45L80.0597 546.373V547.19C80.0597 547.19 110.594 560.268 113.695 562.616C116.796 564.964 119.078 572.491 116.277 573.346Z" fill="#EBEBEB"/>
<path d="M116.279 573.346C113.465 574.201 33.3518 573.499 30.3188 571.662C29.1576 570.985 28.5838 560.076 28.2969 546.871V546.462L80.0617 546.373V547.19C80.0617 547.19 110.596 560.268 113.697 562.615C116.798 564.963 119.08 572.491 116.279 573.346Z" fill="#FFC727"/>
<path d="M115.403 570.436C101.892 570.002 47.3944 569.466 34.0058 570.002C33.8965 570.002 33.8965 570.079 34.0058 570.079C47.3808 570.78 101.892 570.908 115.403 570.64C115.676 570.627 115.69 570.436 115.403 570.436Z" fill="#263238"/>
<path d="M85.744 546.565C80.4295 545.583 73.9265 546.298 69.8279 549.794C69.6776 549.934 69.8279 550.138 70.0602 550.087C75.1525 548.599 80.4016 547.628 85.7167 547.191C85.7948 547.179 85.8662 547.143 85.9188 547.088C85.9714 547.033 86.0019 546.962 86.0051 546.889C86.0083 546.815 85.984 546.742 85.9364 546.683C85.8888 546.624 85.8208 546.583 85.744 546.565Z" fill="#263238"/>
<path d="M89.6229 548.745C84.3221 547.776 77.8054 548.477 73.7068 551.986C73.5565 552.114 73.7068 552.331 73.9391 552.28C79.0329 550.795 84.2812 549.82 89.5956 549.371C89.6737 549.359 89.7451 549.323 89.7977 549.268C89.8503 549.213 89.8808 549.142 89.884 549.068C89.8872 548.995 89.863 548.922 89.8153 548.863C89.7677 548.804 89.6997 548.763 89.6229 548.745Z" fill="#263238"/>
<path d="M93.3655 550.941C88.0647 549.971 81.5616 550.673 77.4631 554.181C77.2991 554.309 77.4631 554.526 77.6817 554.475C82.7738 552.984 88.0228 552.009 93.3382 551.566C93.4163 551.554 93.4877 551.518 93.5403 551.463C93.5929 551.408 93.6234 551.337 93.6266 551.264C93.6298 551.19 93.6055 551.117 93.5579 551.059C93.5103 551 93.4423 550.958 93.3655 550.941Z" fill="#263238"/>
<path d="M108.231 281.557C108.231 281.557 107.111 303.4 101.755 320.715C101.318 322.144 100.854 323.547 100.389 324.9C95.4781 326.747 90.7587 329.01 86.2901 331.662C86.2901 331.662 85.73 349.244 85.1562 368.855C84.5414 390.775 83.8856 415.222 84.0223 420.402C84.5141 439.809 81.4265 546.488 81.4265 546.488L23.7324 546.705C23.7324 546.705 34.1701 427.573 34.0881 420.466C33.9788 408.982 36.8888 358.545 39.1294 321.722C40.4955 299.037 41.6295 281.557 41.6295 281.557H108.231Z" fill="#37474F"/>
<path d="M79.4162 536.893C70.6043 536.766 73.1317 536.689 64.3881 536.638C60.071 536.638 31.7363 536.498 27.706 537.136C27.624 537.136 27.624 537.302 27.706 537.314C31.7363 537.914 60.0846 537.57 64.3881 537.518C73.2137 537.404 70.6726 537.34 79.4162 537.136C79.4435 537.127 79.4673 537.111 79.4842 537.089C79.5011 537.068 79.5102 537.041 79.5102 537.015C79.5102 536.988 79.5011 536.961 79.4842 536.94C79.4673 536.918 79.4435 536.902 79.4162 536.893Z" fill="#263238"/>
<path d="M46.4522 289.366C45.3866 319.414 44.2663 349.475 42.8182 379.522C41.37 409.57 39.43 439.809 36.725 469.883C35.2221 486.687 33.8013 510.317 31.8613 527.082C31.8613 527.197 32.0253 527.235 32.0389 527.082C36.2468 497.264 38.583 460.403 40.6596 430.393C42.7362 400.384 44.116 370.336 45.209 340.301C45.8374 323.305 46.3019 306.298 46.8484 289.264C46.8621 289.098 46.4522 289.124 46.4522 289.366Z" fill="#263238"/>
<path d="M102.756 323.598C97.02 325.836 91.5027 328.534 86.2658 331.661C86.2205 331.683 86.1864 331.721 86.171 331.767C86.1557 331.812 86.1603 331.862 86.1838 331.904C86.2074 331.946 86.248 331.978 86.2966 331.992C86.3453 332.007 86.3981 332.002 86.4434 331.98C92.0038 329.429 97.6871 327.03 103.097 324.21C103.14 324.189 103.178 324.16 103.21 324.126C103.241 324.091 103.264 324.051 103.279 324.008C103.294 323.964 103.299 323.919 103.295 323.874C103.29 323.829 103.277 323.785 103.254 323.744C103.232 323.704 103.201 323.668 103.164 323.639C103.127 323.61 103.084 323.588 103.038 323.575C102.991 323.561 102.943 323.556 102.894 323.56C102.846 323.564 102.799 323.577 102.756 323.598Z" fill="#263238"/>
<path d="M103.08 305.059C102.697 306.973 102.206 308.887 101.714 310.775C101.222 312.663 100.99 314.386 100.484 316.147C100.054 317.861 99.106 319.425 97.7518 320.651C97.0004 321.301 96.1806 321.926 95.3746 322.475C94.9511 322.794 94.4866 323.1 94.0084 323.432C94.0084 323.177 94.104 322.922 94.1587 322.654C94.2953 321.926 94.4319 321.199 94.5549 320.485C94.8418 318.864 95.1287 317.257 95.3883 315.636C95.9074 312.459 96.3856 309.257 97.096 306.105C97.096 305.978 96.9184 305.926 96.8911 306.105C96.044 309.218 95.1014 312.306 94.3636 315.445C94.0084 316.989 92.7105 324.606 92.6559 325.142C92.6012 325.678 92.5466 326.252 92.5193 326.813C92.4441 327.381 92.4441 327.955 92.5193 328.523C92.5313 328.547 92.5505 328.568 92.5747 328.583C92.5989 328.597 92.6271 328.605 92.6559 328.605C92.6847 328.605 92.7128 328.597 92.737 328.583C92.7613 328.568 92.7805 328.547 92.7925 328.523C93.0414 327.993 93.2159 327.436 93.3116 326.864C93.4619 326.328 93.5986 325.78 93.6942 325.218C93.6942 325.027 93.6942 324.823 93.7898 324.619C94.5959 324.159 95.3473 323.56 96.0987 323.049C96.8501 322.539 97.7244 321.965 98.4895 321.365C99.9116 320.253 100.936 318.762 101.427 317.091C101.917 315.3 102.237 313.473 102.383 311.63C102.643 309.461 102.834 307.292 103.148 305.135C103.285 304.944 103.107 304.944 103.08 305.059Z" fill="#263238"/>
<path d="M82.4112 229.423C91.3597 246.009 114.011 279.643 125.692 279.86C140.297 280.115 169.41 260.236 176.692 252.478C179.848 249.097 154.737 225.773 151.021 229.078C146.048 233.505 129.162 246.941 128.561 247.171C127.318 247.63 105.787 230.979 92.8352 220.236C78.3263 208.204 75.6486 216.906 82.4112 229.423Z" fill="#D3766A"/>
<path d="M169.751 257.824C169.751 257.824 180.68 249.492 187.634 243.789C191.487 240.574 197.566 234.513 199.233 230.953C201.733 225.607 208.551 201.786 202.403 200.114C196.842 198.609 193.768 219.763 193.768 219.763C193.768 219.763 198.892 198.672 191.828 197.996C184.765 197.32 184.697 221.677 184.697 221.677C184.697 221.677 189.438 199.885 182.047 200.28C176.445 200.574 175.065 222.621 175.065 222.621C175.065 222.621 179 203.865 173.235 203.929C166.868 204.006 164.218 224.28 164.218 224.28C149.6 226.832 143.848 233.212 140.296 238.443C139.422 239.655 169.751 257.824 169.751 257.824Z" fill="#D3766A"/>
<path d="M192.497 227.114C193.194 224.652 193.864 222.164 194.383 219.663C194.902 217.162 195.202 214.623 195.421 212.097C195.752 208.783 195.688 205.445 195.23 202.145C195.599 208.052 194.096 217.06 193.631 219.561C193.167 222.062 192.853 224.588 192.388 227.101C192.374 227.114 192.47 227.114 192.497 227.114Z" fill="#263238"/>
<path d="M182.771 225.723C183.509 222.546 184.383 219.42 184.971 216.205C185.558 212.989 185.831 209.94 186.186 206.724C186.186 206.469 186.064 206.546 186.023 206.724C185.531 209.927 184.807 212.862 184.274 216.064C183.741 219.267 183.345 222.444 182.689 225.646C182.675 225.761 182.757 225.761 182.771 225.723Z" fill="#263238"/>
<path d="M174.19 225.927C175.457 221.085 176.189 216.134 176.376 211.152C176.376 210.897 176.198 211.012 176.171 211.254C175.543 216.179 175.092 220.058 174.013 225.876C173.999 225.978 174.163 226.029 174.19 225.927Z" fill="#263238"/>
<path d="M139.175 237.717L160.31 269.858C160.31 269.858 134.243 282.91 124.352 280.524C114.46 278.138 89.828 248.537 81.4259 229.564C73.0239 210.591 83.5299 212.046 91.727 218.502C99.9241 224.958 128.15 246.304 128.614 246.253C129.079 246.202 139.175 237.717 139.175 237.717Z" fill="#FFC727"/>
<path d="M143.056 257.569C141.69 255.234 140.242 252.95 138.821 250.654C138.124 249.544 137.454 248.434 136.717 247.362C135.979 246.29 135.241 244.938 134.367 243.828C134.354 243.815 134.337 243.807 134.319 243.805C134.301 243.803 134.282 243.807 134.266 243.816C134.251 243.824 134.238 243.838 134.232 243.854C134.225 243.87 134.225 243.888 134.23 243.904C134.777 245.18 135.596 246.456 136.184 247.63C136.771 248.804 137.441 249.901 138.069 251.024C139.435 253.371 140.733 255.719 142.168 258.041C144.9 262.698 147.865 267.253 150.843 271.796C150.861 271.81 150.883 271.818 150.906 271.82C150.929 271.822 150.952 271.817 150.972 271.805C150.992 271.794 151.007 271.777 151.016 271.757C151.025 271.737 151.026 271.715 151.021 271.694C148.37 266.934 145.816 262.226 143.056 257.569Z" fill="#263238"/>
<path d="M128.368 246.251C125.95 247.907 123.666 249.728 121.537 251.699C120.375 252.758 119.241 253.856 118.148 254.978C117.056 256.101 116.004 257.39 114.897 258.564C114.884 258.583 114.879 258.606 114.882 258.629C114.885 258.652 114.896 258.673 114.913 258.689C114.93 258.705 114.953 258.716 114.977 258.718C115.002 258.721 115.026 258.716 115.047 258.704C116.195 257.62 117.452 256.624 118.64 255.578C119.829 254.532 121.004 253.486 122.165 252.427C124.501 250.309 126.4 248.752 128.641 246.557C128.777 246.34 128.559 246.06 128.368 246.251Z" fill="#263238"/>
<path d="M133.766 279.948C130.716 280.805 127.497 281.001 124.353 280.522C114.448 278.149 89.8296 248.535 81.4276 229.562C80.0834 226.703 79.1066 223.705 78.5176 220.631L133.766 279.948Z" fill="#263238"/>
<path d="M34.7181 312.101C34.923 312.292 119.422 309.281 120.159 308.414C121.157 307.202 95.568 224.203 86.0047 214.174C83.9691 212.044 71.974 209.671 65.7305 215.387C45.5383 233.938 33.9667 311.399 34.7181 312.101Z" fill="#FFC727"/>
<path d="M97.9316 237.754C97.9316 237.614 98.1229 237.537 98.1776 237.665C99.5437 240.905 100.91 244.185 102.126 247.489C102.126 247.004 102.017 246.532 101.976 246.06C101.866 244.784 101.88 243.508 101.757 242.309C101.757 242.194 101.962 242.194 101.962 242.309C101.962 243.585 102.29 244.861 102.495 246.137C102.7 247.413 102.836 248.433 103.055 249.582C103.055 249.786 103.055 249.99 103.15 250.181C105.2 255.668 112.891 280.88 115.788 290.858C117.413 296.484 118.848 302.149 120.2 307.84C120.193 307.86 120.179 307.876 120.16 307.888C120.142 307.9 120.12 307.907 120.098 307.907C120.076 307.907 120.054 307.9 120.036 307.888C120.017 307.876 120.003 307.86 119.996 307.84C116.867 297.964 113.834 288.063 110.719 278.188C107.85 269.218 99.694 243.304 97.9316 237.754Z" fill="#263238"/>
<path d="M88.2575 217.671C88.763 221.244 89.6237 229.525 83.6124 229.41C81.1665 229.171 78.8442 228.286 76.9181 226.858C74.9315 225.541 73.0997 224.031 71.4534 222.354C69.5407 220.524 67.795 218.548 66.2345 216.447C66.2345 216.357 66.0296 216.447 66.0979 216.561C67.6827 218.654 69.0489 220.848 70.8523 222.813C72.5656 224.716 74.5462 226.394 76.7405 227.802C78.7805 229.308 81.2633 230.198 83.8584 230.354C84.9792 230.329 86.0565 229.944 86.9079 229.262C87.7594 228.581 88.3326 227.646 88.5307 226.616C89.1568 223.653 89.0634 220.596 88.2575 217.671Z" fill="#263238"/>
<path d="M83.546 225.582C79.2562 226.258 71.5099 219.202 68.9961 214.099C69.3049 211.361 69.7608 208.64 70.3623 205.945C70.8131 203.33 71.2503 200.421 71.4416 197.729L89.202 202.934C87.9353 206.23 87.1048 209.658 86.7292 213.142C86.6939 213.511 86.6939 213.882 86.7292 214.252C86.7292 214.252 86.7292 214.366 86.7292 214.443C87.0298 216.612 87.6992 224.931 83.546 225.582Z" fill="#D3766A"/>
<path d="M86.7938 214.355C86.7938 214.355 86.7938 214.469 86.7938 214.546C86.1711 214.596 85.5449 214.596 84.9221 214.546C74.3205 213.5 72.3259 202.208 71.957 197.959L89.212 203.063C87.9468 206.359 87.112 209.787 86.7255 213.27C86.7145 213.633 86.7373 213.996 86.7938 214.355Z" fill="#263238"/>
<path d="M66.2492 180.082C65.1562 186.271 70.9625 203.049 76.0311 206.277C83.3948 211.011 94.2013 210.194 98.2043 202.207C102.071 194.462 94.1057 172.759 88.5317 169.913C80.3619 165.716 67.8613 170.972 66.2492 180.082Z" fill="#D3766A"/>
<path d="M86.3474 188.121C86.3474 188.121 86.2654 188.21 86.3474 188.249C86.7436 189.371 87.0169 190.724 86.0332 191.413C87.2901 190.915 86.8939 189.129 86.3474 188.121Z" fill="#263238"/>
<path d="M84.8686 187.253C82.874 187.661 83.9123 191.374 85.7703 190.979C87.6283 190.583 86.549 186.896 84.8686 187.253Z" fill="#263238"/>
<path d="M93.2305 186.424C93.2305 186.424 93.3534 186.424 93.3534 186.5C93.6403 187.661 94.1731 188.937 95.389 189.052C95.389 189.052 95.389 189.116 95.389 189.129C93.9955 189.269 93.3124 187.559 93.2305 186.424Z" fill="#263238"/>
<path d="M93.9947 185.009C95.9347 184.384 97.1233 188.046 95.3609 188.62C93.5985 189.194 92.3553 185.481 93.9947 185.009Z" fill="#263238"/>
<path d="M82.7928 185.939C83.2666 185.671 83.7228 185.377 84.159 185.058C84.6918 184.714 85.1563 184.497 85.4022 183.91C85.4495 183.736 85.4351 183.552 85.3612 183.387C85.2873 183.221 85.1579 183.082 84.9923 182.991C84.637 182.86 84.2505 182.82 83.8731 182.876C83.4958 182.932 83.1415 183.082 82.8474 183.31C82.1935 183.692 81.7086 184.281 81.4812 184.969C81.4432 185.128 81.4541 185.294 81.5124 185.448C81.5708 185.601 81.6744 185.737 81.8114 185.838C81.9483 185.939 82.113 186.002 82.2866 186.02C82.4601 186.038 82.6356 186.01 82.7928 185.939Z" fill="#263238"/>
<path d="M95.0081 182.711C94.4343 182.711 93.9015 182.711 93.3277 182.711C92.7334 182.788 92.1285 182.681 91.6063 182.405C91.4611 182.288 91.361 182.13 91.3215 181.955C91.282 181.779 91.3053 181.597 91.3877 181.435C91.605 181.142 91.9013 180.907 92.2467 180.755C92.5921 180.602 92.9744 180.538 93.355 180.568C94.1394 180.517 94.9153 180.744 95.5272 181.206C95.666 181.315 95.7668 181.46 95.8168 181.623C95.8668 181.786 95.8638 181.96 95.8082 182.121C95.7525 182.282 95.6467 182.425 95.5043 182.53C95.3618 182.635 95.1891 182.698 95.0081 182.711Z" fill="#263238"/>
<path d="M87.9706 198.863C88.3086 199.135 88.7402 199.285 89.1865 199.284C89.6443 199.168 90.0688 198.959 90.4297 198.672C90.3173 198.937 90.1317 199.17 89.8918 199.347C89.6519 199.524 89.3662 199.639 89.0635 199.68C88.7954 199.68 88.5332 199.606 88.3097 199.467C88.0862 199.329 87.9112 199.132 87.8066 198.902C87.834 198.889 87.9159 198.838 87.9706 198.863Z" fill="#263238"/>
<path d="M88.2578 195.112C88.6971 195.49 89.215 195.778 89.7791 195.961C90.3433 196.143 90.9416 196.214 91.5367 196.171C92.0553 196.138 92.5661 196.035 93.0531 195.865L93.34 195.763L93.5996 195.661C93.662 195.633 93.7123 195.587 93.7422 195.528C93.772 195.47 93.7796 195.404 93.7635 195.342V195.227V195.125C93.545 194.232 93.0805 192.918 93.0805 192.918C93.463 192.994 95.444 193.3 95.28 192.854C94.0602 188.879 92.4076 185.031 90.3481 181.37C90.3481 181.256 90.0748 181.371 90.1295 181.46C91.2361 185.122 93.0258 188.567 94.2281 192.229C93.525 192.11 92.8075 192.084 92.0968 192.152C91.9738 192.229 93.0531 194.704 93.1078 195.099C92.3538 195.367 91.5494 195.488 90.7436 195.455C89.9379 195.422 89.1478 195.236 88.4218 194.908C88.2578 194.946 88.2578 195.048 88.2578 195.112Z" fill="#263238"/>
<path d="M92.3564 195.56C92.0178 196.321 91.4713 196.985 90.7717 197.487C90.3734 197.753 89.8955 197.896 89.4055 197.895C88.3535 197.895 88.0393 197.053 88.0393 196.287C88.0354 195.884 88.0813 195.481 88.1759 195.088C89.4788 195.661 90.9448 195.827 92.3564 195.56Z" fill="#263238"/>
<path d="M90.8281 197.486C90.4298 197.753 89.9519 197.896 89.4619 197.895C88.4099 197.895 88.0957 197.053 88.0957 196.287C88.6294 196.16 89.1936 196.211 89.6919 196.43C90.1903 196.648 90.5918 197.022 90.8281 197.486Z" fill="#FF98B9"/>
<path d="M69.8417 193.544C74.4047 192.574 73.4211 184.612 73.4211 184.612C73.4211 184.612 80.9624 181.767 80.7848 176.026C80.7848 176.026 89.2825 178.896 94.6516 175.694C100.021 172.491 97.302 166.584 96.3457 165.397C95.3894 164.211 92.7253 167.337 92.7253 167.337C92.7253 167.337 91.5231 163.93 90.4301 163.777C89.3372 163.624 88.777 165.971 88.777 165.971C83.7967 165.551 78.7771 165.83 73.8856 166.801C67.0547 168.421 65.2649 175.553 65.2649 175.553C65.2649 175.553 61.7812 177.046 61.1664 179.687C60.5516 182.329 66.9453 194.169 69.8417 193.544Z" fill="#263238"/>
<path d="M80.4433 175.043C80.6683 176.173 80.6683 177.332 80.4433 178.462C80.2188 179.558 79.6806 180.577 78.8859 181.41C78.0405 182.216 77.0392 182.866 75.9349 183.324C75.3885 183.541 74.801 183.732 74.2135 183.923C73.6261 184.115 73.025 184.217 72.4238 184.395C73.0386 184.395 73.6671 184.255 74.2955 184.191C74.9239 184.127 75.5114 183.911 76.1125 183.719C77.3297 183.314 78.4323 182.655 79.3367 181.793C80.207 180.882 80.7514 179.74 80.8942 178.526C81.0556 177.348 80.9007 176.151 80.4433 175.043Z" fill="#263238"/>
<path d="M65.4312 176.485C65.4328 174.605 65.9603 172.758 66.9614 171.127C67.9795 169.537 69.5165 168.294 71.3468 167.58C71.7919 167.39 72.248 167.224 72.713 167.082L74.1612 166.75C75.1448 166.584 76.1421 166.533 77.1395 166.444C78.1368 166.355 79.1614 166.444 80.1587 166.444C81.1561 166.444 82.1807 166.623 83.1917 166.686C82.1944 166.495 81.197 166.342 80.1861 166.163C79.1751 165.985 78.1504 166.036 77.1258 165.972C75.0577 165.947 73.0049 166.307 71.0873 167.031C69.1574 167.794 67.5595 169.143 66.5515 170.859C65.5755 172.585 65.1848 174.547 65.4312 176.485Z" fill="#263238"/>
<path d="M84.6674 195.1C83.5718 195.245 82.4544 195.102 81.4416 194.685C80.4289 194.269 79.5611 193.596 78.9366 192.742C78.3121 191.889 77.9558 190.89 77.9079 189.857C77.86 188.825 78.1225 187.8 78.6656 186.9C79.2088 185.999 80.011 185.259 80.9814 184.762C81.9518 184.265 83.0517 184.032 84.1567 184.088C85.2616 184.145 86.3276 184.489 87.2339 185.082C88.1403 185.676 88.8508 186.494 89.2851 187.444C89.6479 188.225 89.8121 189.074 89.7649 189.924C89.7177 190.774 89.4603 191.602 89.013 192.344C88.5657 193.085 87.9406 193.72 87.1866 194.198C86.4327 194.676 85.5704 194.985 84.6674 195.1ZM83.0689 184.892C82.6476 184.955 82.2351 185.062 81.8394 185.211C80.6332 185.682 79.6644 186.564 79.1302 187.678C78.5959 188.792 78.5365 190.054 78.9641 191.208C79.3916 192.361 80.2738 193.319 81.4312 193.886C82.5885 194.454 83.9339 194.588 85.1932 194.261C86.4526 193.934 87.5312 193.171 88.2095 192.128C88.8877 191.085 89.1146 189.839 88.8438 188.645C88.573 187.45 87.825 186.398 86.7521 185.7C85.6791 185.003 84.362 184.714 83.0689 184.892Z" fill="#FFC727"/>
<path d="M97.821 191.746C95.5668 192.052 93.1896 190.189 92.3563 187.395C91.946 186.066 91.9938 184.651 92.4929 183.35C92.6681 182.779 92.9987 182.259 93.4525 181.842C93.9063 181.426 94.4679 181.125 95.0826 180.971C95.6974 180.817 96.3443 180.814 96.9606 180.963C97.5769 181.111 98.1416 181.406 98.5997 181.819C99.7273 182.711 100.526 183.912 100.881 185.251C101.728 188.211 100.512 191.082 98.1489 191.631L97.821 191.746ZM95.6215 181.628L95.3346 181.691C94.8499 181.83 94.4088 182.076 94.0493 182.41C93.6898 182.743 93.4229 183.153 93.2716 183.605C92.8298 184.764 92.7915 186.023 93.1623 187.203C93.8864 189.755 96.0586 191.452 97.985 190.954C99.9113 190.457 100.895 188.007 100.157 185.442C99.8408 184.257 99.1393 183.192 98.1489 182.393C97.8061 182.107 97.4028 181.891 96.9652 181.759C96.5275 181.627 96.0651 181.582 95.6078 181.628H95.6215Z" fill="#FFC727"/>
<path d="M89.2691 188.16L88.627 187.739C89.2964 186.833 91.0451 185.417 92.8485 186.463L92.425 187.088C90.8129 186.157 89.3374 188.084 89.2691 188.16Z" fill="#FFC727"/>
<path d="M65.3178 195.841L64.5391 195.688C64.621 195.343 65.3588 192.37 66.9982 191.681C68.6376 190.992 77.9277 189.461 78.3239 189.385L78.4468 190.112C74.6994 190.673 70.9871 191.423 67.3261 192.358C66.2468 192.817 65.5091 195.024 65.3178 195.841Z" fill="#FFC727"/>
<path d="M72.1763 193.582C72.1763 193.582 67.1214 188.644 64.6486 190.418C62.1758 192.191 66.6296 199.757 69.9631 200.395C70.3893 200.514 70.837 200.55 71.2786 200.5C71.7201 200.451 72.1462 200.318 72.5303 200.108C72.9145 199.899 73.2486 199.618 73.512 199.284C73.7754 198.949 73.9624 198.567 74.0616 198.162L72.1763 193.582Z" fill="#D3766A"/>
<path d="M86.8906 214.201L82.4778 224.115L69.3761 211.355L65.5645 215.362C65.5645 215.362 78.2973 235.534 78.3929 234.628L82.8877 226.08L89.1585 232.127L88.8306 217.123L86.8906 214.201Z" fill="#EBEBEB"/>
<path d="M89.4342 224.715C89.2976 222.24 89.2293 219.739 88.9561 217.277C88.9561 217.187 88.8058 217.149 88.7785 217.277C88.2183 219.663 88.7785 229.13 88.7785 231.388C88.5189 231.133 82.9585 226.068 82.9039 226.144C81.9339 227.497 78.6277 233.723 78.4091 234.285C76.3872 231.082 68.6682 219.433 66.2774 216.422C66.2744 216.407 66.2677 216.394 66.2579 216.383C66.2481 216.371 66.2355 216.363 66.2212 216.357C66.2069 216.351 66.1913 216.349 66.1758 216.35C66.1603 216.351 66.1453 216.356 66.1322 216.364C66.1191 216.371 66.1082 216.382 66.1004 216.395C66.0927 216.407 66.0884 216.422 66.0879 216.436C66.0874 216.451 66.0907 216.465 66.0976 216.478C66.1044 216.491 66.1145 216.502 66.1271 216.511C67.8895 219.892 78.1085 235.573 78.2588 235.535C79.9993 232.603 81.5726 229.588 82.9722 226.501C83.9148 227.599 89.5162 233.302 89.5435 232.881C89.6584 230.159 89.6219 227.434 89.4342 224.715Z" fill="#263238"/>
<path d="M56.971 238.749C58.3372 259.075 63.9386 297.352 76.7534 305.505C90.4153 314.156 129.42 315.356 140.226 315.253C144.803 315.253 142.166 283.496 137.398 282.45C132.63 281.403 99.1452 280.089 95.7571 278.698C92.3689 277.308 81.5897 249.799 73.2286 233.773C63.5287 214.928 55.8917 222.226 56.971 238.749Z" fill="#D3766A"/>
<path d="M159.901 284.835C157.661 284.185 158.016 283.087 161.896 281.709C165.776 280.331 182.389 277.958 181.023 272.612C179.656 267.266 156.24 270.928 149.956 273.684C143.671 276.44 134.559 282.96 134.559 282.96C139.272 283.1 150.666 284.452 159.901 284.835Z" fill="#D3766A"/>
<path d="M155.064 305.379L201.283 306.911L212.321 246.113L166.103 244.582L155.064 305.379Z" fill="#263238"/>
<path d="M157.332 305.456L203.55 306.987L214.603 246.177L168.384 244.658L157.332 305.456Z" fill="#455A64"/>
<path d="M192.089 273.353C191.922 274.484 191.317 275.519 190.388 276.262C189.459 277.005 188.27 277.404 187.048 277.384C186.473 277.37 185.908 277.242 185.389 277.01C184.871 276.778 184.411 276.446 184.038 276.037C183.666 275.628 183.39 275.15 183.228 274.635C183.066 274.12 183.022 273.578 183.099 273.046C183.269 271.914 183.877 270.878 184.808 270.136C185.74 269.393 186.93 268.994 188.154 269.014C188.728 269.031 189.291 269.16 189.808 269.393C190.325 269.626 190.784 269.957 191.155 270.366C191.525 270.775 191.8 271.252 191.961 271.767C192.122 272.281 192.166 272.821 192.089 273.353Z" fill="white"/>
<path d="M137.275 315.265C150.555 315.201 167.086 315.878 179.969 308.72C181.422 307.959 182.557 306.763 183.193 305.326C189.027 302.212 189.204 298.704 189.204 298.704C193.685 294.251 193.303 290.653 193.303 290.653C193.303 290.653 200.134 286.927 198.385 282.704C196.459 277.983 187.278 284.133 180.023 284.63C163.37 285.791 139.366 283.074 134.543 282.959L137.275 315.265Z" fill="#D3766A"/>
<path d="M163.509 297.288C168.384 297.01 173.232 296.418 178.018 295.514C183.192 294.225 188.256 292.579 193.169 290.589C193.319 290.525 193.415 290.717 193.278 290.806C184.207 295.535 173.919 297.848 163.537 297.492C163.291 297.492 163.263 297.288 163.509 297.288Z" fill="#263238"/>
<path d="M162.796 306.77C167.523 306.106 175.843 304.894 189.122 298.578C189.122 298.578 189.218 298.578 189.122 298.642C181.341 303.66 172.214 306.55 162.769 306.986C162.523 306.999 162.482 306.821 162.796 306.77Z" fill="#263238"/>
<path d="M162.51 311.873C170.516 310.456 175.366 308.619 183.139 305.314C183.139 305.314 183.235 305.314 183.139 305.391C174.724 310.01 171.103 310.801 162.469 312.141C162.223 312.192 162.196 311.936 162.51 311.873Z" fill="#263238"/>
<path d="M123.477 280.931L125.895 317.601C125.895 317.601 82.7921 315.585 71.8626 303.477C60.9331 291.368 55.2908 251.841 56.0012 235.458C56.7116 219.075 65.7148 217.416 73.3654 232.523C81.0161 247.63 95.0195 276.223 95.7162 277.014C96.413 277.805 123.477 280.931 123.477 280.931Z" fill="#FFC727"/>
<path d="M119.2 298.832C119.105 296.178 118.955 293.524 118.804 290.87C118.722 289.594 118.668 288.318 118.545 287.043C118.422 285.767 118.408 284.261 118.176 282.909C118.176 282.888 118.167 282.869 118.152 282.854C118.136 282.84 118.116 282.832 118.094 282.832C118.072 282.832 118.051 282.84 118.036 282.854C118.021 282.869 118.012 282.888 118.012 282.909C117.875 284.274 118.012 285.677 118.012 287.055C118.012 288.433 118.012 289.607 118.012 290.883C118.012 293.537 118.08 296.191 118.19 298.845C118.381 304.165 118.75 309.46 119.187 314.768C119.187 314.795 119.198 314.821 119.219 314.84C119.239 314.86 119.267 314.87 119.296 314.87C119.325 314.87 119.353 314.86 119.373 314.84C119.394 314.821 119.405 314.795 119.405 314.768C119.392 309.46 119.378 304.153 119.2 298.832Z" fill="#263238"/>
<path d="M84.0503 310.303C79.8811 309.306 76.0947 307.238 73.1208 304.332C69.9542 301.104 67.6509 297.221 66.3992 293.002C63.1485 283.8 60.6862 274.371 59.0354 264.804C58.1064 259.369 57.3277 253.882 56.8632 248.383C56.8632 248.363 56.8546 248.343 56.8392 248.329C56.8238 248.315 56.803 248.307 56.7812 248.307C56.7595 248.307 56.7386 248.315 56.7233 248.329C56.7079 248.343 56.6992 248.363 56.6992 248.383C56.7812 252.305 57.0271 256.196 57.437 260.058C57.355 259.803 57.273 259.535 57.2047 259.267C56.7949 257.646 56.3304 256.039 55.8385 254.418C55.8385 254.189 55.4287 254.303 55.4697 254.52C55.738 256.179 56.1028 257.823 56.5626 259.445C56.9178 260.632 57.2457 261.908 57.7239 263.095C58.3498 268.18 59.2618 273.231 60.4563 278.227C61.6448 283.139 63.052 288.026 64.7461 292.823C66.2626 297.085 68.0523 301.206 71.4814 304.46C74.8978 307.579 79.2299 309.68 83.9274 310.495C83.9545 310.51 83.9871 310.515 84.0178 310.507C84.0486 310.5 84.075 310.482 84.0913 310.457C84.1076 310.431 84.1125 310.401 84.1048 310.372C84.0971 310.343 84.0775 310.319 84.0503 310.303Z" fill="#263238"/>
<path d="M110.907 279.337C107.45 278.597 103.953 278.061 100.455 277.474L97.9554 277.091C97.0127 276.951 96.2066 276.912 95.7421 276.032C94.9224 274.501 94.2257 272.893 93.4743 271.324C90.7419 265.557 87.8866 259.841 84.9629 254.073C84.2252 251.994 83.5148 249.888 82.8453 247.796C82.8453 247.772 82.8353 247.75 82.8173 247.733C82.7994 247.716 82.7751 247.707 82.7497 247.707C82.7243 247.707 82.7 247.716 82.6821 247.733C82.6641 247.75 82.6541 247.772 82.6541 247.796C82.9683 249.136 83.3645 250.45 83.788 251.751C82.349 248.97 80.8735 246.205 79.3616 243.458C79.2796 243.33 79.0473 243.458 79.102 243.56C81.8344 249.939 84.8536 256.243 87.9276 262.507C89.485 265.672 91.0288 268.887 92.6136 271.987C93.365 273.48 94.0617 275.024 94.8678 276.491C95.6738 277.959 97.2176 277.857 98.7204 278.073C102.819 278.635 106.808 279.196 110.879 279.528C111.03 279.592 111.043 279.426 110.907 279.337Z" fill="#263238"/>
</svg>
