<svg width="881" height="401" viewBox="0 0 881 401" fill="none" xmlns="http://www.w3.org/2000/svg">
<path d="M834.053 205.744V245.834H863.671" stroke="#263238" stroke-linecap="round" stroke-linejoin="round"/>
<path d="M764.074 122.436V106.369H786.018V156.575H799.526V209.573H813.033V137.053H834.056V200.897" stroke="#263238" stroke-linecap="round" stroke-linejoin="round"/>
<path d="M105.77 181.528V156.574H127.713V190.041H149.657V131.466H200.299V184.465H245.87V114.737H283.004V181.681H319.933V33.8478H342.093V95.2059H360.66V8.74023H406.231V190.041H467.003V70.108H505.82V139.835H539.577V47.7933H598.655V148.204H629.047V89.6297H652.674V128.683H676.3V81.2605H689.808V33.8478H710.069V168.532H728.579V134.259H733.695V209.572H764.076V126.792" stroke="#263238" stroke-linecap="round" stroke-linejoin="round"/>
<path d="M77.0703 245.832H105.768V185.885" stroke="#263238" stroke-linecap="round" stroke-linejoin="round"/>
<path d="M773.105 224.373H756.846V238.098H773.105V224.373Z" stroke="#263238" stroke-linecap="round" stroke-linejoin="round"/>
<path d="M799.808 224.373H783.549V238.098H799.808V224.373Z" stroke="#263238" stroke-linecap="round" stroke-linejoin="round"/>
<path d="M128.7 224.373H112.441V238.098H128.7V224.373Z" stroke="#263238" stroke-linecap="round" stroke-linejoin="round"/>
<path d="M103.154 254.748H86.8945V268.473H103.154V254.748Z" stroke="#263238" stroke-linecap="round" stroke-linejoin="round"/>
<path d="M773.105 246.908H756.846V260.633H773.105V246.908Z" stroke="#263238" stroke-linecap="round" stroke-linejoin="round"/>
<path d="M759.1 325.78C762.056 326.874 769.276 326.74 769.333 326.74C769.39 326.74 767.775 322.747 767.639 322.507C766.058 319.714 761.044 315.088 756.963 315.559C756.288 315.651 755.645 315.862 755.074 316.179C754.503 316.495 754.017 316.909 753.648 317.395C753.279 317.88 753.035 318.425 752.932 318.995C752.83 319.565 752.87 320.147 753.051 320.703C753.688 323.083 756.587 324.849 759.1 325.78Z" fill="#92E3A9"/>
<path d="M761.584 343.442C764.654 343.826 771.101 342.242 771.613 342.117C772.67 345.231 773.977 348.281 775.524 351.245C776.411 352.982 777.366 354.7 778.344 356.418C777.764 355.688 777.207 355.045 777.138 354.959C774.739 352.617 768.463 349.277 764.631 350.63C764.009 350.87 763.452 351.218 762.999 351.651C762.547 352.085 762.207 352.594 762.003 353.145C761.799 353.697 761.736 354.279 761.816 354.853C761.897 355.426 762.12 355.979 762.471 356.475C763.87 358.625 767.212 359.691 769.93 360.017C772.647 360.343 778.219 359.105 779.674 358.76C780.06 359.412 780.436 360.075 780.811 360.727C782.687 363.866 784.563 366.985 786.291 370.104C786.905 371.198 787.428 372.292 788.019 373.396C787.496 372.744 787.042 372.206 786.973 372.129C784.563 369.787 778.287 366.447 774.466 367.801C773.845 368.041 773.29 368.39 772.838 368.823C772.386 369.257 772.047 369.766 771.844 370.317C771.64 370.868 771.576 371.449 771.656 372.023C771.735 372.596 771.957 373.149 772.306 373.646C773.705 375.796 777.059 376.851 779.765 377.187C782.471 377.523 787.519 376.4 789.247 375.988C789.782 377.13 790.316 378.272 790.771 379.395C791.067 380.163 791.408 380.892 791.646 381.679C791.885 382.466 792.158 383.234 792.408 383.992C792.829 385.48 793.272 387.006 793.647 388.465C793.909 389.472 794.136 390.442 794.375 391.421C793.784 390.317 792.567 388.196 792.442 388.023C790.487 385.393 784.881 381.305 780.89 382.149C780.234 382.309 779.625 382.583 779.101 382.954C778.578 383.325 778.153 383.785 777.853 384.303C777.553 384.821 777.385 385.386 777.36 385.963C777.335 386.539 777.453 387.113 777.707 387.649C778.707 389.952 781.834 391.43 784.449 392.112C787.349 392.851 793.738 392.169 794.546 392.112C794.921 393.724 795.273 395.298 795.58 396.786C795.819 397.89 796.024 398.945 796.217 399.963H798.775C798.537 398.83 798.275 397.65 797.979 396.412C797.604 394.77 797.149 393.024 796.672 391.229C798.602 390.588 800.482 389.844 802.3 389.002C804.415 390.922 809.804 393.177 810.509 393.465C809.77 394.991 809.042 396.469 808.326 397.851L807.189 399.963H810.02C810.236 399.531 810.452 399.099 810.668 398.648C811.419 397.103 812.192 395.442 812.942 393.724C813.715 393.859 820.048 394.953 823.005 394.386C825.676 393.878 828.917 392.601 830.122 390.365C830.424 389.847 830.593 389.282 830.619 388.705C830.645 388.128 830.528 387.553 830.273 387.018C830.019 386.482 829.635 385.997 829.144 385.595C828.654 385.193 828.069 384.882 827.427 384.683C823.528 383.579 817.57 387.313 815.398 389.808C815.262 389.962 814.079 391.728 813.352 392.793C813.659 392.083 813.977 391.411 814.284 390.682C814.909 389.252 815.421 387.802 816.103 386.248C816.365 385.489 816.637 384.731 816.91 383.954C817.183 383.176 817.399 382.351 817.649 381.545C818.172 379.625 818.604 377.706 818.991 375.786C820.469 376.247 825.813 377.802 828.53 377.638C831.248 377.475 834.704 376.631 836.296 374.577C836.687 374.104 836.956 373.567 837.086 373C837.216 372.434 837.203 371.851 837.049 371.289C836.894 370.727 836.602 370.199 836.19 369.738C835.778 369.278 835.257 368.896 834.659 368.617C830.998 367.023 824.426 369.96 821.834 372.149C821.674 372.283 820.014 374.068 819.127 375.028C819.343 373.847 819.571 372.686 819.741 371.486C820.253 368.041 820.628 364.547 821.038 361.054C821.163 359.988 821.299 358.923 821.436 357.858C821.959 358.021 828.257 359.988 831.305 359.777C834.033 359.624 837.478 358.817 839.059 356.715C839.452 356.243 839.723 355.706 839.853 355.139C839.984 354.573 839.972 353.989 839.817 353.427C839.663 352.864 839.369 352.336 838.957 351.875C838.544 351.415 838.021 351.033 837.422 350.755C833.76 349.162 827.189 352.099 824.608 354.287C824.403 354.45 822.027 356.965 821.458 357.637C821.743 355.285 822.061 352.953 822.493 350.659C823.046 347.561 823.836 344.496 824.858 341.484C825.108 341.561 831.68 343.643 834.784 343.451C837.524 343.298 840.958 342.444 842.549 340.39C842.941 339.917 843.21 339.38 843.34 338.813C843.469 338.247 843.456 337.664 843.302 337.102C843.148 336.54 842.855 336.012 842.444 335.551C842.032 335.091 841.51 334.709 840.912 334.43C837.251 332.836 830.679 335.773 828.087 337.961C827.882 338.134 825.324 340.841 824.903 341.359C824.903 341.186 825.006 341.004 825.063 340.831C826.194 337.835 827.636 334.928 829.372 332.145C830.304 330.6 831.305 329.17 832.305 327.788C833.442 328.287 838.843 330.485 841.708 330.581C844.573 330.677 847.973 330.149 849.815 328.249C850.267 327.816 850.607 327.308 850.811 326.757C851.016 326.206 851.08 325.626 851.001 325.052C850.921 324.479 850.7 323.927 850.351 323.43C850.001 322.934 849.532 322.506 848.973 322.173C845.562 320.254 838.638 322.567 835.773 324.496C835.614 324.601 834.158 325.82 833.124 326.723C833.59 326.108 834.056 325.465 834.511 324.88C836.239 322.692 837.979 320.782 839.525 319.121C840.423 318.161 841.253 317.326 842.038 316.539C843.482 316.539 849.303 316.367 851.85 315.359C854.397 314.351 857.171 312.537 857.774 310.138C857.938 309.578 857.961 308.995 857.84 308.427C857.72 307.859 857.459 307.319 857.076 306.842C856.692 306.365 856.193 305.961 855.612 305.658C855.031 305.354 854.38 305.157 853.703 305.08C849.61 304.705 844.755 309.437 843.254 312.268C843.129 312.518 841.628 316.539 841.697 316.539H841.856C841.083 317.288 840.264 318.085 839.389 318.977C837.785 320.638 835.978 322.528 834.215 324.688C832.262 327.004 830.47 329.414 828.849 331.905C827.026 334.689 825.504 337.606 824.301 340.62C824.301 340.62 824.301 340.697 824.301 340.726C824.301 339.708 824.301 336.887 824.244 336.647C823.766 333.575 820.708 327.865 816.672 327.231C815.998 327.14 815.31 327.17 814.651 327.318C813.993 327.467 813.378 327.731 812.848 328.093C812.319 328.455 811.885 328.907 811.576 329.42C811.267 329.933 811.089 330.496 811.055 331.07C810.816 333.508 812.908 335.956 814.955 337.501C817.229 339.238 823.675 340.927 824.187 341.062C823.033 344.151 822.129 347.303 821.481 350.496C821.083 352.358 820.753 354.239 820.458 356.13C820.458 355.247 820.458 354.46 820.458 354.354C819.992 351.273 816.933 345.563 812.885 344.929C812.213 344.841 811.526 344.873 810.868 345.023C810.211 345.173 809.598 345.437 809.069 345.798C808.54 346.16 808.107 346.611 807.797 347.123C807.486 347.634 807.307 348.195 807.269 348.769C807.03 351.216 809.133 353.663 811.18 355.209C813.226 356.754 818.684 358.299 820.128 358.693C820.026 359.412 819.912 360.142 819.81 360.862C819.309 364.355 818.832 367.83 818.252 371.237C818.036 372.436 817.786 373.607 817.536 374.778C817.536 374.001 817.536 373.339 817.479 373.243C817.013 370.171 813.954 364.461 809.906 363.827C809.234 363.738 808.546 363.769 807.888 363.918C807.23 364.067 806.616 364.331 806.087 364.693C805.557 365.054 805.124 365.506 804.814 366.018C804.505 366.531 804.326 367.092 804.29 367.666C804.051 370.104 806.154 372.552 808.201 374.097C810.248 375.642 815.182 377.043 816.888 377.514C816.592 378.704 816.296 379.903 815.944 381.055C815.671 381.833 815.489 382.6 815.171 383.378C814.852 384.155 814.591 384.904 814.295 385.652C813.681 387.092 813.056 388.532 812.408 389.962C811.964 390.922 811.532 391.881 811.089 392.764C811.305 391.574 811.691 389.232 811.691 389.04C811.648 386.309 810.775 383.632 809.156 381.266C809.167 380.964 809.144 380.662 809.088 380.364C809.002 379.791 808.775 379.24 808.421 378.746C808.066 378.252 807.593 377.826 807.031 377.497C806.469 377.167 805.832 376.941 805.159 376.833C804.487 376.725 803.796 376.738 803.13 376.871C799.162 377.763 796.638 383.656 796.444 386.756C796.444 386.939 796.581 388.935 796.695 390.192C796.49 389.463 796.308 388.753 796.092 388.004C795.671 386.516 795.205 385.048 794.705 383.464C794.443 382.706 794.159 381.938 793.886 381.161C793.613 380.383 793.25 379.606 792.92 378.819C792.135 377.005 791.237 375.191 790.282 373.387C791.817 373.079 797.263 371.909 799.458 370.507C801.652 369.106 803.937 366.793 803.926 364.336C803.942 363.759 803.815 363.186 803.553 362.654C803.29 362.122 802.898 361.642 802.402 361.245C801.905 360.849 801.316 360.545 800.672 360.353C800.027 360.162 799.343 360.086 798.662 360.132C794.568 360.507 791.021 366.006 790.282 369.048C790.282 369.231 789.986 371.467 789.884 372.696C789.304 371.611 788.747 370.526 788.088 369.452C786.257 366.342 784.29 363.242 782.403 360.151L780.64 357.272C781.197 357.166 787.701 355.89 790.157 354.297C792.329 352.886 794.637 350.582 794.625 348.135C794.643 347.558 794.517 346.984 794.256 346.45C793.994 345.917 793.602 345.436 793.105 345.038C792.609 344.641 792.019 344.336 791.374 344.144C790.729 343.951 790.043 343.876 789.361 343.922C785.268 344.296 781.72 349.795 780.981 352.838C780.981 353.068 780.572 356.274 780.538 357.099C779.253 354.997 777.991 352.905 776.843 350.794C775.282 347.952 773.941 345.028 772.829 342.041C773.079 341.993 779.89 340.687 782.391 339.056C784.574 337.654 786.882 335.341 786.86 332.894C786.88 332.316 786.755 331.741 786.494 331.207C786.232 330.673 785.84 330.191 785.344 329.794C784.847 329.396 784.256 329.091 783.61 328.899C782.964 328.708 782.278 328.633 781.595 328.68C777.514 329.055 773.955 334.554 773.216 337.597C773.216 337.837 772.795 341.292 772.772 341.916C772.772 341.743 772.625 341.57 772.568 341.397C771.547 338.375 770.851 335.282 770.487 332.155C770.248 330.427 770.146 328.767 770.089 327.145C771.385 327.02 777.298 326.348 779.753 325.101C782.209 323.853 784.699 321.818 784.995 319.342C785.088 318.77 785.037 318.188 784.846 317.633C784.655 317.079 784.328 316.565 783.886 316.124C783.444 315.683 782.898 315.326 782.282 315.075C781.666 314.824 780.994 314.685 780.311 314.668C776.195 314.668 771.954 319.803 770.817 322.759C770.817 322.912 770.351 324.601 770.066 325.84C770.066 325.11 770.066 324.352 770.066 323.661C770.066 321.031 770.271 318.622 770.464 316.491C770.589 315.282 770.726 314.198 770.874 313.171C772.067 312.48 776.82 309.648 778.287 307.623C779.753 305.598 780.879 302.824 779.822 300.502C779.591 299.958 779.228 299.462 778.756 299.045C778.284 298.627 777.713 298.299 777.08 298.079C776.448 297.86 775.768 297.756 775.084 297.773C774.401 297.79 773.729 297.929 773.113 298.179C769.464 299.772 768.497 305.992 769.1 309.044C769.1 309.312 770.532 313.363 770.601 313.334L770.669 313.286C770.51 314.246 770.351 315.32 770.203 316.472C769.953 318.603 769.691 321.012 769.623 323.651C769.509 326.491 769.588 329.333 769.862 332.164C770.151 335.337 770.775 338.482 771.726 341.561C771.726 341.561 771.726 341.637 771.726 341.676C771.078 340.812 769.168 338.47 768.997 338.297C766.598 335.956 760.322 332.616 756.491 333.969C755.869 334.21 755.314 334.558 754.862 334.991C754.41 335.425 754.072 335.934 753.868 336.485C753.664 337.036 753.6 337.617 753.68 338.191C753.759 338.764 753.981 339.317 754.33 339.814C755.524 342.05 758.856 343.106 761.584 343.442Z" fill="#92E3A9"/>
<path d="M832.161 327.124C832.161 327.124 833.469 323.074 833.514 322.805C834.026 319.734 832.866 313.544 829.159 312.037C828.536 311.8 827.86 311.676 827.176 311.674C826.492 311.672 825.815 311.792 825.19 312.025C824.564 312.259 824.004 312.601 823.546 313.03C823.088 313.459 822.742 313.964 822.531 314.513C821.542 316.817 822.792 319.648 824.293 321.587C826.044 323.871 832.15 327.124 832.161 327.124Z" fill="#92E3A9"/>
<path d="M100.176 325.78C103.132 326.874 110.409 326.74 110.409 326.74C110.409 326.74 108.851 322.747 108.715 322.507C107.135 319.714 102.12 315.088 98.0386 315.559C97.3646 315.651 96.7213 315.862 96.1505 316.179C95.5798 316.495 95.0946 316.91 94.7266 317.395C94.3585 317.881 94.1159 318.426 94.0146 318.996C93.9134 319.566 93.9557 320.148 94.1388 320.703C94.7641 323.083 97.6634 324.849 100.176 325.78Z" fill="#92E3A9"/>
<path d="M102.679 343.441C105.738 343.825 112.184 342.241 112.696 342.117C113.76 345.219 115.066 348.259 116.607 351.215C117.494 352.952 118.449 354.67 119.438 356.388C118.847 355.659 118.301 355.016 118.233 354.93C115.823 352.588 109.547 349.248 105.726 350.601C105.105 350.842 104.55 351.19 104.098 351.624C103.646 352.057 103.307 352.566 103.103 353.117C102.9 353.668 102.836 354.25 102.915 354.823C102.995 355.397 103.217 355.95 103.566 356.446C104.964 358.596 108.319 359.661 111.025 359.988C113.731 360.314 119.313 359.076 120.769 358.73C121.155 359.383 121.53 360.045 121.906 360.698C123.77 363.836 125.646 366.956 127.375 370.075C127.989 371.169 128.512 372.263 129.103 373.367C128.58 372.714 128.136 372.177 128.057 372.1C125.646 369.758 119.37 366.418 115.55 367.771C114.928 368.012 114.373 368.36 113.921 368.794C113.47 369.227 113.131 369.736 112.927 370.288C112.723 370.839 112.659 371.42 112.739 371.993C112.819 372.567 113.04 373.12 113.39 373.616C114.788 375.766 118.142 376.822 120.86 377.158C123.577 377.494 128.603 376.371 130.331 375.958C130.865 377.1 131.4 378.242 131.854 379.365C132.15 380.133 132.491 380.863 132.73 381.65C132.969 382.437 133.241 383.204 133.492 383.963C133.912 385.45 134.367 386.976 134.731 388.435C134.992 389.443 135.231 390.412 135.459 391.391C134.867 390.288 133.651 388.166 133.526 387.994C131.57 385.364 125.965 381.275 121.974 382.12C121.316 382.287 120.707 382.569 120.186 382.948C119.666 383.327 119.247 383.795 118.956 384.321C118.665 384.846 118.509 385.418 118.498 385.998C118.487 386.578 118.622 387.153 118.893 387.687C119.882 389.99 123.009 391.468 125.635 392.149C128.523 392.889 134.913 392.207 135.72 392.149C136.095 393.762 136.459 395.336 136.766 396.824C136.994 397.927 137.198 398.983 137.391 400H139.961C139.711 398.868 139.449 397.687 139.154 396.449C138.779 394.808 138.335 393.061 137.858 391.267C139.783 390.623 141.659 389.88 143.474 389.04C145.589 390.959 150.979 393.215 151.683 393.503C150.944 395.029 150.217 396.507 149.5 397.889C149.125 398.618 148.75 399.309 148.363 400H151.069C151.286 399.569 151.502 399.137 151.718 398.686C152.479 397.14 153.241 395.48 153.992 393.762C154.765 393.896 161.098 394.99 164.054 394.424C166.726 393.915 169.966 392.639 171.171 390.403C171.475 389.885 171.646 389.319 171.673 388.742C171.7 388.165 171.582 387.59 171.328 387.054C171.074 386.517 170.688 386.033 170.197 385.631C169.706 385.229 169.12 384.919 168.477 384.721C164.577 383.617 158.63 387.351 156.447 389.846C156.311 390 155.129 391.766 154.401 392.831C154.719 392.121 155.026 391.449 155.333 390.719C155.959 389.289 156.47 387.84 157.152 386.285C157.414 385.527 157.687 384.769 157.96 383.991C158.233 383.214 158.449 382.389 158.699 381.582C159.233 379.663 159.654 377.743 160.04 375.824C161.53 376.285 166.862 377.839 169.58 377.676C172.297 377.513 175.754 376.668 177.345 374.615C177.738 374.142 178.009 373.605 178.14 373.038C178.27 372.472 178.258 371.888 178.103 371.326C177.949 370.763 177.656 370.235 177.243 369.775C176.83 369.314 176.307 368.933 175.708 368.654C172.047 367.061 165.475 369.998 162.883 372.186C162.724 372.321 161.064 374.106 160.177 375.066C160.393 373.885 160.62 372.724 160.791 371.524C161.302 368.078 161.689 364.585 162.087 361.091C162.212 360.026 162.348 358.961 162.485 357.895C163.008 358.058 169.307 360.026 172.354 359.815C175.094 359.661 178.528 358.855 180.108 356.753C180.501 356.281 180.772 355.744 180.903 355.177C181.033 354.61 181.021 354.027 180.866 353.464C180.712 352.902 180.419 352.373 180.006 351.913C179.593 351.453 179.07 351.071 178.471 350.793C174.821 349.2 168.238 352.137 165.657 354.325C165.464 354.488 163.076 357.003 162.508 357.675C162.803 355.323 163.122 352.991 163.542 350.697C164.099 347.598 164.893 344.534 165.919 341.522C166.157 341.598 172.684 343.681 175.845 343.489C178.573 343.336 182.018 342.481 183.599 340.427C183.99 339.955 184.259 339.418 184.389 338.851C184.519 338.285 184.506 337.702 184.351 337.14C184.197 336.578 183.905 336.05 183.493 335.589C183.081 335.129 182.559 334.747 181.962 334.467C178.3 332.874 171.729 335.811 169.148 337.999C168.943 338.172 166.373 340.879 165.953 341.397C166.01 341.224 166.055 341.042 166.112 340.869C167.243 337.872 168.685 334.966 170.421 332.183C171.353 330.638 172.354 329.208 173.366 327.826C174.503 328.325 179.904 330.523 182.757 330.619C185.611 330.715 189.022 330.187 190.876 328.286C191.326 327.853 191.663 327.344 191.866 326.793C192.068 326.242 192.131 325.661 192.051 325.089C191.97 324.516 191.748 323.964 191.399 323.468C191.05 322.972 190.581 322.544 190.023 322.211C186.612 320.291 179.688 322.605 176.822 324.534C176.663 324.639 175.219 325.858 174.173 326.76C174.639 326.146 175.105 325.503 175.572 324.918C177.288 322.729 178.983 320.819 180.574 319.159C181.473 318.199 182.303 317.364 183.087 316.577C184.531 316.577 190.353 316.404 192.899 315.397C195.446 314.389 198.22 312.575 198.823 310.175C198.987 309.616 199.01 309.033 198.89 308.465C198.769 307.897 198.509 307.357 198.125 306.88C197.741 306.403 197.242 305.999 196.661 305.696C196.08 305.392 195.43 305.195 194.753 305.118C190.659 304.743 185.805 309.475 184.304 312.306C184.179 312.556 182.678 316.577 182.757 316.577H182.837C182.064 317.326 181.245 318.122 180.37 319.015C178.767 320.675 176.959 322.566 175.196 324.726C173.274 327.017 171.505 329.398 169.898 331.857C168.076 334.641 166.554 337.557 165.35 340.571V340.677C165.35 339.66 165.35 336.838 165.282 336.598C164.804 333.527 161.757 327.816 157.709 327.183C157.036 327.092 156.348 327.121 155.689 327.27C155.03 327.418 154.416 327.682 153.886 328.044C153.356 328.406 152.923 328.859 152.614 329.372C152.305 329.885 152.127 330.447 152.093 331.022C151.854 333.46 153.957 335.907 156.004 337.452C158.278 339.189 164.713 340.879 165.225 341.013C164.077 344.104 163.173 347.256 162.519 350.447C162.121 352.309 161.803 354.191 161.496 356.081C161.496 355.198 161.496 354.411 161.496 354.306C161.018 351.225 157.96 345.514 153.912 344.881C153.239 344.793 152.552 344.825 151.895 344.974C151.238 345.124 150.625 345.388 150.096 345.75C149.567 346.111 149.133 346.562 148.823 347.074C148.513 347.585 148.333 348.146 148.295 348.72C148.068 351.167 150.16 353.615 152.206 355.16C154.253 356.705 159.711 358.25 161.155 358.644C161.052 359.364 160.939 360.093 160.836 360.813C160.336 364.307 159.87 367.781 159.279 371.188C159.074 372.388 158.812 373.559 158.562 374.73C158.562 373.952 158.562 373.29 158.562 373.194C158.085 370.123 155.026 364.412 150.99 363.779C150.317 363.688 149.628 363.717 148.97 363.866C148.311 364.014 147.697 364.278 147.167 364.64C146.637 365.002 146.203 365.455 145.894 365.968C145.585 366.481 145.408 367.043 145.373 367.618C145.134 370.056 147.226 372.503 149.273 374.048C151.32 375.593 156.254 376.995 157.971 377.465C157.664 378.655 157.368 379.855 157.016 381.007C156.754 381.784 156.561 382.552 156.243 383.329C155.924 384.107 155.663 384.855 155.367 385.604C154.753 387.044 154.128 388.483 153.48 389.913C153.048 390.873 152.604 391.833 152.161 392.716C152.388 391.526 152.764 389.184 152.764 388.992C152.72 386.26 151.847 383.583 150.228 381.218C150.239 380.916 150.216 380.614 150.16 380.316C150.076 379.743 149.85 379.192 149.497 378.698C149.144 378.204 148.671 377.778 148.11 377.449C147.549 377.119 146.912 376.893 146.241 376.785C145.569 376.677 144.879 376.69 144.213 376.822C140.234 377.715 137.71 383.608 137.528 386.708C137.528 386.89 137.653 388.886 137.767 390.144C137.562 389.414 137.38 388.704 137.164 387.955C136.743 386.468 136.277 384.999 135.788 383.416C135.515 382.657 135.243 381.89 134.958 381.112C134.674 380.335 134.322 379.557 134.003 378.77C133.219 376.956 132.309 375.142 131.354 373.338C132.9 373.031 138.347 371.86 140.53 370.459C142.713 369.057 145.021 366.744 144.998 364.287C145.014 363.711 144.887 363.138 144.625 362.605C144.362 362.073 143.97 361.593 143.474 361.197C142.977 360.801 142.388 360.497 141.744 360.305C141.099 360.113 140.415 360.038 139.734 360.084C135.641 360.458 132.093 365.957 131.354 369C131.354 369.182 131.058 371.418 130.956 372.647C130.376 371.562 129.819 370.478 129.16 369.403C127.329 366.293 125.373 363.193 123.475 360.103C122.872 359.143 122.338 358.183 121.712 357.223C122.258 357.118 128.762 355.841 131.218 354.248C133.389 352.837 135.766 350.534 135.686 348.086C135.704 347.509 135.578 346.935 135.316 346.402C135.054 345.868 134.663 345.387 134.166 344.99C133.67 344.592 133.08 344.287 132.435 344.095C131.79 343.903 131.104 343.827 130.422 343.873C126.329 344.247 122.781 349.747 122.042 352.789C121.985 353.02 121.644 356.225 121.599 357.051C120.314 354.949 119.052 352.857 117.903 350.745C116.343 347.904 115.002 344.98 113.89 341.992C114.151 341.944 120.951 340.639 123.452 339.007C125.635 337.606 127.943 335.293 127.92 332.845C127.94 332.268 127.816 331.695 127.555 331.161C127.295 330.627 126.904 330.146 126.408 329.749C125.913 329.351 125.323 329.046 124.679 328.854C124.034 328.661 123.349 328.586 122.667 328.632C118.574 329.006 115.027 334.506 114.276 337.548C114.22 337.788 113.856 341.243 113.844 341.867C113.776 341.694 113.685 341.522 113.628 341.349C112.614 338.326 111.917 335.233 111.548 332.106C111.32 330.379 111.207 328.718 111.15 327.096C112.446 326.971 118.37 326.3 120.814 325.052C123.259 323.804 125.76 321.77 126.056 319.293C126.128 318.715 126.054 318.13 125.84 317.578C125.625 317.025 125.274 316.517 124.81 316.088C124.346 315.658 123.779 315.316 123.147 315.084C122.516 314.853 121.833 314.737 121.144 314.744C117.039 314.744 112.787 319.879 111.661 322.835C111.593 322.988 111.184 324.678 110.9 325.916C110.9 325.186 110.9 324.428 110.9 323.737C110.9 321.107 111.093 318.698 111.298 316.568C111.411 315.358 111.559 314.274 111.695 313.247C112.832 312.556 117.653 309.724 119.109 307.699C120.564 305.674 121.712 302.9 120.644 300.578C120.413 300.034 120.05 299.538 119.578 299.121C119.106 298.703 118.535 298.375 117.902 298.156C117.27 297.937 116.59 297.832 115.906 297.849C115.223 297.867 114.551 298.005 113.935 298.255C110.286 299.848 109.319 306.068 109.922 309.12C109.979 309.389 111.354 313.439 111.423 313.41L111.491 313.362C111.332 314.322 111.172 315.397 111.025 316.548C110.775 318.679 110.513 321.088 110.445 323.727C110.331 326.567 110.41 329.409 110.684 332.241C110.967 335.406 111.583 338.544 112.525 341.618V341.733C111.877 340.869 109.979 338.527 109.808 338.354C107.398 336.013 101.121 332.673 97.3012 334.026C96.6794 334.267 96.1246 334.615 95.6728 335.048C95.2209 335.482 94.8821 335.991 94.6784 336.542C94.4747 337.093 94.4106 337.674 94.4902 338.248C94.5699 338.821 94.7916 339.374 95.1409 339.871C96.6076 342.049 99.9617 343.105 102.679 343.441Z" fill="#92E3A9"/>
<path d="M173.24 327.124C173.308 327.124 174.558 323.074 174.593 322.805C175.104 319.734 173.945 313.544 170.238 312.037C169.614 311.8 168.939 311.676 168.255 311.674C167.571 311.672 166.894 311.792 166.268 312.025C165.643 312.259 165.083 312.601 164.625 313.03C164.166 313.459 163.82 313.964 163.609 314.513C162.62 316.817 163.882 319.648 165.372 321.587C167.123 323.871 173.24 327.124 173.24 327.124Z" fill="#92E3A9"/>
<path d="M182.537 49.8945H753.819C756.973 49.8945 759.998 50.9522 762.228 52.8349C764.458 54.7177 765.711 57.2712 765.711 59.9337V375.938H170.645V59.9337C170.645 57.2712 171.898 54.7177 174.128 52.8349C176.358 50.9522 179.383 49.8945 182.537 49.8945Z" fill="#263238" stroke="#263238" stroke-miterlimit="10"/>
<path d="M741.24 72.0469H194.961V344.794H741.24V72.0469Z" fill="white" stroke="#263238" stroke-linecap="round" stroke-linejoin="round"/>
<path d="M387.567 153.953H205.637V176.882H387.567V153.953Z" fill="white" stroke="#263238" stroke-linecap="round" stroke-linejoin="round"/>
<path d="M387.567 269.904H205.637V292.833H387.567V269.904Z" fill="white" stroke="#263238" stroke-linecap="round" stroke-linejoin="round"/>
<path d="M575.875 153.953H393.945V176.882H575.875V153.953Z" fill="white" stroke="#263238" stroke-linecap="round" stroke-linejoin="round"/>
<path d="M387.567 239.979H205.637V262.907H387.567V239.979Z" fill="white" stroke="#263238" stroke-linecap="round" stroke-linejoin="round"/>
<path d="M575.875 239.979H393.945V262.907H575.875V239.979Z" fill="white" stroke="#263238" stroke-linecap="round" stroke-linejoin="round"/>
<path d="M575.091 182.623H205.637V205.552H575.091V182.623Z" fill="white" stroke="#263238" stroke-linecap="round" stroke-linejoin="round"/>
<path d="M575.091 211.291H205.637V234.22H575.091V211.291Z" fill="white" stroke="#263238" stroke-linecap="round" stroke-linejoin="round"/>
<path d="M212.622 122.512C214.794 122.512 215.794 123.625 215.794 125.449V131.428C215.794 133.223 214.794 134.307 212.622 134.307H209.348V122.512H212.622ZM212.622 133.069C213.759 133.069 214.282 132.474 214.282 131.399V125.333C214.282 124.258 213.736 123.673 212.599 123.673H210.928V133.069H212.622Z" fill="#263238"/>
<path d="M222.203 127.733V128.913H218.792V133.108H222.988V134.307H217.246V122.512H222.988V123.75H218.792V127.771L222.203 127.733Z" fill="#263238"/>
<path d="M224.418 134.307V122.512H225.976V133.069H229.921V134.307H224.418Z" fill="#263238"/>
<path d="M232.702 122.512V134.307H231.145V122.512H232.702Z" fill="#263238"/>
<path d="M235.46 122.512L237.734 132.772L240.008 122.512H241.441L238.815 134.307H236.541L233.914 122.521L235.46 122.512Z" fill="#263238"/>
<path d="M247.598 127.733V128.913H244.187V133.108H248.371V134.307H242.629V122.512H248.371V123.75H244.187V127.771L247.598 127.733Z" fill="#263238"/>
<path d="M252.915 122.512C255.109 122.512 256.019 123.471 256.019 125.209V126.168C256.019 127.464 255.484 128.27 254.29 128.597C255.564 128.913 256.041 129.787 256.041 131.054V132.887C255.994 133.37 256.092 133.855 256.326 134.298H254.745C254.523 133.846 254.433 133.355 254.484 132.868V131.015C254.484 129.691 253.745 129.268 252.449 129.268H251.312V134.307H249.754V122.512H252.915ZM252.517 128.069C253.745 128.069 254.484 127.733 254.484 126.456V125.324C254.484 124.268 254.029 123.711 252.869 123.711H251.357V128.069H252.517Z" fill="#263238"/>
<path d="M259.933 130.075L256.977 122.512H258.602L260.774 128.27L262.969 122.512H264.435L261.468 130.075V134.307H259.933V130.075Z" fill="#263238"/>
<path d="M270.221 131.927L269.72 134.307H268.242L270.914 122.521H273.188L275.849 134.307H274.268L273.722 131.937L270.221 131.927ZM270.414 130.795H273.529L271.994 124L270.414 130.795Z" fill="#263238"/>
<path d="M280.329 122.512C282.501 122.512 283.501 123.625 283.501 125.449V131.428C283.501 133.223 282.501 134.307 280.329 134.307H277.055V122.512H280.329ZM280.329 133.069C281.466 133.069 281.989 132.474 281.989 131.399V125.333C281.989 124.258 281.455 123.673 280.318 123.673H278.635V133.069H280.329Z" fill="#263238"/>
<path d="M288.22 122.512C290.403 122.512 291.392 123.625 291.392 125.449V131.428C291.392 133.223 290.403 134.307 288.22 134.307H284.957V122.512H288.22ZM288.22 133.069C289.357 133.069 289.869 132.474 289.869 131.399V125.333C289.869 124.258 289.334 123.673 288.197 123.673H286.526V133.069H288.22Z" fill="#263238"/>
<path d="M295.962 122.512C298.156 122.512 299.066 123.471 299.066 125.209V126.168C299.066 127.464 298.531 128.27 297.337 128.597C298.611 128.913 299.088 129.787 299.088 131.054V132.887C299.041 133.37 299.139 133.855 299.373 134.298H297.792C297.57 133.846 297.48 133.355 297.531 132.868V131.015C297.531 129.691 296.792 129.268 295.495 129.268H294.358V134.307H292.801V122.512H295.962ZM295.564 128.069C296.792 128.069 297.531 127.733 297.531 126.456V125.324C297.531 124.268 297.076 123.711 295.916 123.711H294.404V128.069H295.564Z" fill="#263238"/>
<path d="M305.668 127.733V128.913H302.257V133.108H306.441V134.307H300.699V122.512H306.441V123.75H302.257V127.771L305.668 127.733Z" fill="#263238"/>
<path d="M313.925 125.343V125.669H312.447V125.286C312.447 124.22 311.969 123.606 310.855 123.606C309.741 123.606 309.252 124.22 309.252 125.266C309.252 127.915 313.948 128.146 313.948 131.476C313.948 133.261 312.924 134.423 310.798 134.423C308.672 134.423 307.66 133.261 307.66 131.476V130.804H309.116V131.543C309.116 132.609 309.639 133.232 310.753 133.232C311.867 133.232 312.39 132.609 312.39 131.543C312.39 128.923 307.717 128.664 307.717 125.353C307.717 123.539 308.718 122.406 310.81 122.406C312.902 122.406 313.925 123.558 313.925 125.343Z" fill="#263238"/>
<path d="M321.339 125.343V125.669H319.861V125.286C319.861 124.22 319.383 123.606 318.269 123.606C317.155 123.606 316.677 124.22 316.677 125.266C316.677 127.915 321.362 128.146 321.362 131.476C321.362 133.261 320.338 134.423 318.212 134.423C316.086 134.423 315.074 133.261 315.074 131.476V130.804H316.53V131.543C316.53 132.609 317.053 133.232 318.167 133.232C319.281 133.232 319.804 132.609 319.804 131.543C319.804 128.923 315.142 128.664 315.142 125.353C315.142 123.539 316.132 122.406 318.235 122.406C320.338 122.406 321.339 123.558 321.339 125.343Z" fill="#263238"/>
<path d="M216.504 165.019V165.979H213.934V170.058H212.684V160.623H217.129V161.583H213.934V165.019H216.504Z" fill="#50B364"/>
<path d="M219.364 160.662V170.097H218.113V160.662H219.364Z" fill="#50B364"/>
<path d="M223.103 160.662C224.854 160.662 225.593 161.42 225.593 162.821V163.589C225.662 163.995 225.562 164.409 225.308 164.759C225.055 165.11 224.666 165.375 224.206 165.509C225.229 165.768 225.605 166.468 225.605 167.476V168.945C225.571 169.332 225.649 169.721 225.832 170.077H224.57C224.393 169.713 224.323 169.318 224.365 168.925V167.447C224.365 166.382 223.774 166.046 222.739 166.046H221.864V170.077H220.613V160.643L223.103 160.662ZM222.785 165.106C223.774 165.106 224.365 164.837 224.365 163.819V162.917C224.365 162.063 224.002 161.622 223.069 161.622H221.864V165.106H222.785Z" fill="#50B364"/>
<path d="M231.754 162.928V163.187H230.617V162.88C230.617 162.026 230.23 161.527 229.343 161.527C228.457 161.527 228.07 162.026 228.07 162.861C228.07 164.972 231.811 165.183 231.811 167.832C231.811 169.262 231.003 170.193 229.298 170.193C227.592 170.193 226.785 169.233 226.785 167.832V167.295H227.922V167.899C227.922 168.744 228.331 169.243 229.23 169.243C230.128 169.243 230.537 168.744 230.537 167.899C230.537 165.797 226.808 165.596 226.808 162.937C226.808 161.488 227.604 160.586 229.275 160.586C230.947 160.586 231.754 161.498 231.754 162.928Z" fill="#50B364"/>
<path d="M234.472 170.097V161.622H232.414V160.662H237.769V161.622H235.7V170.097H234.472Z" fill="#50B364"/>
<path d="M242.172 170.097H241.035V160.662H242.616L245.197 167.476V160.662H246.334V170.097H245.037L242.184 162.466L242.172 170.097Z" fill="#50B364"/>
<path d="M248.858 168.197L248.426 170.116H247.289L249.427 160.682H251.234L253.372 170.116H252.121L251.689 168.197H248.858ZM249.017 167.294H251.53L250.268 161.853L249.017 167.294Z" fill="#50B364"/>
<path d="M258.441 170.077H257.213L255.36 162.582V170.097H254.223V160.662H256.076L257.918 168.196L259.692 160.662H261.431V170.097H260.294V162.514L258.441 170.077Z" fill="#50B364"/>
<path d="M266.639 164.837V165.797H263.91V169.147H267.321V170.106H262.773V160.672H267.321V161.632H263.91V164.847L266.639 164.837Z" fill="#50B364"/>
<path d="M401.199 170.097V160.662H402.439V169.137H405.633V170.097H401.199Z" fill="#50B364"/>
<path d="M407.831 168.197L407.399 170.116H406.262L408.399 160.682H410.207L412.345 170.116H411.094L410.673 168.197H407.831ZM407.99 167.294H410.48L409.218 161.853L407.99 167.294Z" fill="#50B364"/>
<path d="M418.133 162.928V163.187H416.996V162.88C416.996 162.026 416.609 161.527 415.711 161.527C414.813 161.527 414.437 162.026 414.437 162.861C414.437 164.972 418.19 165.183 418.19 167.832C418.19 169.262 417.371 170.193 415.665 170.193C413.96 170.193 413.164 169.233 413.164 167.832V167.295H414.301V167.899C414.301 168.744 414.722 169.243 415.609 169.243C416.495 169.243 416.916 168.744 416.916 167.899C416.916 165.797 413.187 165.596 413.187 162.937C413.187 161.488 413.983 160.586 415.665 160.586C417.348 160.586 418.133 161.498 418.133 162.928Z" fill="#50B364"/>
<path d="M420.847 170.097V161.622H418.789V160.662H424.133V161.622H422.075V170.097H420.847Z" fill="#50B364"/>
<path d="M428.547 170.097H427.41V160.662H428.991L431.583 167.476V160.662H432.72V170.097H431.435L428.57 162.466L428.547 170.097Z" fill="#50B364"/>
<path d="M435.233 168.197L434.801 170.116H433.664L435.802 160.682H437.609L439.747 170.116H438.508L438.076 168.197H435.233ZM435.392 167.294H437.882L436.62 161.853L435.392 167.294Z" fill="#50B364"/>
<path d="M444.817 170.077H443.68L441.826 162.582V170.097H440.746V160.662H442.486L444.316 168.196L446.09 160.662H447.83V170.097H446.693V162.514L444.817 170.077Z" fill="#50B364"/>
<path d="M453.024 164.837V165.797H450.295V169.147H453.638V170.106H449.09V160.672H453.638V161.632H450.295V164.847L453.024 164.837Z" fill="#50B364"/>
<path d="M214.268 196.156L213.836 198.075H212.699L214.848 188.65H216.645L218.782 198.075H217.531L217.099 196.156H214.268ZM214.427 195.254H216.917L215.655 189.812L214.427 195.254Z" fill="#50B364"/>
<path d="M222.361 188.631C224.101 188.631 224.897 189.523 224.897 190.973V195.772C224.897 197.211 224.101 198.094 222.361 198.094H219.746V188.631H222.361ZM222.361 197.106C223.259 197.106 223.691 196.635 223.691 195.772V190.973C223.691 190.109 223.259 189.639 222.35 189.639H221.008V197.154L222.361 197.106Z" fill="#50B364"/>
<path d="M228.674 188.631C230.413 188.631 231.209 189.523 231.209 190.973V195.772C231.209 197.211 230.413 198.094 228.674 198.094H226.059V188.631H228.674ZM228.674 197.106C229.561 197.106 229.993 196.635 229.993 195.772V190.973C229.993 190.109 229.561 189.639 228.651 189.639H227.309V197.154L228.674 197.106Z" fill="#50B364"/>
<path d="M234.873 188.631C236.624 188.631 237.351 189.389 237.351 190.79V191.558C237.351 192.595 236.931 193.238 235.964 193.478C236.988 193.727 237.374 194.437 237.374 195.397V196.866C237.335 197.252 237.409 197.641 237.59 197.998H236.34C236.157 197.638 236.083 197.246 236.124 196.856V195.378C236.124 194.313 235.532 193.977 234.498 193.977H233.622V197.998H232.383V188.631H234.873ZM234.543 193.075C235.532 193.075 236.124 192.806 236.124 191.779V190.877C236.124 190.032 235.76 189.591 234.839 189.591H233.622V193.075H234.543Z" fill="#50B364"/>
<path d="M242.634 192.854V193.814H239.905V197.173H243.259V198.133H238.711V188.631H243.259V189.591H239.905V192.854H242.634Z" fill="#50B364"/>
<path d="M249.254 190.933V191.183H248.117V190.876C248.117 190.031 247.73 189.532 246.832 189.532C245.934 189.532 245.559 190.031 245.559 190.866C245.559 192.978 249.311 193.179 249.311 195.838C249.311 197.258 248.492 198.189 246.787 198.189C245.081 198.189 244.285 197.229 244.285 195.838V195.291H245.422V195.886C245.422 196.74 245.843 197.239 246.73 197.239C247.617 197.239 248.049 196.74 248.049 195.886C248.049 193.784 244.308 193.582 244.308 190.933C244.308 189.474 245.104 188.572 246.787 188.572C248.469 188.572 249.254 189.465 249.254 190.933Z" fill="#50B364"/>
<path d="M255.164 190.933V191.183H254.027V190.876C254.027 190.031 253.64 189.532 252.742 189.532C251.844 189.532 251.469 190.031 251.469 190.866C251.469 192.978 255.221 193.179 255.221 195.838C255.221 197.258 254.402 198.189 252.697 198.189C250.991 198.189 250.195 197.229 250.195 195.838V195.291H251.332V195.886C251.332 196.74 251.753 197.239 252.64 197.239C253.527 197.239 253.947 196.74 253.947 195.886C253.947 193.784 250.218 193.582 250.218 190.933C250.218 189.474 251.014 188.572 252.697 188.572C254.379 188.572 255.164 189.465 255.164 190.933Z" fill="#50B364"/>
<path d="M258.746 198.056V188.631H259.985V197.106H263.18V198.065L258.746 198.056Z" fill="#50B364"/>
<path d="M265.364 188.631V198.056H264.113V188.631H265.364Z" fill="#50B364"/>
<path d="M267.739 198.056H266.602V188.631H268.171L270.763 195.445V188.631H271.9V198.056H270.604L267.75 190.435L267.739 198.056Z" fill="#50B364"/>
<path d="M277.134 192.854V193.814H274.405V197.173H277.759V198.133H273.211V188.631H277.759V189.591H274.405V192.854H277.134Z" fill="#50B364"/>
<path d="M283.66 190.339C283.194 190.584 282.661 190.723 282.113 190.742V189.888C282.554 189.895 282.985 189.775 283.333 189.546C283.68 189.317 283.924 188.994 284.023 188.631H284.888V198.056H283.66V190.339Z" fill="#50B364"/>
<path d="M214.268 226.445L213.836 228.364H212.699L214.848 218.939H216.645L218.782 228.364H217.531L217.099 226.445H214.268ZM214.427 225.543H216.917L215.655 220.101L214.427 225.543Z" fill="#50B364"/>
<path d="M222.361 218.939C224.101 218.939 224.897 219.822 224.897 221.281V226.032C224.897 227.472 224.101 228.364 222.361 228.364H219.746V218.939H222.361ZM222.361 227.405C223.259 227.405 223.691 226.934 223.691 226.071V221.224C223.691 220.36 223.259 219.89 222.35 219.89H221.008V227.405H222.361Z" fill="#50B364"/>
<path d="M228.674 218.939C230.413 218.939 231.209 219.822 231.209 221.281V226.032C231.209 227.472 230.413 228.364 228.674 228.364H226.059V218.939H228.674ZM228.674 227.405C229.561 227.405 229.993 226.934 229.993 226.071V221.224C229.993 220.36 229.561 219.89 228.651 219.89H227.309V227.405H228.674Z" fill="#50B364"/>
<path d="M234.873 218.939C236.624 218.939 237.351 219.688 237.351 221.089V221.857C237.351 222.894 236.931 223.546 235.964 223.777C236.988 224.036 237.374 224.736 237.374 225.744V227.213C237.337 227.599 237.411 227.988 237.59 228.345H236.34C236.157 227.985 236.083 227.593 236.124 227.203V225.715C236.124 224.65 235.532 224.314 234.498 224.314H233.622V228.364H232.383V218.939H234.873ZM234.543 223.383C235.532 223.383 236.124 223.114 236.124 222.087V221.185C236.124 220.331 235.76 219.89 234.839 219.89H233.622V223.383H234.543Z" fill="#50B364"/>
<path d="M242.634 223.114V224.074H239.905V227.405H243.259V228.364H238.711V218.939H243.259V219.899H239.905V223.124L242.634 223.114Z" fill="#50B364"/>
<path d="M249.254 221.195V221.454H248.117V221.147C248.117 220.293 247.73 219.794 246.832 219.794C245.934 219.794 245.559 220.293 245.559 221.128C245.559 223.249 249.311 223.451 249.311 226.1C249.311 227.53 248.492 228.461 246.787 228.461C245.081 228.461 244.285 227.501 244.285 226.1V225.562H245.422V226.157C245.422 227.002 245.843 227.501 246.73 227.501C247.617 227.501 248.049 227.002 248.049 226.157C248.049 224.055 244.308 223.854 244.308 221.195C244.308 219.746 245.104 218.844 246.787 218.844C248.469 218.844 249.254 219.775 249.254 221.195Z" fill="#50B364"/>
<path d="M255.164 221.195V221.454H254.027V221.147C254.027 220.293 253.64 219.794 252.742 219.794C251.844 219.794 251.469 220.293 251.469 221.128C251.469 223.249 255.221 223.451 255.221 226.1C255.221 227.53 254.402 228.461 252.697 228.461C250.991 228.461 250.195 227.501 250.195 226.1V225.562H251.332V226.157C251.332 227.002 251.753 227.501 252.64 227.501C253.527 227.501 253.947 227.002 253.947 226.157C253.947 224.055 250.218 223.854 250.218 221.195C250.218 219.746 251.014 218.844 252.697 218.844C254.379 218.844 255.164 219.775 255.164 221.195Z" fill="#50B364"/>
<path d="M258.746 228.364V218.939H259.985V227.405H263.18V228.364H258.746Z" fill="#50B364"/>
<path d="M265.364 218.939V228.364H264.113V218.939H265.364Z" fill="#50B364"/>
<path d="M267.739 228.364H266.602V218.939H268.171L270.763 225.754V218.939H271.9V228.364H270.604L267.75 220.744L267.739 228.364Z" fill="#50B364"/>
<path d="M277.134 223.114V224.074H274.405V227.405H277.759V228.364H273.211V218.939H277.759V219.899H274.405V223.124L277.134 223.114Z" fill="#50B364"/>
<path d="M286.397 221.224C286.397 224.103 282.622 225.063 282.599 227.261V227.405H286.272V228.365H281.371V227.558C281.371 224.516 285.157 223.921 285.157 221.262C285.157 220.303 284.771 219.784 283.85 219.784C282.929 219.784 282.542 220.331 282.542 221.176V222.011H281.405V221.243C281.405 219.794 282.19 218.844 283.907 218.844C285.623 218.844 286.397 219.784 286.397 221.224Z" fill="#50B364"/>
<path d="M214.753 256.196V247.731H212.684V246.771H218.039V247.731H215.981V256.196H214.753Z" fill="#50B364"/>
<path d="M218.785 249.056C218.785 247.617 219.638 246.686 221.343 246.686C223.049 246.686 223.913 247.645 223.913 249.056V253.932C223.966 254.236 223.938 254.547 223.831 254.841C223.724 255.135 223.541 255.405 223.295 255.632C223.049 255.859 222.746 256.037 222.409 256.153C222.071 256.269 221.707 256.32 221.343 256.302C219.638 256.302 218.785 255.343 218.785 253.932V249.056ZM220.013 253.989C220.013 254.853 220.445 255.352 221.343 255.352C222.242 255.352 222.662 254.853 222.662 253.989V249.008C222.662 248.154 222.253 247.645 221.343 247.645C220.434 247.645 220.013 248.154 220.013 249.008V253.989Z" fill="#50B364"/>
<path d="M228.061 256.196H226.344L224.82 246.771H226.026L227.333 254.795L228.584 246.781H229.812L231.04 254.814L232.302 246.771H233.336L231.87 256.196H230.221L229.152 249.804L228.061 256.196Z" fill="#50B364"/>
<path d="M235.485 256.196H234.348V246.771H235.928L238.509 253.586V246.771H239.646V256.196H238.338L235.485 248.576V256.196Z" fill="#50B364"/>
<path d="M246.014 246.781L241.614 256.196H240.477L244.888 246.771L246.014 246.781Z" fill="#50B364"/>
<path d="M251.834 249.056V249.91H250.697V249.008C250.697 248.154 250.299 247.645 249.39 247.645C248.48 247.645 248.082 248.154 248.082 249.008V253.989C248.082 254.834 248.503 255.352 249.39 255.352C250.276 255.352 250.697 254.834 250.697 253.989V252.761H251.834V253.932C251.834 255.362 251.038 256.302 249.321 256.302C247.604 256.302 246.809 255.343 246.809 253.932V249.056C246.809 247.626 247.604 246.686 249.321 246.686C251.038 246.686 251.834 247.626 251.834 249.056Z" fill="#50B364"/>
<path d="M254.212 246.781V256.196H252.973V246.771L254.212 246.781Z" fill="#50B364"/>
<path d="M257.097 256.196V247.731H255.039V246.771H260.383V247.731H258.348V256.196H257.097Z" fill="#50B364"/>
<path d="M263.205 252.83L260.852 246.783H262.136L263.876 251.419L265.638 246.783H266.775L264.388 252.83V256.199H263.16L263.205 252.83Z" fill="#50B364"/>
<path d="M215.143 277.639C216.905 277.639 217.644 278.512 217.644 279.942V281.075C217.644 282.572 216.825 283.349 215.052 283.349H213.915V287.073H212.664V277.639H215.143ZM215.052 282.438C215.973 282.438 216.416 282.073 216.416 281.171V279.923C216.416 279.059 216.052 278.627 215.143 278.627H213.949V282.466L215.052 282.438Z" fill="#50B364"/>
<path d="M219.853 282.831V287.073H218.613V277.639H219.853V281.881H222.604V277.639H223.843V287.073H222.604V282.831H219.853Z" fill="#50B364"/>
<path d="M225.023 279.914C225.023 278.474 225.865 277.543 227.57 277.543C229.276 277.543 230.14 278.503 230.14 279.914V284.789C230.14 286.219 229.299 287.16 227.57 287.16C225.842 287.16 225.023 286.2 225.023 284.789V279.914ZM226.251 284.847C226.251 285.711 226.683 286.21 227.57 286.21C228.457 286.21 228.901 285.711 228.901 284.847V279.866C228.901 279.011 228.48 278.503 227.57 278.503C226.661 278.503 226.251 279.011 226.251 279.866V284.847Z" fill="#50B364"/>
<path d="M232.426 287.073H231.289V277.639H232.869L235.45 284.453V277.639H236.587V287.073H235.291L232.437 279.443L232.426 287.073Z" fill="#50B364"/>
<path d="M241.817 281.814V282.774H239.088V286.133H242.431V287.093H237.883V277.658H242.431V278.618H239.077V281.833L241.817 281.814Z" fill="#50B364"/>
<path d="M247.16 287.073H246.023V277.639H247.604L250.185 284.453V277.639H251.322V287.073H250.026L247.172 279.443L247.16 287.073Z" fill="#50B364"/>
<path d="M253.801 284.847C253.801 285.691 254.199 286.209 255.109 286.209C256.019 286.209 256.405 285.691 256.405 284.847V277.639H257.542V284.789C257.542 286.219 256.758 287.179 255.041 287.179C253.324 287.179 252.551 286.219 252.551 284.789V277.639H253.801V284.847Z" fill="#50B364"/>
<path d="M262.897 287.054H261.76L259.907 279.558V287.073H258.77V277.639H260.498L262.34 285.173L264.113 277.639H265.853V287.073H264.716V279.481L262.897 287.054Z" fill="#50B364"/>
<path d="M269.607 277.639C271.346 277.639 272.029 278.339 272.029 279.731V280.192C272.029 281.151 271.699 281.804 270.721 282.063C271.858 282.322 272.222 283.023 272.222 284.088V284.875C272.28 285.172 272.255 285.475 272.149 285.762C272.043 286.049 271.859 286.311 271.611 286.526C271.363 286.742 271.059 286.906 270.723 287.004C270.387 287.102 270.028 287.133 269.675 287.092H267.105V277.658L269.607 277.639ZM269.3 281.641C270.289 281.641 270.801 281.372 270.801 280.393V279.837C270.801 279.002 270.471 278.598 269.573 278.598H268.345V281.641H269.3ZM269.675 286.113C270.585 286.113 270.994 285.71 270.994 284.837V284.031C270.994 282.975 270.505 282.629 269.436 282.629H268.299V286.142L269.675 286.113Z" fill="#50B364"/>
<path d="M277.327 281.814V282.774H274.598V286.133H278.009V287.093H273.461V277.658H278.009V278.618H274.598V281.833L277.327 281.814Z" fill="#50B364"/>
<path d="M281.592 277.639C283.343 277.639 284.07 278.397 284.07 279.798V280.566C284.07 281.603 283.65 282.246 282.683 282.486C283.706 282.735 284.093 283.445 284.093 284.405V285.95C284.056 286.337 284.13 286.725 284.309 287.083H283.058C282.878 286.719 282.804 286.324 282.842 285.931V284.453C282.842 283.388 282.251 283.052 281.216 283.052H280.341V287.083H279.102V277.648L281.592 277.639ZM281.262 282.082C282.251 282.082 282.842 281.814 282.842 280.796V279.894C282.842 279.04 282.478 278.598 281.557 278.598H280.341V282.111L281.262 282.082Z" fill="#50B364"/>
<path d="M403.635 246.781C405.398 246.781 406.148 247.654 406.148 249.085V250.217C406.148 251.714 405.318 252.492 403.544 252.492H402.407V256.196H401.168V246.771L403.635 246.781ZM403.544 251.58C404.465 251.58 404.909 251.215 404.909 250.313V249.056C404.909 248.202 404.545 247.77 403.635 247.77H402.498V251.609L403.544 251.58Z" fill="#50B364"/>
<path d="M407.023 249.056C407.023 247.617 407.865 246.686 409.57 246.686C411.276 246.686 412.14 247.645 412.14 249.056V253.932C412.14 255.362 411.299 256.302 409.57 256.302C407.842 256.302 407.023 255.343 407.023 253.932V249.056ZM408.251 253.989C408.251 254.853 408.683 255.352 409.57 255.352C410.457 255.352 410.901 254.853 410.901 253.989V249.008C410.901 248.154 410.48 247.645 409.57 247.645C408.661 247.645 408.251 248.154 408.251 249.008V253.989Z" fill="#50B364"/>
<path d="M418.152 249.047V249.296H417.015V248.989C417.015 248.144 416.629 247.645 415.742 247.645C414.855 247.645 414.468 248.144 414.468 248.979C414.468 251.091 418.209 251.292 418.209 253.951C418.209 255.371 417.402 256.302 415.696 256.302C413.991 256.302 413.184 255.343 413.184 253.951V253.414H414.321V253.999C414.321 254.853 414.73 255.352 415.628 255.352C416.526 255.352 416.936 254.853 416.936 253.999C416.936 251.897 413.195 251.696 413.195 249.047C413.195 247.588 414.002 246.686 415.674 246.686C417.345 246.686 418.152 247.617 418.152 249.047Z" fill="#50B364"/>
<path d="M420.859 256.196V247.731H418.801V246.771H424.145V247.731H422.075V256.196H420.859Z" fill="#50B364"/>
<path d="M432.397 249.056V249.91H431.26V249.008C431.26 248.154 430.862 247.645 429.952 247.645C429.042 247.645 428.645 248.154 428.645 249.008V253.989C428.645 254.834 429.054 255.352 429.952 255.352C430.85 255.352 431.26 254.834 431.26 253.989V252.761H432.397V253.932C432.397 255.362 431.589 256.302 429.872 256.302C428.156 256.302 427.371 255.343 427.371 253.932V249.056C427.371 247.626 428.167 246.686 429.872 246.686C431.578 246.686 432.397 247.626 432.397 249.056Z" fill="#50B364"/>
<path d="M433.445 249.056C433.445 247.617 434.287 246.686 435.992 246.686C437.698 246.686 438.562 247.645 438.562 249.056V253.932C438.562 255.362 437.72 256.302 435.992 256.302C434.264 256.302 433.445 255.343 433.445 253.932V249.056ZM434.673 253.989C434.673 254.853 435.105 255.352 435.992 255.352C436.879 255.352 437.322 254.853 437.322 253.989V249.008C437.322 248.154 436.902 247.645 435.992 247.645C435.083 247.645 434.673 248.154 434.673 249.008V253.989Z" fill="#50B364"/>
<path d="M442.346 246.783C444.085 246.783 444.881 247.676 444.881 249.125V253.924C444.881 255.364 444.085 256.247 442.346 256.247H439.73V246.822L442.346 246.783ZM442.346 255.258C443.232 255.258 443.664 254.788 443.664 253.924V249.077C443.664 248.213 443.232 247.743 442.323 247.743H440.981V255.239L442.346 255.258Z" fill="#50B364"/>
<path d="M450.022 250.956V251.916H447.294V255.237H450.648V256.196H446.043V246.771H450.648V247.731H447.294V250.946L450.022 250.956Z" fill="#50B364"/>
<path d="M741.24 72.0469H194.961V100.715H741.24V72.0469Z" fill="#92E3A9" stroke="#263238" stroke-linecap="round" stroke-linejoin="round"/>
<path d="M444.815 80.2441H366.227V100.716H444.815V80.2441Z" fill="white" stroke="#263238" stroke-linecap="round" stroke-linejoin="round"/>
<path d="M532.14 80.2441H453.551V100.716H532.14V80.2441Z" fill="white" stroke="#263238" stroke-linecap="round" stroke-linejoin="round"/>
<path d="M619.472 80.2441H540.883V100.716H619.472V80.2441Z" fill="white" stroke="#263238" stroke-linecap="round" stroke-linejoin="round"/>
<path d="M706.788 80.2441H628.199V100.716H706.788V80.2441Z" fill="white" stroke="#263238" stroke-linecap="round" stroke-linejoin="round"/>
<path d="M674.023 360.246H265.059V377.253H674.023V360.246Z" fill="#263238" stroke="#263238" stroke-linecap="round" stroke-linejoin="round"/>
<path d="M674.023 368.434H265.059V377.254H674.023V368.434Z" fill="white" stroke="#263238" stroke-linecap="round" stroke-linejoin="round"/>
<path d="M122.523 387.33C122.523 387.33 129.232 394.26 149.379 399.932H789.687C789.687 399.932 804.616 396.784 811.29 387.964L122.523 387.33Z" fill="#263238" stroke="#263238" stroke-linecap="round" stroke-linejoin="round"/>
<path d="M810.631 374.92H123.297C122.111 374.92 121.148 375.732 121.148 376.734V386.351C121.148 387.353 122.111 388.165 123.297 388.165H810.631C811.818 388.165 812.78 387.353 812.78 386.351V376.734C812.78 375.732 811.818 374.92 810.631 374.92Z" fill="#969696" stroke="#263238" stroke-miterlimit="10"/>
<path d="M473.242 59.7608C473.242 58.8895 472.936 58.0378 472.363 57.3133C471.789 56.5889 470.974 56.0242 470.021 55.6908C469.067 55.3574 468.018 55.2701 467.005 55.4401C465.993 55.6101 465.063 56.0297 464.333 56.6458C463.603 57.2619 463.106 58.0468 462.905 58.9014C462.704 59.7559 462.807 60.6417 463.202 61.4467C463.597 62.2516 464.266 62.9397 465.124 63.4237C465.982 63.9078 466.991 64.1662 468.023 64.1662C469.408 64.1662 470.735 63.702 471.714 62.8759C472.692 62.0497 473.242 60.9292 473.242 59.7608Z" fill="#263238" stroke="#263238" stroke-linecap="round" stroke-linejoin="round"/>
<path d="M176.247 141.649C175.852 141.649 175.473 141.517 175.194 141.281C174.915 141.045 174.758 140.726 174.758 140.392V103.854C174.77 103.527 174.932 103.217 175.21 102.989C175.488 102.762 175.86 102.635 176.247 102.635C176.643 102.635 177.023 102.767 177.305 103.002C177.586 103.238 177.745 103.558 177.748 103.892V140.431C177.736 140.759 177.573 141.07 177.292 141.298C177.012 141.526 176.637 141.652 176.247 141.649Z" fill="#263238"/>
<path d="M690.859 116.732H616.613C615.703 116.732 614.965 117.355 614.965 118.124V156.486C614.965 157.255 615.703 157.878 616.613 157.878H690.859C691.77 157.878 692.508 157.255 692.508 156.486V118.124C692.508 117.355 691.77 116.732 690.859 116.732Z" fill="#FFC727" fill-opacity="0.54"/>
<path d="M686.55 120.602H671.883V129.7H686.55V120.602Z" fill="white"/>
<path d="M623.152 140.623H632.203" stroke="white" stroke-miterlimit="10"/>
<path d="M623.152 124.24H632.203" stroke="white" stroke-miterlimit="10"/>
<path d="M623.152 151.18H632.203" stroke="white" stroke-miterlimit="10"/>
<path d="M637.375 151.18H646.437" stroke="white" stroke-miterlimit="10"/>
<path d="M636.523 140.623H645.574" stroke="white" stroke-miterlimit="10"/>
<path d="M649.891 140.623H658.941" stroke="white" stroke-miterlimit="10"/>
<path d="M663.25 140.623H672.312" stroke="white" stroke-miterlimit="10"/>
<path d="M676.625 140.623H685.687" stroke="white" stroke-miterlimit="10"/>
<path d="M446.822 298.791C446.822 298.791 428.938 289.375 432.042 288.934C435.146 288.492 483.138 290.038 487.288 290.47C491.438 290.902 505.184 292.226 506.992 292.879C508.8 293.531 527.219 299.012 538.896 299.885C550.573 300.758 562.773 300.106 564.831 300.979C566.889 301.853 574.688 308.657 572.869 311.047C571.05 313.437 566.127 314.118 566.127 314.118L527.742 317.622C527.742 317.622 521.523 311.489 516.588 309.732C511.654 307.976 478.465 299.664 469.13 299.664C459.796 299.664 446.822 298.791 446.822 298.791Z" fill="#263238" stroke="#263238" stroke-miterlimit="10"/>
<path d="M442.417 316.309C442.417 316.309 425.532 343.451 407.92 353.519C407.92 353.519 405.066 354.402 410.251 354.402C415.436 354.402 431.524 339.727 436.709 334.477C441.894 329.227 447.34 325.935 454.082 325.935H463.94L442.417 316.309Z" fill="#263238" stroke="#263238" stroke-miterlimit="10"/>
<path d="M459.019 339.516C451.939 339.514 445.017 341.284 439.129 344.604C433.241 347.923 428.652 352.641 425.942 358.163C423.231 363.684 422.521 369.759 423.902 375.621C425.283 381.483 428.692 386.867 433.698 391.093C438.705 395.319 445.083 398.197 452.027 399.363C458.971 400.528 466.169 399.929 472.71 397.641C479.25 395.353 484.84 391.479 488.772 386.509C492.704 381.539 494.802 375.696 494.8 369.72C494.8 361.709 491.03 354.027 484.32 348.362C477.609 342.698 468.508 339.516 459.019 339.516ZM459.019 387.024C454.971 387.024 451.014 386.011 447.648 384.113C444.283 382.214 441.66 379.516 440.111 376.36C438.562 373.203 438.156 369.729 438.946 366.378C439.736 363.027 441.685 359.949 444.547 357.533C447.409 355.116 451.056 353.471 455.026 352.804C458.996 352.138 463.111 352.48 466.851 353.788C470.59 355.095 473.787 357.309 476.035 360.15C478.284 362.991 479.485 366.332 479.485 369.748C479.485 374.33 477.328 378.724 473.49 381.964C469.652 385.204 464.447 387.024 459.019 387.024Z" fill="#263238" stroke="#263238" stroke-miterlimit="10"/>
<path d="M459.019 357.242C456.096 357.242 453.238 357.974 450.807 359.345C448.377 360.716 446.482 362.665 445.363 364.944C444.245 367.224 443.952 369.733 444.522 372.153C445.093 374.574 446.5 376.797 448.567 378.542C450.635 380.287 453.268 381.475 456.136 381.956C459.003 382.438 461.975 382.191 464.676 381.246C467.376 380.302 469.685 378.703 471.309 376.651C472.933 374.599 473.8 372.187 473.8 369.719C473.8 366.41 472.243 363.237 469.471 360.897C466.699 358.557 462.939 357.242 459.019 357.242ZM459.019 376.87C457.343 376.871 455.705 376.454 454.31 375.669C452.916 374.885 451.828 373.769 451.185 372.462C450.542 371.156 450.373 369.718 450.699 368.33C451.024 366.942 451.83 365.668 453.014 364.667C454.198 363.666 455.708 362.984 457.351 362.707C458.995 362.43 460.698 362.571 462.247 363.112C463.795 363.653 465.119 364.57 466.05 365.746C466.981 366.922 467.478 368.305 467.478 369.719C467.478 371.614 466.588 373.431 465.001 374.772C463.415 376.112 461.264 376.867 459.019 376.87Z" fill="#263238" stroke="#263238" stroke-miterlimit="10"/>
<path d="M459.024 348.047C453.945 348.041 448.978 349.307 444.751 351.685C440.525 354.063 437.229 357.446 435.28 361.405C433.332 365.365 432.819 369.723 433.806 373.929C434.792 378.135 437.235 381.999 440.824 385.032C444.413 388.066 448.987 390.133 453.969 390.972C458.95 391.81 464.113 391.383 468.807 389.743C473.5 388.104 477.511 385.326 480.334 381.762C483.156 378.197 484.663 374.006 484.663 369.718C484.666 363.975 481.967 358.466 477.159 354.402C472.351 350.338 465.828 348.052 459.024 348.047ZM459.024 387.023C454.976 387.023 451.019 386.01 447.654 384.112C444.288 382.213 441.665 379.515 440.116 376.358C438.567 373.202 438.162 369.728 438.951 366.377C439.741 363.026 441.69 359.947 444.552 357.531C447.414 355.115 451.061 353.47 455.031 352.803C459.001 352.137 463.116 352.479 466.856 353.786C470.595 355.094 473.792 357.308 476.041 360.149C478.289 362.99 479.49 366.33 479.49 369.747C479.49 374.329 477.333 378.723 473.495 381.963C469.657 385.203 464.452 387.023 459.024 387.023Z" fill="white" stroke="#263238" stroke-miterlimit="10"/>
<path d="M475.096 327.691L464.977 350.899L469.65 352.425L480.019 329.217L475.096 327.691Z" fill="#263238" stroke="#263238" stroke-miterlimit="10"/>
<path d="M464.98 350.899C464.98 350.899 454.349 346.954 445.788 352.425C437.226 357.895 436.191 364.652 436.191 364.652C436.191 364.652 449.676 372.964 467.311 374.25C484.946 375.536 502.842 373.376 511.653 371.188C517.053 369.834 522.267 368 527.208 365.717L505.423 345.562C505.423 345.562 502.319 341.838 495.053 345.342C487.788 348.845 487.527 353.442 487.527 353.442L464.98 350.899Z" fill="#263238" stroke="#263238" stroke-miterlimit="10"/>
<path d="M480.019 329.217L472.504 352.645L494.289 360.966C494.055 358.29 494.775 355.615 496.358 353.288C498.95 349.785 502.327 349.996 503.1 350.409C503.873 350.821 508.547 352.818 508.547 352.818L506.477 339.026L480.019 329.217Z" fill="#263238" stroke="#263238" stroke-miterlimit="10"/>
<path d="M674.284 339.516C667.204 339.514 660.283 341.284 654.395 344.604C648.507 347.923 643.918 352.641 641.207 358.163C638.497 363.684 637.787 369.759 639.168 375.621C640.548 381.483 643.957 386.867 648.964 391.093C653.97 395.319 660.349 398.197 667.293 399.363C674.237 400.528 681.435 399.929 687.975 397.641C694.516 395.353 700.106 391.479 704.038 386.509C707.97 381.539 710.068 375.696 710.065 369.72C710.065 365.753 709.14 361.826 707.342 358.161C705.544 354.497 702.908 351.167 699.585 348.362C696.263 345.557 692.318 343.333 687.977 341.815C683.636 340.297 678.983 339.516 674.284 339.516ZM674.284 387.024C670.237 387.024 666.28 386.011 662.914 384.113C659.549 382.214 656.925 379.516 655.376 376.36C653.827 373.203 653.422 369.729 654.212 366.378C655.001 363.027 656.951 359.949 659.813 357.533C662.675 355.116 666.322 353.471 670.292 352.804C674.262 352.138 678.377 352.48 682.116 353.788C685.856 355.095 689.052 357.309 691.301 360.15C693.55 362.991 694.75 366.332 694.75 369.748C694.75 374.33 692.594 378.724 688.756 381.964C684.918 385.204 679.712 387.024 674.284 387.024Z" fill="#263238" stroke="#263238" stroke-miterlimit="10"/>
<path d="M674.289 357.242C671.365 357.242 668.508 357.974 666.077 359.345C663.646 360.716 661.752 362.665 660.633 364.944C659.514 367.224 659.221 369.733 659.792 372.153C660.362 374.574 661.77 376.797 663.837 378.542C665.904 380.287 668.538 381.475 671.405 381.956C674.272 382.438 677.244 382.191 679.945 381.246C682.646 380.302 684.954 378.703 686.579 376.651C688.203 374.599 689.07 372.187 689.07 369.719C689.07 366.41 687.512 363.237 684.74 360.897C681.968 358.557 678.209 357.242 674.289 357.242ZM674.289 376.87C672.613 376.871 670.974 376.454 669.58 375.669C668.185 374.885 667.098 373.769 666.455 372.462C665.812 371.156 665.643 369.718 665.968 368.33C666.294 366.942 667.1 365.668 668.284 364.667C669.468 363.666 670.977 362.984 672.621 362.707C674.264 362.43 675.968 362.571 677.516 363.112C679.065 363.653 680.388 364.57 681.32 365.746C682.251 366.922 682.748 368.305 682.748 369.719C682.748 371.614 681.857 373.431 680.271 374.772C678.685 376.112 676.533 376.867 674.289 376.87Z" fill="#263238" stroke="#263238" stroke-miterlimit="10"/>
<path d="M674.285 348.047C669.207 348.047 664.243 349.318 660.021 351.699C655.799 354.08 652.509 357.465 650.566 361.425C648.622 365.385 648.114 369.743 649.105 373.946C650.095 378.15 652.54 382.012 656.131 385.043C659.721 388.073 664.296 390.137 669.276 390.974C674.256 391.81 679.418 391.381 684.109 389.74C688.801 388.1 692.81 385.322 695.631 381.759C698.452 378.195 699.958 374.005 699.958 369.718C699.958 363.971 697.253 358.459 692.438 354.394C687.624 350.33 681.094 348.047 674.285 348.047ZM674.285 387.023C670.237 387.023 666.28 386.01 662.914 384.112C659.549 382.213 656.926 379.515 655.377 376.358C653.828 373.202 653.422 369.728 654.212 366.377C655.002 363.026 656.951 359.947 659.813 357.531C662.675 355.115 666.322 353.47 670.292 352.803C674.262 352.137 678.377 352.479 682.117 353.786C685.856 355.094 689.053 357.308 691.301 360.149C693.55 362.99 694.75 366.33 694.75 369.747C694.75 374.329 692.594 378.723 688.756 381.963C684.918 385.203 679.713 387.023 674.285 387.023Z" fill="white" stroke="#263238" stroke-miterlimit="10"/>
<path d="M641.449 341.616L669.681 348.948C669.681 348.948 684.882 339.255 702.244 342.662C702.244 342.662 696.047 327.737 656.958 325.117L641.449 341.616Z" fill="#92E3A9" stroke="#263238" stroke-miterlimit="10"/>
<path d="M670.5 369.72L646.168 333.939L651.012 331.598L675.343 367.407C675.626 367.843 675.698 368.354 675.543 368.834C675.389 369.314 675.019 369.724 674.513 369.979L673.535 370.449C673.016 370.683 672.409 370.737 671.843 370.601C671.277 370.465 670.795 370.149 670.5 369.72Z" fill="#6E6E6E" stroke="#263238" stroke-miterlimit="10"/>
<path d="M616.436 276.246C616.436 276.246 639.256 285.441 645.486 289.376C651.717 293.311 664.417 301.853 666.486 304.262C668.556 306.671 674.525 314.551 672.456 317.18C670.386 319.81 669.045 321.336 667.783 321.979C666.521 322.622 660.529 323.505 657.675 326.356C654.821 329.206 630.955 361.167 630.955 361.167C630.955 361.167 622.405 372.77 621.098 372.77C619.79 372.77 604.759 377.368 585.578 376.705C566.397 376.043 543.305 371.676 539.155 371.455C535.005 371.235 530.332 369.267 528.513 368.384C526.693 367.501 521.52 364.67 513.993 358.095C506.466 351.521 501.543 349.342 502.066 341.021C502.066 341.021 442.943 319.129 440.077 316.72C437.212 314.311 430.481 303.148 433.335 301.181C436.189 299.213 448.116 297.016 463.158 298.551C478.201 300.087 511.139 306.431 517.62 310.155C521.36 312.258 524.762 314.761 527.739 317.603L566.124 314.099L568.455 317.622C568.455 317.622 554.709 332.719 554.709 333.813C554.709 334.907 570.013 356.588 570.013 356.588C570.013 356.588 561.974 357.462 556.267 357.683C550.559 357.903 545.636 358.556 545.636 358.556C545.636 358.556 596.471 360.965 604.509 360.524C612.548 360.082 617.732 352.845 619.028 350.014C620.325 347.183 616.948 333.381 619.802 325.06C622.655 316.739 626.294 311.268 622.405 305.577C618.517 299.885 605.021 287.187 605.021 283.502C605.021 279.816 616.436 276.246 616.436 276.246Z" fill="#92E3A9" stroke="#263238" stroke-miterlimit="10"/>
<path d="M616.437 276.246C616.437 276.246 601.394 283.684 601.394 284.999C601.394 286.314 614.106 306.892 615.914 311.268C617.721 315.645 612.287 344.323 610.99 347.394C609.694 350.465 602.167 356.992 602.167 356.992L570.013 356.56L563.93 357.711L556.267 357.654C556.267 357.654 547.455 354.151 545.898 353.93C544.34 353.709 516.586 347.576 512.698 349.553C508.809 351.53 510.105 353.93 511.663 354.352C513.221 354.774 570.275 363.547 571.571 363.547C572.867 363.547 601.394 367.482 611.252 364.42C621.11 361.359 630.694 349.534 632.775 345.59L634.844 341.654L626.294 335.301C626.294 335.301 626.544 329.168 628.102 325.885C629.66 322.603 634.844 312.756 633.298 309.253C631.752 305.749 609.728 286.535 609.956 283.684C610.183 280.834 616.437 276.246 616.437 276.246Z" fill="#263238" stroke="#263238" stroke-miterlimit="10"/>
<path d="M619.555 341.26C616.747 341.923 613.938 343.775 611.448 345.925C611.266 346.606 611.107 347.105 610.993 347.393C609.697 350.455 602.17 356.991 602.17 356.991L570.016 356.559L563.933 357.711L556.27 357.653C553.317 358.246 550.427 359.042 547.629 360.034C560.033 361.953 571.017 363.566 571.574 363.566C572.87 363.566 601.397 367.501 611.255 364.439C621.113 361.377 630.697 349.553 632.778 345.608L634.848 341.673C629.918 340.228 624.584 340.084 619.555 341.26Z" fill="#263238" stroke="#263238" stroke-miterlimit="10"/>
<path d="M618.256 256.974C618.256 256.974 604.76 252.819 599.837 254.565C594.914 256.312 586.875 261.792 585.829 265.516C584.783 269.24 586.875 270.987 590.241 273.617C593.606 276.247 602.691 284.558 602.691 284.558L616.437 276.247L618.256 274.269C618.256 274.269 624.737 272.743 624.999 271.649C625.179 268.327 624.742 265.001 623.703 261.792C623.349 260.667 622.665 259.635 621.712 258.793C620.76 257.951 619.572 257.325 618.256 256.974Z" fill="#92E3A9" stroke="#263238" stroke-miterlimit="10"/>
<path d="M617.689 257.857C617.689 257.857 615.415 261.572 617.166 264.201C618.917 266.831 622.851 274.049 623.909 271.88C624.966 269.711 623.397 262.685 621.635 260.718C620.565 259.547 619.222 258.573 617.689 257.857Z" fill="white" stroke="#263238" stroke-miterlimit="10"/>
<path d="M594.277 277.023C598.143 280.392 602.691 284.557 602.691 284.557L616.437 276.246L618.257 274.269C620.131 273.825 621.96 273.254 623.725 272.56C618.427 270.449 606.534 266.015 603.726 267.704C600.917 269.393 596.438 274.499 594.277 277.023Z" fill="#6E6E6E" stroke="#263238" stroke-miterlimit="10"/>
<path d="M598.017 259.606C598.017 259.606 597.767 244.067 594.606 243.626C591.445 243.184 585.783 245.161 585.783 245.161C584.534 243.661 583.683 241.95 583.291 240.146C582.898 238.341 582.973 236.487 583.509 234.709C583.577 234.479 583.657 234.239 583.748 233.99C586.079 227.425 597.494 239.681 598.529 241.668C599.174 243.206 599.438 244.839 599.302 246.467L600.86 258.733C600.86 258.733 605.271 260.921 603.202 261.142C601.132 261.362 592.821 261.142 594.902 259.385C596.982 257.629 598.017 259.606 598.017 259.606Z" fill="#263238" stroke="#263238" stroke-miterlimit="10"/>
<path d="M612.98 278.339L585.602 267.781C585.829 270.056 587.648 271.563 590.24 273.54C593.651 276.17 602.691 284.481 602.691 284.481L612.98 278.339Z" fill="#263238" stroke="#263238" stroke-miterlimit="10"/>
<path d="M489.937 225.59H404.117V287.908H489.937V225.59Z" fill="#263238" stroke="#263238" stroke-miterlimit="10"/>
<path d="M482.557 287.918H410.574V289.473H482.557V287.918Z" fill="#263238" stroke="#263238" stroke-miterlimit="10"/>
<path d="M566.298 356.973C568.492 356.771 570.015 356.608 570.015 356.608C570.015 356.608 554.712 334.898 554.712 333.814C554.712 332.729 568.458 317.622 568.458 317.622L566.127 314.119L527.742 317.622C527.742 317.622 549.788 339.294 556.792 346.3C560.188 349.71 563.361 353.272 566.298 356.973Z" fill="#6E6E6E" stroke="#263238" stroke-miterlimit="10"/>
<path d="M666.736 315.77L671.227 316.758" stroke="#263238" stroke-miterlimit="10"/>
<path d="M635.559 308.908L662.971 314.945" stroke="#263238" stroke-miterlimit="10"/>
<path d="M651.693 310.474L634.32 297.91L644.553 300.262L662.552 312.835L651.693 310.474Z" fill="white" stroke="#263238" stroke-miterlimit="10"/>
<path d="M536.23 337.135C540.437 337.451 543.439 337.701 543.439 337.701" stroke="#263238" stroke-miterlimit="10"/>
<path d="M503.887 339.697C503.887 339.697 503.887 336.559 512.266 336.165C519.099 336.112 525.93 336.362 532.732 336.914" stroke="#263238" stroke-miterlimit="10"/>
<path d="M568.161 287.737C567.127 287.526 561.237 283.447 562.294 283.341C571.652 282.381 595.847 284.733 599.94 285.261C605.443 285.923 597.95 312.662 596.12 322.164C594.54 330.351 596.734 335.86 596.541 337.52C596.524 337.648 596.545 337.777 596.602 337.896C596.66 338.015 596.752 338.12 596.87 338.201L598.007 339.046C598.19 339.186 598.307 339.377 598.337 339.584L598.724 342.722C598.752 342.923 598.867 343.108 599.048 343.241C599.229 343.374 599.462 343.446 599.701 343.442C602.51 343.431 605.301 343.062 607.979 342.348C611.117 341.244 616.085 339.699 614.801 342.127C613.516 344.555 609.309 348.98 606.955 349.863C604.602 350.746 592.038 353.615 588.889 354.287C586.535 354.777 580.793 354.777 578.065 354.748C577.905 354.748 577.747 354.714 577.607 354.649C577.467 354.584 577.349 354.49 577.264 354.376C577.178 354.262 577.129 354.131 577.12 353.997C577.111 353.862 577.142 353.727 577.212 353.606C578.349 351.418 580.839 346.532 581.043 343.682C581.305 339.919 582.362 316.261 584.716 309.408C586.774 303.429 589.639 296.279 590.333 292.968C590.361 292.864 590.365 292.757 590.343 292.652C590.322 292.548 590.276 292.448 590.208 292.358C590.14 292.269 590.052 292.192 589.948 292.132C589.845 292.071 589.728 292.029 589.605 292.008L568.161 287.737Z" fill="#263238" stroke="#263238" stroke-miterlimit="10"/>
<path d="M582.358 347.981L588.975 350.668C589.095 350.72 589.227 350.749 589.362 350.754C590.738 350.754 598.981 351.004 600.413 351.407C601.846 351.81 602.767 352.069 601.459 353.394C600.152 354.718 594.399 356.974 588.122 358.039C582.527 359.09 576.796 359.536 571.068 359.363C568.899 359.293 566.742 359.062 564.621 358.672C564.374 358.626 564.158 358.5 564.022 358.32C563.885 358.14 563.839 357.921 563.893 357.713L565.451 350.409C565.487 350.241 565.584 350.087 565.729 349.968C565.873 349.849 566.059 349.772 566.258 349.746L581.767 347.885C581.971 347.86 582.179 347.894 582.358 347.981Z" fill="white" stroke="#263238" stroke-miterlimit="10"/>
<path d="M601.464 353.393C602.601 352.213 602.135 351.906 600.895 351.541L599.827 351.647C597.655 352.866 593.892 354.296 587.32 355.61C580.023 357.176 572.462 357.672 564.967 357.079C564.726 357.059 564.484 357.115 564.291 357.238C564.097 357.361 563.965 357.54 563.921 357.741C563.866 357.95 563.913 358.168 564.049 358.348C564.186 358.528 564.401 358.655 564.648 358.701C566.769 359.091 568.926 359.322 571.095 359.392C576.823 359.564 582.555 359.119 588.15 358.067C594.403 356.973 600.156 354.727 601.464 353.393Z" fill="white" stroke="#263238" stroke-miterlimit="10"/>
<path d="M514.86 273.473C514.86 273.473 511.722 290.048 513.291 294.242C514.86 298.436 551.391 302.016 561.34 301.354C569.129 300.836 567.935 301.604 575.973 301.114C576.724 301.066 577.406 301.392 577.258 302.026L565.831 348.93C565.805 349.042 565.808 349.158 565.839 349.27C565.87 349.381 565.929 349.486 566.012 349.577C566.095 349.668 566.199 349.743 566.319 349.797C566.439 349.85 566.571 349.882 566.707 349.89C569.736 350.08 572.778 350.058 575.803 349.822C578.383 349.514 580.898 348.897 583.273 347.989C583.395 347.942 583.504 347.873 583.593 347.787C583.681 347.7 583.746 347.599 583.784 347.49L584.66 345.1C584.683 345.005 584.683 344.907 584.66 344.812L584.16 338.286C584.15 338.175 584.169 338.063 584.216 337.96C585.353 335.359 597.565 300.193 598.827 295.931C600.134 291.516 601.703 287.984 598.304 285.998C594.904 284.011 550.925 276.554 550.925 276.554L514.86 273.473Z" fill="#92E3A9" stroke="#263238" stroke-miterlimit="10"/>
<path d="M524.273 284.109C524.273 284.109 541.033 279.252 550.97 276.594" stroke="#263238" stroke-miterlimit="10"/>
<path d="M577.605 300.578C577.605 300.578 585.564 300.174 591.545 297.084" stroke="#263238" stroke-miterlimit="10"/>
<path d="M578.199 302.823C578.199 302.823 588.125 301.306 592.332 299.512" stroke="#263238" stroke-miterlimit="10"/>
<path d="M556.213 250.918L557.725 261.754L568.288 263.98L585.831 265.516L573.563 269.077L550.926 272.897L556.213 250.918Z" fill="#263238" stroke="#263238" stroke-miterlimit="10"/>
<path d="M549.661 213.191C549.661 213.191 543.908 212.088 535.005 219.152C526.989 225.673 521.449 234.058 519.087 243.242C516.734 251.63 514.38 267.543 513.596 270.634C512.811 273.724 513.857 274.166 515.688 275.049C517.518 275.932 528.774 277.707 538.723 278.149C548.672 278.59 553.379 277.035 554.641 275.49C555.903 273.945 554.641 257.6 556.21 252.293C557.779 246.985 560.917 228.653 560.917 228.653L550.684 213.633L549.661 213.191Z" fill="#263238" stroke="#263238" stroke-miterlimit="10"/>
<path d="M559.873 204.129L552.027 213.851L564.057 224.678C564.057 224.678 572.436 215.617 573.744 214.955C575.051 214.293 577.928 213.189 577.928 213.189L559.873 204.129Z" fill="white" stroke="#263238" stroke-miterlimit="10"/>
<path d="M563.84 211.971L568.615 219.62L573.743 214.956L563.84 211.971Z" fill="#263238" stroke="#263238" stroke-miterlimit="10"/>
<path d="M585.781 197.507L586.566 200.818C586.566 200.818 589.704 203.467 588.919 205.012C588.135 206.557 584.473 207.892 584.473 207.892C584.473 207.892 579.675 216.328 578.618 217.211C577.561 218.094 569.295 215.186 565.634 213.42C561.972 211.654 561.177 206.567 561.177 206.567L559.346 205.463C559.346 205.463 553.854 204.36 553.331 201.931C552.808 199.503 552.547 196.845 555.685 195.299C558.823 193.754 561.177 192.871 562.507 192.871C563.837 192.871 582.143 195.299 582.143 195.299L585.781 197.507Z" fill="white" stroke="#263238" stroke-miterlimit="10"/>
<path d="M583.167 208.995C583.167 208.995 578.46 208.764 577.402 206.336" stroke="#263238" stroke-miterlimit="10"/>
<path d="M567.468 195.731C567.468 195.731 565.376 200.155 564.58 200.597C563.784 201.038 563.534 197.055 558.826 197.948C554.119 198.841 554.904 203.246 556.211 204.129C557.16 204.718 558.222 205.166 559.35 205.453L556.848 208.083C556.848 208.083 555.711 206.999 551.766 206.778C547.82 206.557 543.125 202.804 542.863 199.935C542.602 197.065 545.74 193.523 545.74 193.523C545.598 193.963 545.653 194.431 545.895 194.838C546.136 195.245 546.546 195.563 547.047 195.731C548.394 196.119 549.838 196.195 551.231 195.952L567.468 195.731Z" fill="#263238" stroke="#263238" stroke-miterlimit="10"/>
<path d="M548.879 196.395L587.355 197.729C587.355 197.729 586.047 188.055 584.717 184.465C583.387 180.876 568.799 176.787 560.897 177.402C552.995 178.016 550.164 185.569 550.164 185.569L548.879 196.395Z" fill="#263238" stroke="#263238" stroke-miterlimit="10"/>
<path d="M574.48 197.278C579.561 198.269 584.722 198.936 589.921 199.274C597.777 199.716 603.008 197.729 603.008 196.174C603.008 194.62 585.737 197.509 585.737 197.509L574.48 197.278Z" fill="#92E3A9" stroke="#263238" stroke-miterlimit="10"/>
<path d="M550.981 208.766L566.16 226.224L559.873 232.194L547.57 212.749L550.981 208.766Z" fill="#92E3A9" stroke="#263238" stroke-miterlimit="10"/>
<path d="M536.537 261.055L573 265.393C573 265.393 584.973 263.569 588.179 261.966C591.385 260.364 593.33 261.285 593.989 262.043C594.649 262.801 595.558 268.051 595.877 269.213C596.195 270.374 593.409 271.132 592.295 271.439C591.181 271.746 585.473 269.664 585.473 269.664C585.473 269.664 579.22 271.996 576.9 271.698C575.291 271.448 573.749 270.95 572.352 270.23C572.352 270.23 530.079 274.194 523.928 274.53C517.777 274.866 520.005 269.501 520.687 267.053C521.722 263.329 522.507 260.047 522.507 260.047L536.537 261.055Z" fill="white" stroke="#263238" stroke-miterlimit="10"/>
<path d="M543.497 222.96C539.813 223.104 535.538 226.559 533.389 229.515C527.488 237.731 518.824 263.482 518.824 263.482L546.442 261.246C546.442 261.246 550.08 230.878 549.045 227.654C547.92 224.093 545.839 222.864 543.497 222.96Z" fill="#92E3A9" stroke="#263238" stroke-miterlimit="10"/>
<path d="M592.062 267.485C592.064 266.833 591.837 266.195 591.409 265.653C590.981 265.11 590.372 264.686 589.659 264.436C588.946 264.186 588.161 264.12 587.404 264.246C586.646 264.373 585.95 264.687 585.404 265.148C584.858 265.609 584.486 266.196 584.336 266.836C584.186 267.475 584.264 268.138 584.561 268.74C584.857 269.342 585.359 269.856 586.002 270.217C586.645 270.578 587.401 270.769 588.173 270.768C589.204 270.768 590.193 270.422 590.923 269.806C591.652 269.191 592.062 268.356 592.062 267.485Z" fill="#263238" stroke="#263238" stroke-miterlimit="10"/>
<path d="M428.56 308.418H405.309" stroke="#263238" stroke-miterlimit="10"/>
<path d="M413.063 322.441H364.32" stroke="#263238" stroke-miterlimit="10"/>
<path d="M542.66 204.629H509.426" stroke="#263238" stroke-miterlimit="10"/>
<path d="M394.22 271.947H382.043" stroke="#263238" stroke-miterlimit="10"/>
<path d="M771.973 399.934H801" stroke="#263238" stroke-linecap="round" stroke-linejoin="round"/>
<path d="M1 399.934H765.001" stroke="#263238" stroke-linecap="round" stroke-linejoin="round"/>
</svg>
