<svg width="198" height="29" viewBox="0 0 198 29" fill="none" xmlns="http://www.w3.org/2000/svg">
<g filter="url(#filter0_d_427_5970)">
<path d="M18.87 20H14.937L8.359 10.041V20H4.426V3.854H8.359L14.937 13.859V3.854H18.87V20ZM29.3569 20.161C27.8389 20.161 26.4436 19.8083 25.1709 19.103C23.9136 18.3977 22.9093 17.4163 22.1579 16.159C21.4219 14.8863 21.0539 13.4603 21.0539 11.881C21.0539 10.3017 21.4219 8.88333 22.1579 7.626C22.9093 6.36867 23.9136 5.38733 25.1709 4.682C26.4436 3.97667 27.8389 3.624 29.3569 3.624C30.8749 3.624 32.2626 3.97667 33.5199 4.682C34.7926 5.38733 35.7893 6.36867 36.5099 7.626C37.2459 8.88333 37.6139 10.3017 37.6139 11.881C37.6139 13.4603 37.2459 14.8863 36.5099 16.159C35.7739 17.4163 34.7773 18.3977 33.5199 19.103C32.2626 19.8083 30.8749 20.161 29.3569 20.161ZM29.3569 16.573C30.6449 16.573 31.6723 16.1437 32.4389 15.285C33.2209 14.4263 33.6119 13.2917 33.6119 11.881C33.6119 10.455 33.2209 9.32033 32.4389 8.477C31.6723 7.61833 30.6449 7.189 29.3569 7.189C28.0536 7.189 27.0109 7.61067 26.2289 8.454C25.4623 9.29733 25.0789 10.4397 25.0789 11.881C25.0789 13.307 25.4623 14.4493 26.2289 15.308C27.0109 16.1513 28.0536 16.573 29.3569 16.573ZM43.735 16.964H48.887V20H39.802V3.854H43.735V16.964ZM60.8139 17.148H54.7879L53.8219 20H49.7049L55.5469 3.854H60.1009L65.9429 20H61.7799L60.8139 17.148ZM59.8019 14.112L57.8009 8.201L55.8229 14.112H59.8019ZM73.7699 3.854C75.4719 3.854 76.9593 4.19133 78.2319 4.866C79.5046 5.54067 80.4859 6.49133 81.1759 7.718C81.8813 8.92933 82.2339 10.3323 82.2339 11.927C82.2339 13.5063 81.8813 14.9093 81.1759 16.136C80.4859 17.3627 79.4969 18.3133 78.2089 18.988C76.9363 19.6627 75.4566 20 73.7699 20H67.7209V3.854H73.7699ZM73.5169 16.596C75.0043 16.596 76.1619 16.1897 76.9899 15.377C77.8179 14.5643 78.2319 13.4143 78.2319 11.927C78.2319 10.4397 77.8179 9.282 76.9899 8.454C76.1619 7.626 75.0043 7.212 73.5169 7.212H71.6539V16.596H73.5169ZM122.786 3.854V20H118.853V13.353H112.735V20H108.802V3.854H112.735V10.179H118.853V3.854H122.786ZM129.558 7.005V10.271H134.825V13.307H129.558V16.849H135.515V20H125.625V3.854H135.515V7.005H129.558ZM148.12 17.148H142.094L141.128 20H137.011L142.853 3.854H147.407L153.249 20H149.086L148.12 17.148ZM147.108 14.112L145.107 8.201L143.129 14.112H147.108ZM158.96 16.964H164.112V20H155.027V3.854H158.96V16.964ZM177.603 3.854V7.005H173.325V20H169.392V7.005H165.114V3.854H177.603ZM193.56 3.854V20H189.627V13.353H183.509V20H179.576V3.854H183.509V10.179H189.627V3.854H193.56Z" fill="#F7F7F7"/>
</g>
<path d="M94.8538 13.1472C94.9475 13.241 95.0002 13.3681 95.0002 13.5007C95.0002 13.6333 94.9475 13.7605 94.8538 13.8542L93.3538 15.3542C92.9955 15.7125 92.5098 15.9142 92.0031 15.9149C91.4964 15.9157 91.0101 15.7155 90.6508 15.3582C90.5786 15.2892 90.5288 15.2001 90.5079 15.1024C90.487 15.0048 90.4959 14.9031 90.5336 14.8106C90.5712 14.718 90.6358 14.639 90.7189 14.5836C90.8021 14.5283 90.8999 14.4992 90.9998 14.5002C91.1378 14.5002 91.2628 14.5562 91.3528 14.6462C91.4377 14.7312 91.5385 14.7985 91.6494 14.8445C91.7603 14.8905 91.8792 14.9141 91.9993 14.9141C92.1194 14.9141 92.2383 14.8905 92.3492 14.8445C92.4601 14.7985 92.5609 14.7312 92.6458 14.6462L94.1458 13.1462C94.2396 13.0525 94.3667 12.9998 94.4993 12.9998C94.6319 12.9998 94.759 13.0525 94.8528 13.1462L94.8538 13.1472ZM97.1468 3.14722C97.5193 2.76236 97.9646 2.45547 98.4568 2.24445C98.9491 2.03343 99.4784 1.92249 100.014 1.9181C100.55 1.91372 101.081 2.01597 101.576 2.2189C102.072 2.42183 102.522 2.72137 102.901 3.10009C103.28 3.4788 103.579 3.9291 103.782 4.42474C103.985 4.92039 104.087 5.45147 104.083 5.98703C104.079 6.52259 103.968 7.05192 103.757 7.54418C103.546 8.03643 103.239 8.48176 102.854 8.85422L94.8538 16.8542C94.097 17.611 93.0706 18.0362 92.0003 18.0362C90.93 18.0362 89.9036 17.611 89.1468 16.8542C88.39 16.0974 87.9648 15.071 87.9648 14.0007C87.9648 12.9305 88.39 11.904 89.1468 11.1472L97.1468 3.14722ZM102.147 3.85422C101.577 3.28503 100.805 2.96527 100 2.96527C99.1952 2.96527 98.4231 3.28503 97.8538 3.85422L94.2068 7.50022L98.4998 11.7932L102.147 8.14722C102.429 7.86538 102.652 7.53075 102.805 7.16245C102.958 6.79414 103.036 6.39939 103.036 6.00072C103.036 5.60206 102.958 5.2073 102.805 4.83899C102.652 4.47069 102.429 4.13606 102.147 3.85422ZM97.7928 12.5002L93.4998 8.20722L89.8538 11.8542C89.2995 12.4266 88.9924 13.1939 88.9988 13.9906C89.0052 14.7874 89.3246 15.5497 89.888 16.1131C90.4514 16.6765 91.2136 16.9958 92.0104 17.0022C92.8071 17.0086 93.5744 16.7015 94.1468 16.1472L97.7928 12.5002Z" fill="#50B364"/>
<defs>
<filter id="filter0_d_427_5970" x="0.425781" y="3.62402" width="197.135" height="24.5371" filterUnits="userSpaceOnUse" color-interpolation-filters="sRGB">
<feFlood flood-opacity="0" result="BackgroundImageFix"/>
<feColorMatrix in="SourceAlpha" type="matrix" values="0 0 0 0 0 0 0 0 0 0 0 0 0 0 0 0 0 0 127 0" result="hardAlpha"/>
<feOffset dy="4"/>
<feGaussianBlur stdDeviation="2"/>
<feComposite in2="hardAlpha" operator="out"/>
<feColorMatrix type="matrix" values="0 0 0 0 0 0 0 0 0 0 0 0 0 0 0 0 0 0 0.25 0"/>
<feBlend mode="normal" in2="BackgroundImageFix" result="effect1_dropShadow_427_5970"/>
<feBlend mode="normal" in="SourceGraphic" in2="effect1_dropShadow_427_5970" result="shape"/>
</filter>
</defs>
</svg>
