<svg width="193" height="29" viewBox="0 0 193 29" fill="none" xmlns="http://www.w3.org/2000/svg">
<g filter="url(#filter0_d_427_6002)">
<path d="M18.87 20H14.937L8.359 10.041V20H4.426V3.854H8.359L14.937 13.859V3.854H18.87V20ZM29.3569 20.161C27.8389 20.161 26.4436 19.8083 25.1709 19.103C23.9136 18.3977 22.9093 17.4163 22.1579 16.159C21.4219 14.8863 21.0539 13.4603 21.0539 11.881C21.0539 10.3017 21.4219 8.88333 22.1579 7.626C22.9093 6.36867 23.9136 5.38733 25.1709 4.682C26.4436 3.97667 27.8389 3.624 29.3569 3.624C30.8749 3.624 32.2626 3.97667 33.5199 4.682C34.7926 5.38733 35.7893 6.36867 36.5099 7.626C37.2459 8.88333 37.6139 10.3017 37.6139 11.881C37.6139 13.4603 37.2459 14.8863 36.5099 16.159C35.7739 17.4163 34.7773 18.3977 33.5199 19.103C32.2626 19.8083 30.8749 20.161 29.3569 20.161ZM29.3569 16.573C30.6449 16.573 31.6723 16.1437 32.4389 15.285C33.2209 14.4263 33.6119 13.2917 33.6119 11.881C33.6119 10.455 33.2209 9.32033 32.4389 8.477C31.6723 7.61833 30.6449 7.189 29.3569 7.189C28.0536 7.189 27.0109 7.61067 26.2289 8.454C25.4623 9.29733 25.0789 10.4397 25.0789 11.881C25.0789 13.307 25.4623 14.4493 26.2289 15.308C27.0109 16.1513 28.0536 16.573 29.3569 16.573ZM43.735 16.964H48.887V20H39.802V3.854H43.735V16.964ZM60.8139 17.148H54.7879L53.8219 20H49.7049L55.5469 3.854H60.1009L65.9429 20H61.7799L60.8139 17.148ZM59.8019 14.112L57.8009 8.201L55.8229 14.112H59.8019ZM73.7699 3.854C75.4719 3.854 76.9593 4.19133 78.2319 4.866C79.5046 5.54067 80.4859 6.49133 81.1759 7.718C81.8813 8.92933 82.2339 10.3323 82.2339 11.927C82.2339 13.5063 81.8813 14.9093 81.1759 16.136C80.4859 17.3627 79.4969 18.3133 78.2089 18.988C76.9363 19.6627 75.4566 20 73.7699 20H67.7209V3.854H73.7699ZM73.5169 16.596C75.0043 16.596 76.1619 16.1897 76.9899 15.377C77.8179 14.5643 78.2319 13.4143 78.2319 11.927C78.2319 10.4397 77.8179 9.282 76.9899 8.454C76.1619 7.626 75.0043 7.212 73.5169 7.212H71.6539V16.596H73.5169ZM113.038 3.854V20H109.105V13.353H102.987V20H99.0539V3.854H102.987V10.179H109.105V3.854H113.038ZM119.81 7.005V10.271H125.077V13.307H119.81V16.849H125.767V20H115.877V3.854H125.767V7.005H119.81ZM138.372 17.148H132.346L131.38 20H127.263L133.105 3.854H137.659L143.501 20H139.338L138.372 17.148ZM137.36 14.112L135.359 8.201L133.381 14.112H137.36ZM149.212 16.964H154.364V20H145.279V3.854H149.212V16.964ZM167.854 3.854V7.005H163.576V20H159.643V7.005H155.365V3.854H167.854ZM183.812 3.854V20H179.879V13.353H173.761V20H169.828V3.854H173.761V10.179H179.879V3.854H183.812Z" fill="#251F1F"/>
</g>
<path d="M89.8538 13.1472C89.9475 13.241 90.0002 13.3681 90.0002 13.5007C90.0002 13.6333 89.9475 13.7605 89.8538 13.8542L88.3538 15.3542C87.9955 15.7125 87.5098 15.9142 87.0031 15.9149C86.4964 15.9157 86.0101 15.7155 85.6508 15.3582C85.5786 15.2892 85.5288 15.2001 85.5079 15.1024C85.487 15.0048 85.4959 14.9031 85.5336 14.8106C85.5712 14.718 85.6358 14.639 85.7189 14.5836C85.8021 14.5283 85.8999 14.4992 85.9998 14.5002C86.1378 14.5002 86.2628 14.5562 86.3528 14.6462C86.4377 14.7312 86.5385 14.7985 86.6494 14.8445C86.7603 14.8905 86.8792 14.9141 86.9993 14.9141C87.1194 14.9141 87.2383 14.8905 87.3492 14.8445C87.4601 14.7985 87.5609 14.7312 87.6458 14.6462L89.1458 13.1462C89.2396 13.0525 89.3667 12.9998 89.4993 12.9998C89.6319 12.9998 89.759 13.0525 89.8528 13.1462L89.8538 13.1472ZM92.1468 3.14722C92.5193 2.76236 92.9646 2.45547 93.4568 2.24445C93.9491 2.03343 94.4784 1.92249 95.014 1.9181C95.5496 1.91372 96.0806 2.01597 96.5763 2.2189C97.0719 2.42183 97.5222 2.72137 97.9009 3.10009C98.2796 3.4788 98.5792 3.9291 98.7821 4.42474C98.9851 4.92039 99.0873 5.45147 99.0829 5.98703C99.0785 6.52259 98.9676 7.05192 98.7566 7.54418C98.5456 8.03643 98.2387 8.48176 97.8538 8.85422L89.8538 16.8542C89.097 17.611 88.0706 18.0362 87.0003 18.0362C85.93 18.0362 84.9036 17.611 84.1468 16.8542C83.39 16.0974 82.9648 15.071 82.9648 14.0007C82.9648 12.9305 83.39 11.904 84.1468 11.1472L92.1468 3.14722ZM97.1468 3.85422C96.5775 3.28503 95.8054 2.96527 95.0003 2.96527C94.1952 2.96527 93.4231 3.28503 92.8538 3.85422L89.2068 7.50022L93.4998 11.7932L97.1468 8.14722C97.4288 7.86538 97.6524 7.53075 97.805 7.16245C97.9576 6.79414 98.0362 6.39939 98.0362 6.00072C98.0362 5.60206 97.9576 5.2073 97.805 4.83899C97.6524 4.47069 97.4288 4.13606 97.1468 3.85422ZM92.7928 12.5002L88.4998 8.20722L84.8538 11.8542C84.2995 12.4266 83.9924 13.1939 83.9988 13.9906C84.0052 14.7874 84.3246 15.5497 84.888 16.1131C85.4514 16.6765 86.2136 16.9958 87.0104 17.0022C87.8071 17.0086 88.5744 16.7015 89.1468 16.1472L92.7928 12.5002Z" fill="#50B364"/>
<defs>
<filter id="filter0_d_427_6002" x="0.425781" y="3.62305" width="187.387" height="24.5371" filterUnits="userSpaceOnUse" color-interpolation-filters="sRGB">
<feFlood flood-opacity="0" result="BackgroundImageFix"/>
<feColorMatrix in="SourceAlpha" type="matrix" values="0 0 0 0 0 0 0 0 0 0 0 0 0 0 0 0 0 0 127 0" result="hardAlpha"/>
<feOffset dy="4"/>
<feGaussianBlur stdDeviation="2"/>
<feComposite in2="hardAlpha" operator="out"/>
<feColorMatrix type="matrix" values="0 0 0 0 0 0 0 0 0 0 0 0 0 0 0 0 0 0 0.25 0"/>
<feBlend mode="normal" in2="BackgroundImageFix" result="effect1_dropShadow_427_6002"/>
<feBlend mode="normal" in="SourceGraphic" in2="effect1_dropShadow_427_6002" result="shape"/>
</filter>
</defs>
</svg>
